<svg width="635" height="319" viewBox="0 0 635 319" fill="none" xmlns="http://www.w3.org/2000/svg">
<path d="M58.9353 63.2262L65.6064 57.8265L169.79 18.7578L55.125 140.411L58.9353 139.06M172.966 24.7928L58.9353 205.843L61.7948 215.372L169.294 100.285M65.6064 63.2262L169.294 100.285M169.294 100.285L169.79 99.7538L58.9353 139.06M65.6064 70.5317L172.966 173.127L169.294 176.621M169.294 176.621L58.9353 139.06M169.294 176.621L61.7948 217.595L166.296 256.028M61.7948 70.5317L179.954 264.287L65.6064 148.034" stroke="#F5EFD9" stroke-width="1.95849"/>
<path d="M186.316 17.4873H312.73H455.03L475.358 23.5223L582.083 133.74L579.542 148.034L469.323 257.617H181.867L306.695 182.973L308.283 177.574H190.124L184.407 172.809L306.695 104.836L312.73 107.059L184.407 251.899L181.867 244.911L315.588 25.7458H309.553L175.195 180.432L190.124 182.973L312.73 255.711L309.553 247.77L181.867 104.836H186.316L312.73 176.303L315.588 170.903L186.316 27.3339H181.867L318.129 255.711M308.283 23.5223L179.642 97.5305H312.73H453.122M186.316 23.5223L306.695 93.7189M329.881 93.7189L453.122 21.9342V27.3339L325.117 172.809L329.881 174.397L457.569 100.389V107.059L326.705 251.899L325.117 247.77L459.157 25.7458M326.705 23.5223L464.875 102.613M326.705 27.3339L455.03 169.315M326.705 31.1455L459.157 251.899M329.881 102.613L461.063 177.574M327.976 107.059L455.03 251.899M333.058 177.574H453.122H475.358L571.599 142.952V133.74L472.18 100.389M331.469 182.973L453.122 251.899M329.881 251.899L450.899 182.973" stroke="#F5EFD9" stroke-width="1.95849"/>
<path d="M1 61.4553C0.459177 61.4553 0.0207536 61.8937 0.0207536 62.4346C0.0207535 62.9754 0.459177 63.4138 1 63.4138L1 61.4553ZM32.5961 62.4346L22.8037 56.7809L22.8037 68.0883L32.5961 62.4346ZM1 63.4138L23.7829 63.4138L23.7829 61.4553L1 61.4553L1 63.4138Z" fill="#F5EFD9"/>
<path d="M1 138.271C0.459177 138.271 0.0207536 138.709 0.0207536 139.25C0.0207535 139.791 0.459177 140.229 1 140.229L1 138.271ZM32.5961 139.25L22.8037 133.596L22.8037 144.904L32.5961 139.25ZM1 140.229L23.7829 140.229L23.7829 138.271L1 138.271L1 140.229Z" fill="#F5EFD9"/>
<path d="M603.016 138.271C602.475 138.271 602.036 138.709 602.036 139.25C602.036 139.791 602.475 140.229 603.016 140.229L603.016 138.271ZM634.612 139.25L624.819 133.596L624.819 144.904L634.612 139.25ZM603.016 140.229L625.799 140.229L625.799 138.271L603.016 138.271L603.016 140.229Z" fill="#F5EFD9"/>
<path d="M1 215.087C0.459177 215.087 0.0207536 215.526 0.0207536 216.066C0.0207535 216.607 0.459177 217.046 1 217.046L1 215.087ZM32.5961 216.066L22.8037 210.413L22.8037 221.72L32.5961 216.066ZM1 217.046L23.7829 217.046L23.7829 215.087L1 215.087L1 217.046Z" fill="#F5EFD9"/>
<circle cx="55.1309" cy="62.4346" r="17.1751" fill="#FF7E00" stroke="#F5EFD9" stroke-width="1.95849"/>
<circle cx="177.92" cy="18.1543" r="17.1751" fill="#00BB9C" stroke="#F5EFD9" stroke-width="1.95849"/>
<circle cx="319.35" cy="18.1543" r="17.1751" fill="#00BB9C" stroke="#F5EFD9" stroke-width="1.95849"/>
<circle cx="463.623" cy="18.1543" r="17.1751" fill="#00BB9C" stroke="#F5EFD9" stroke-width="1.95849"/>
<circle cx="581.514" cy="138.521" r="17.1751" fill="#94182C" stroke="#F5EFD9" stroke-width="1.95849"/>
<circle cx="177.92" cy="98.7432" r="17.1751" fill="#00BB9C" stroke="#F5EFD9" stroke-width="1.95849"/>
<circle cx="319.35" cy="98.7432" r="17.1751" fill="#00BB9C" stroke="#F5EFD9" stroke-width="1.95849"/>
<circle cx="463.623" cy="98.7432" r="17.1751" fill="#00BB9C" stroke="#F5EFD9" stroke-width="1.95849"/>
<circle cx="177.92" cy="177.264" r="17.1751" fill="#00BB9C" stroke="#F5EFD9" stroke-width="1.95849"/>
<circle cx="319.35" cy="177.264" r="17.1751" fill="#00BB9C" stroke="#F5EFD9" stroke-width="1.95849"/>
<circle cx="463.623" cy="177.264" r="17.1751" fill="#00BB9C" stroke="#F5EFD9" stroke-width="1.95849"/>
<circle cx="177.92" cy="257.853" r="17.1751" fill="#00BB9C" stroke="#F5EFD9" stroke-width="1.95849"/>
<circle cx="319.35" cy="257.853" r="17.1751" fill="#00BB9C" stroke="#F5EFD9" stroke-width="1.95849"/>
<circle cx="463.623" cy="257.853" r="17.1751" fill="#00BB9C" stroke="#F5EFD9" stroke-width="1.95849"/>
<circle cx="55.1309" cy="139.25" r="17.1751" fill="#FF7E00" stroke="#F5EFD9" stroke-width="1.95849"/>
<circle cx="55.1309" cy="213.572" r="17.1751" fill="#FF7E00" stroke="#F5EFD9" stroke-width="1.95849"/>
<path d="M19.6573 310.898C19.0973 310.38 18.8173 309.61 18.8173 308.588C18.8173 308.056 19.0553 306.474 19.5453 303.856L21.1133 304.192C20.9733 304.976 20.8473 305.746 20.7353 306.502C20.6233 307.272 20.5533 307.832 20.5533 308.182C20.5533 308.798 21.3233 309.092 22.8913 309.092C23.6333 309.092 24.2633 309.036 24.7953 308.924C25.3133 308.812 25.7473 308.63 26.1113 308.378C26.1113 308.21 26.0973 308.098 26.0693 308.014C26.0413 307.93 25.9713 307.888 25.8733 307.86C25.1173 307.776 24.5573 307.692 24.1793 307.594C23.7873 307.51 23.4933 307.356 23.2833 307.146C23.0733 306.95 22.9753 306.642 22.9753 306.25C22.9753 305.494 23.1293 304.71 23.4513 303.898C23.7593 303.086 24.1793 302.414 24.6833 301.882C25.1873 301.35 25.7053 301.07 26.2233 301.07C26.6433 301.07 27.0213 301.21 27.3713 301.476C27.7073 301.742 28.0853 302.218 28.5053 302.89L27.4133 304.038C26.9793 303.618 26.5873 303.394 26.2233 303.394C25.8733 303.394 25.5793 303.576 25.3273 303.926C25.0753 304.29 24.8793 304.752 24.7673 305.326C25.5093 305.424 26.0833 305.536 26.4753 305.662C26.8673 305.788 27.2033 306.04 27.4553 306.404C27.7073 306.768 27.8333 307.328 27.8333 308.056C27.8333 308.784 27.6233 309.4 27.2313 309.918C26.7973 310.478 26.1813 310.898 25.3833 311.206C24.5853 311.514 23.6473 311.668 22.5833 311.668C21.1833 311.668 20.2173 311.416 19.6573 310.898ZM36.0879 302.974C36.5919 303.912 36.8439 304.822 36.8439 305.69C36.8439 306.362 36.6479 306.894 36.2559 307.286C35.6399 307.93 34.5479 308.238 32.9799 308.238C32.2939 308.238 31.7479 308.168 31.3419 308.014C30.9219 307.874 30.6139 307.622 30.4179 307.258C30.2219 306.908 30.1239 306.418 30.1239 305.788C30.1239 305.466 30.1379 305.172 30.1939 304.892L31.7759 305.018L31.7479 305.256C31.7479 305.396 31.7759 305.48 31.8459 305.536C31.9159 305.592 32.0279 305.634 32.1959 305.648C32.3639 305.662 32.6439 305.662 33.0499 305.662C33.2739 305.662 33.5959 305.648 34.0159 305.606C34.4359 305.578 34.7859 305.522 35.0799 305.466C34.9819 304.99 34.7299 304.472 34.3239 303.898C33.9179 303.324 33.3579 302.694 32.6299 301.994L33.9319 300.244C34.8559 301.14 35.5839 302.05 36.0879 302.974ZM42.9906 302.61C43.3966 302.988 43.7046 303.506 43.9286 304.15C44.1386 304.794 44.2506 305.522 44.2506 306.306C44.2506 307.566 43.9006 308.7 43.2006 309.708C42.5006 310.716 41.3246 311.57 39.7006 312.27L38.3986 310.282C39.2386 309.988 39.9946 309.624 40.6666 309.204C41.3246 308.784 41.8286 308.35 42.1926 307.902C41.8566 307.986 41.5206 308.014 41.1566 308.014C40.6526 308.014 40.2466 307.958 39.9246 307.846C39.7846 307.818 39.6726 307.748 39.5746 307.65C39.4766 307.552 39.3506 307.37 39.1826 307.104C39.0286 306.88 38.9306 306.698 38.8746 306.558C38.8186 306.418 38.8046 306.264 38.8046 306.11C38.8466 304.934 39.0986 303.968 39.5466 303.198C39.9946 302.442 40.6806 302.05 41.5766 302.05C42.1086 302.05 42.5846 302.246 42.9906 302.61ZM41.5766 305.9C41.9966 305.9 42.3326 305.886 42.5706 305.844C42.5706 305.326 42.4586 304.92 42.2486 304.64C42.0386 304.36 41.7726 304.22 41.4366 304.22C41.1426 304.22 40.9186 304.36 40.7506 304.626C40.5826 304.906 40.4706 305.312 40.4426 305.844C40.6946 305.886 41.0726 305.9 41.5766 305.9ZM44.7623 310.31C45.5883 309.918 46.2043 309.512 46.6243 309.078C47.0303 308.658 47.3523 308.14 47.5903 307.524L47.0303 303.156L49.0043 302.736C49.2283 304.668 49.3543 306.082 49.3543 306.978C49.3543 308.168 49.1023 309.19 48.6123 310.03C48.1083 310.884 47.2823 311.626 46.1203 312.27L44.7623 310.31ZM55.4867 302.61C55.8927 302.988 56.2007 303.506 56.4247 304.15C56.6347 304.794 56.7467 305.522 56.7467 306.306C56.7467 307.566 56.3967 308.7 55.6967 309.708C54.9967 310.716 53.8207 311.57 52.1967 312.27L50.8947 310.282C51.7347 309.988 52.4907 309.624 53.1627 309.204C53.8207 308.784 54.3247 308.35 54.6887 307.902C54.3527 307.986 54.0167 308.014 53.6527 308.014C53.1487 308.014 52.7427 307.958 52.4207 307.846C52.2807 307.818 52.1687 307.748 52.0707 307.65C51.9727 307.552 51.8467 307.37 51.6787 307.104C51.5247 306.88 51.4267 306.698 51.3707 306.558C51.3147 306.418 51.3007 306.264 51.3007 306.11C51.3427 304.934 51.5947 303.968 52.0427 303.198C52.4907 302.442 53.1767 302.05 54.0727 302.05C54.6047 302.05 55.0807 302.246 55.4867 302.61ZM54.0727 305.9C54.4927 305.9 54.8287 305.886 55.0667 305.844C55.0667 305.326 54.9547 304.92 54.7447 304.64C54.5347 304.36 54.2687 304.22 53.9327 304.22C53.6387 304.22 53.4147 304.36 53.2467 304.626C53.0787 304.906 52.9667 305.312 52.9387 305.844C53.1907 305.886 53.5687 305.9 54.0727 305.9ZM61.8487 310.898C61.2887 310.38 61.0087 309.61 61.0087 308.588C61.0087 308.056 61.2467 306.474 61.7367 303.856L63.3047 304.192C63.1647 304.976 63.0387 305.746 62.9267 306.502C62.8147 307.272 62.7447 307.832 62.7447 308.182C62.7447 308.798 63.5147 309.092 65.0827 309.092C65.8247 309.092 66.4547 309.036 66.9867 308.924C67.5047 308.812 67.9387 308.63 68.3027 308.378C68.3027 308.21 68.2887 308.098 68.2607 308.014C68.2327 307.93 68.1627 307.888 68.0647 307.86C67.3087 307.776 66.7487 307.692 66.3707 307.594C65.9787 307.51 65.6847 307.356 65.4747 307.146C65.2647 306.95 65.1667 306.642 65.1667 306.25C65.1667 305.494 65.3207 304.71 65.6427 303.898C65.9507 303.086 66.3707 302.414 66.8747 301.882C67.3787 301.35 67.8967 301.07 68.4147 301.07C68.8347 301.07 69.2127 301.21 69.5627 301.476C69.8987 301.742 70.2767 302.218 70.6967 302.89L69.6047 304.038C69.1707 303.618 68.7787 303.394 68.4147 303.394C68.0647 303.394 67.7707 303.576 67.5187 303.926C67.2667 304.29 67.0707 304.752 66.9587 305.326C67.7007 305.424 68.2747 305.536 68.6667 305.662C69.0587 305.788 69.3947 306.04 69.6467 306.404C69.8987 306.768 70.0247 307.328 70.0247 308.056C70.0247 308.784 69.8147 309.4 69.4227 309.918C68.9887 310.478 68.3727 310.898 67.5747 311.206C66.7767 311.514 65.8387 311.668 64.7747 311.668C63.3747 311.668 62.4087 311.416 61.8487 310.898ZM79.7782 305.606C79.8062 305.732 79.8202 305.872 79.8202 306.04V307.384C79.8202 307.552 79.8062 307.706 79.7782 307.818C79.7502 307.944 79.7082 308 79.6802 308H78.6862C78.2662 308 77.9022 307.888 77.5942 307.636C77.2862 307.398 77.0622 307.09 76.9502 306.698L76.8522 306.922C76.7682 307.076 76.6842 307.188 76.5862 307.272C76.4882 307.356 76.3622 307.412 76.2222 307.44C75.8442 307.524 75.3822 307.552 74.8222 307.552C73.5202 307.552 72.8762 306.964 72.8762 305.788C72.8762 305.088 72.9602 304.514 73.1282 304.066C73.2962 303.618 73.6042 303.226 74.0242 302.876C74.4442 302.526 75.0602 302.148 75.8722 301.756L75.7602 300.664L77.5942 300.118L78.0002 304.08C78.0282 304.444 78.0702 304.696 78.1122 304.864C78.1542 305.032 78.2382 305.172 78.3782 305.27C78.5182 305.382 78.7282 305.424 79.0082 305.424H79.6802C79.7082 305.424 79.7502 305.494 79.7782 305.606ZM76.4182 304.962L76.2362 303.604C75.6202 303.87 75.1862 304.136 74.9342 304.388C74.6822 304.64 74.5142 304.906 74.4582 305.186C74.7382 305.214 74.9062 305.228 74.9762 305.228C75.3962 305.228 75.8862 305.144 76.4182 304.962ZM79.5716 307.818C79.5436 307.706 79.5296 307.552 79.5296 307.384V306.04C79.5296 305.872 79.5436 305.732 79.5716 305.606C79.5996 305.494 79.6276 305.424 79.6836 305.424C80.3276 305.424 80.8316 305.41 81.1956 305.354C81.5456 305.312 81.8256 305.242 82.0496 305.144L81.6716 302.134L83.6316 301.784C83.6876 302.456 83.7436 303.044 83.7716 303.52C83.7996 304.01 83.8136 304.64 83.8136 305.396C83.8136 306.236 83.4916 306.866 82.8476 307.286C82.1756 307.762 81.1116 308 79.6836 308C79.6416 308 79.5996 307.944 79.5716 307.818ZM84.3596 310.912L83.0016 312.494L81.4336 311.164L82.7636 309.582L84.3596 310.912ZM81.5596 310.996L80.2156 312.606L78.6336 311.276L79.9636 309.666L81.5596 310.996ZM88.0429 305.536C88.9389 305.396 89.6109 305.214 90.0309 305.004L89.6529 297.472L91.6129 297.108L91.7949 304.99C91.7949 306.166 91.1789 307.006 89.9609 307.51C88.7429 308.014 87.3569 308.308 85.7889 308.364L85.4809 305.788C86.2929 305.774 87.1469 305.69 88.0429 305.536ZM88.0429 300.972C88.2809 302.036 88.4069 303.142 88.4069 304.304V305.018L86.8389 305.2C86.8249 304.444 86.7969 303.786 86.7549 303.226C86.6989 302.68 86.5589 302.064 86.3209 301.364C86.0689 300.678 85.6909 300.034 85.1869 299.418L86.5169 297.92C87.2869 298.9 87.7909 299.922 88.0429 300.972Z" fill="#FF7E00"/>
<path d="M284.339 300.832L282.883 302.568L281.119 301.098L282.589 299.362L284.339 300.832ZM279.397 303.548L280.965 303.884C280.825 304.668 280.699 305.438 280.587 306.194C280.475 306.964 280.405 307.524 280.405 307.874C280.405 308.224 280.615 308.462 281.049 308.588C281.469 308.728 281.945 308.784 282.449 308.784C283.639 308.784 284.577 308.63 285.277 308.322L284.661 303.142L286.593 302.694C286.887 305.55 287.041 307.594 287.041 308.812C287.041 309.4 286.775 309.89 286.257 310.268C285.725 310.66 285.109 310.94 284.395 311.108C283.667 311.276 283.023 311.36 282.435 311.36C281.091 311.36 280.139 311.108 279.551 310.576C278.963 310.044 278.669 309.288 278.669 308.28C278.669 307.762 278.907 306.18 279.397 303.548ZM292.711 305.606C292.739 305.732 292.753 305.872 292.753 306.04V307.384C292.753 307.552 292.739 307.706 292.711 307.818C292.683 307.944 292.641 308 292.613 308H292.151C291.423 308 290.849 307.902 290.401 307.692C289.953 307.482 289.603 307.104 289.365 306.572C289.127 306.04 289.001 305.284 288.987 304.332L288.917 297.472L290.877 297.108V304.318C290.877 305.06 291.185 305.424 291.815 305.424H292.613C292.641 305.424 292.683 305.494 292.711 305.606ZM300.285 305.606C300.313 305.732 300.327 305.872 300.327 306.04V307.384C300.327 307.552 300.313 307.706 300.285 307.818C300.257 307.944 300.215 308 300.187 308C299.263 308 298.647 307.986 298.367 307.944C298.535 308.224 298.619 308.49 298.619 308.77V309.736C298.619 309.904 298.577 310.072 298.493 310.212C298.409 310.352 298.255 310.52 298.045 310.688C297.765 310.912 297.541 311.08 297.387 311.164C297.219 311.262 297.065 311.304 296.925 311.29C295.889 311.234 295.091 310.94 294.517 310.394C293.943 309.848 293.593 309.05 293.467 308H292.613C292.571 308 292.529 307.944 292.501 307.818C292.473 307.706 292.459 307.552 292.459 307.384V306.04C292.459 305.872 292.473 305.732 292.501 305.606C292.529 305.494 292.557 305.424 292.613 305.424H293.593C293.733 304.752 293.971 304.136 294.279 303.562C294.587 302.988 294.951 302.526 295.371 302.176C295.791 301.826 296.225 301.644 296.687 301.644H297.989L298.087 305.424H300.187C300.215 305.424 300.257 305.494 300.285 305.606ZM295.539 304.36C295.315 304.808 295.147 305.284 295.049 305.788H295.693C295.959 305.788 296.197 305.816 296.421 305.858L296.365 303.408C296.043 303.604 295.763 303.912 295.539 304.36ZM296.953 308.812C296.953 308.392 296.855 308.098 296.659 307.916C296.463 307.748 296.127 307.65 295.651 307.65H294.923C295.007 308.224 295.231 308.644 295.581 308.91C295.917 309.19 296.379 309.302 296.953 309.26V308.812ZM302.918 301.084L301.168 299.614L302.638 297.864L304.374 299.334L302.918 301.084ZM306.362 305.606C306.39 305.732 306.404 305.872 306.404 306.04V307.384C306.404 307.552 306.39 307.706 306.362 307.818C306.334 307.944 306.292 308 306.264 308C305.312 308 304.626 307.93 304.206 307.776C303.772 307.636 303.478 307.37 303.338 306.992C303.198 307.258 303.002 307.468 302.778 307.608C302.54 307.748 302.218 307.86 301.812 307.916C301.406 307.972 300.86 308 300.188 308C300.145 308 300.103 307.944 300.075 307.818C300.047 307.706 300.033 307.552 300.033 307.384V306.04C300.033 305.872 300.047 305.732 300.075 305.606C300.103 305.494 300.131 305.424 300.188 305.424C300.804 305.424 301.28 305.41 301.616 305.382C301.952 305.354 302.245 305.27 302.47 305.144L302.134 302.624L304.094 302.414L304.234 305.27C304.374 305.34 304.598 305.382 304.878 305.396C305.158 305.424 305.62 305.424 306.264 305.424C306.292 305.424 306.334 305.494 306.362 305.606ZM306.146 307.818C306.118 307.706 306.104 307.552 306.104 307.384V306.04C306.104 305.872 306.118 305.732 306.146 305.606C306.174 305.494 306.202 305.424 306.258 305.424C306.902 305.424 307.406 305.41 307.77 305.354C308.12 305.312 308.4 305.242 308.624 305.144L308.246 302.134L310.206 301.784C310.262 302.456 310.318 303.044 310.346 303.52C310.374 304.01 310.388 304.64 310.388 305.396C310.388 306.236 310.066 306.866 309.422 307.286C308.75 307.762 307.686 308 306.258 308C306.216 308 306.174 307.944 306.146 307.818ZM309.016 309.582L310.528 310.842L309.24 312.368L307.728 311.094L309.016 309.582ZM306.58 312.452L305.068 311.178L306.342 309.652L307.854 310.926L306.58 312.452ZM307.728 312.032L309.254 313.306L307.98 314.818L306.468 313.544L307.728 312.032ZM315.616 310.898C315.056 310.38 314.776 309.61 314.776 308.588C314.776 308.056 315.014 306.474 315.504 303.856L317.072 304.192C316.932 304.976 316.806 305.746 316.694 306.502C316.582 307.272 316.512 307.832 316.512 308.182C316.512 308.798 317.282 309.092 318.85 309.092C319.592 309.092 320.222 309.036 320.754 308.924C321.272 308.812 321.706 308.63 322.07 308.378C322.07 308.21 322.056 308.098 322.028 308.014C322 307.93 321.93 307.888 321.832 307.86C321.076 307.776 320.516 307.692 320.138 307.594C319.746 307.51 319.452 307.356 319.242 307.146C319.032 306.95 318.934 306.642 318.934 306.25C318.934 305.494 319.088 304.71 319.41 303.898C319.718 303.086 320.138 302.414 320.642 301.882C321.146 301.35 321.664 301.07 322.182 301.07C322.602 301.07 322.98 301.21 323.33 301.476C323.666 301.742 324.044 302.218 324.464 302.89L323.372 304.038C322.938 303.618 322.546 303.394 322.182 303.394C321.832 303.394 321.538 303.576 321.286 303.926C321.034 304.29 320.838 304.752 320.726 305.326C321.468 305.424 322.042 305.536 322.434 305.662C322.826 305.788 323.162 306.04 323.414 306.404C323.666 306.768 323.792 307.328 323.792 308.056C323.792 308.784 323.582 309.4 323.19 309.918C322.756 310.478 322.14 310.898 321.342 311.206C320.544 311.514 319.606 311.668 318.542 311.668C317.142 311.668 316.176 311.416 315.616 310.898ZM329.912 305.606C329.94 305.732 329.954 305.872 329.954 306.04V307.384C329.954 307.552 329.94 307.706 329.912 307.818C329.884 307.944 329.842 308 329.814 308H329.352C328.624 308 328.05 307.902 327.602 307.692C327.154 307.482 326.804 307.104 326.566 306.572C326.328 306.04 326.202 305.284 326.188 304.332L326.118 297.472L328.078 297.108V304.318C328.078 305.06 328.386 305.424 329.016 305.424H329.814C329.842 305.424 329.884 305.494 329.912 305.606ZM338.452 305.032C338.452 305.564 338.326 306.194 338.074 306.922C338.018 307.062 337.92 307.202 337.808 307.342C337.682 307.482 337.514 307.622 337.304 307.79C337.024 308.014 336.772 308.126 336.576 308.126C336.478 308.126 336.38 308.112 336.268 308.056L334.21 307.272C334.014 307.51 333.538 307.692 332.81 307.818C332.082 307.944 331.074 308 329.814 308C329.772 308 329.73 307.944 329.702 307.818C329.674 307.706 329.66 307.552 329.66 307.384V306.04C329.66 305.872 329.674 305.732 329.702 305.606C329.73 305.494 329.758 305.424 329.814 305.424H330.472C330.976 305.424 331.326 305.438 331.536 305.452C331.34 305.34 331.2 305.172 331.088 304.948C330.976 304.738 330.92 304.514 330.92 304.276C330.92 303.744 331.186 303.114 331.746 302.386L331.186 302.106L332.082 300.132L336.394 302.078C337.766 302.708 338.452 303.688 338.452 305.032ZM334.364 303.562L333.244 303.044C332.964 303.324 332.768 303.548 332.684 303.688C332.586 303.842 332.544 303.982 332.544 304.094C332.544 304.262 332.67 304.43 332.95 304.584C333.216 304.752 333.524 304.836 333.86 304.85L334.364 303.562ZM336.814 305.606C336.842 305.48 336.87 305.368 336.87 305.27C336.87 305.046 336.758 304.822 336.548 304.612C336.338 304.416 336.03 304.234 335.638 304.08L335.106 305.368L336.66 305.956C336.716 305.858 336.772 305.746 336.814 305.606ZM347.778 305.606C347.806 305.732 347.82 305.872 347.82 306.04V307.384C347.82 307.552 347.806 307.706 347.778 307.818C347.75 307.944 347.708 308 347.68 308H346.686C346.266 308 345.902 307.888 345.594 307.636C345.286 307.398 345.062 307.09 344.95 306.698L344.852 306.922C344.768 307.076 344.684 307.188 344.586 307.272C344.488 307.356 344.362 307.412 344.222 307.44C343.844 307.524 343.382 307.552 342.822 307.552C341.52 307.552 340.876 306.964 340.876 305.788C340.876 305.088 340.96 304.514 341.128 304.066C341.296 303.618 341.604 303.226 342.024 302.876C342.444 302.526 343.06 302.148 343.872 301.756L343.76 300.664L345.594 300.118L346 304.08C346.028 304.444 346.07 304.696 346.112 304.864C346.154 305.032 346.238 305.172 346.378 305.27C346.518 305.382 346.728 305.424 347.008 305.424H347.68C347.708 305.424 347.75 305.494 347.778 305.606ZM344.418 304.962L344.236 303.604C343.62 303.87 343.186 304.136 342.934 304.388C342.682 304.64 342.514 304.906 342.458 305.186C342.738 305.214 342.906 305.228 342.976 305.228C343.396 305.228 343.886 305.144 344.418 304.962ZM347.572 307.818C347.544 307.706 347.53 307.552 347.53 307.384V306.04C347.53 305.872 347.544 305.732 347.572 305.606C347.6 305.494 347.628 305.424 347.684 305.424C348.328 305.424 348.832 305.41 349.196 305.354C349.546 305.312 349.826 305.242 350.05 305.144L349.672 302.134L351.632 301.784C351.688 302.456 351.744 303.044 351.772 303.52C351.8 304.01 351.814 304.64 351.814 305.396C351.814 306.236 351.492 306.866 350.848 307.286C350.176 307.762 349.112 308 347.684 308C347.642 308 347.6 307.944 347.572 307.818ZM352.36 310.912L351.002 312.494L349.434 311.164L350.764 309.582L352.36 310.912ZM349.56 310.996L348.216 312.606L346.634 311.276L347.964 309.666L349.56 310.996ZM356.043 305.536C356.939 305.396 357.611 305.214 358.031 305.004L357.653 297.472L359.613 297.108L359.795 304.99C359.795 306.166 359.179 307.006 357.961 307.51C356.743 308.014 355.357 308.308 353.789 308.364L353.481 305.788C354.293 305.774 355.147 305.69 356.043 305.536ZM356.043 300.972C356.281 302.036 356.407 303.142 356.407 304.304V305.018L354.839 305.2C354.825 304.444 354.797 303.786 354.755 303.226C354.699 302.68 354.559 302.064 354.321 301.364C354.069 300.678 353.691 300.034 353.187 299.418L354.517 297.92C355.287 298.9 355.791 299.922 356.043 300.972Z" fill="#00BB9C"/>
<path d="M552.022 305.606C552.05 305.732 552.064 305.872 552.064 306.04V307.384C552.064 307.552 552.05 307.706 552.022 307.818C551.994 307.944 551.952 308 551.924 308H551.378C551.378 308.056 551.392 308.126 551.392 308.224C551.392 308.952 551.168 309.582 550.748 310.114C550.328 310.66 549.712 311.08 548.928 311.374C548.144 311.682 547.206 311.822 546.142 311.822C544.742 311.822 543.762 311.57 543.202 311.052C542.642 310.548 542.376 309.778 542.376 308.756C542.376 308.224 542.614 306.642 543.104 304.024L544.672 304.36C544.532 305.13 544.406 305.9 544.294 306.656C544.182 307.426 544.112 307.986 544.112 308.35C544.112 308.714 544.336 308.952 544.784 309.064C545.232 309.19 545.792 309.246 546.45 309.246C547.192 309.246 547.822 309.19 548.354 309.078C548.872 308.966 549.306 308.784 549.67 308.532C549.67 308.308 549.502 308.154 549.166 308.098C548.83 308.042 548.27 308 547.514 308L547.934 305.424H551.924C551.952 305.424 551.994 305.494 552.022 305.606ZM559.94 302.47C560.542 302.624 561.172 302.694 561.844 302.694L561.326 305.116C560.724 305.186 560.192 305.312 559.73 305.508C559.254 305.704 558.708 305.984 558.078 306.348C557.546 306.656 557.14 306.866 556.846 307.006C556.202 307.314 555.502 307.566 554.746 307.734C553.99 307.916 553.094 308 552.086 308H551.918C551.876 308 551.834 307.944 551.806 307.818C551.778 307.706 551.764 307.552 551.764 307.384V306.04C551.764 305.872 551.778 305.732 551.806 305.606C551.834 305.494 551.862 305.424 551.918 305.424H552.086C553.276 305.424 554.438 305.284 555.558 304.99C556.034 304.878 556.608 304.682 557.294 304.402C557.63 304.262 557.882 304.178 558.05 304.122L558.316 304.066C558.106 304.024 557.714 303.884 557.126 303.66C556.09 303.31 555.432 303.128 555.152 303.128C554.858 303.128 554.662 303.212 554.564 303.366C554.452 303.534 554.382 303.73 554.34 303.982L552.842 303.744C553.094 301.938 553.822 301.028 554.998 301.028C555.334 301.028 555.67 301.084 556.034 301.182C556.384 301.28 556.86 301.434 557.476 301.644L557.686 301.728C557.756 301.756 557.826 301.784 557.882 301.798C558.652 302.092 559.338 302.316 559.94 302.47ZM556.37 309.288L558.12 310.758L556.65 312.508L554.914 311.038L556.37 309.288ZM567.752 302.61C568.158 302.988 568.466 303.506 568.69 304.15C568.9 304.794 569.012 305.522 569.012 306.306C569.012 307.566 568.662 308.7 567.962 309.708C567.262 310.716 566.086 311.57 564.462 312.27L563.16 310.282C564 309.988 564.756 309.624 565.428 309.204C566.086 308.784 566.59 308.35 566.954 307.902C566.618 307.986 566.282 308.014 565.918 308.014C565.414 308.014 565.008 307.958 564.686 307.846C564.546 307.818 564.434 307.748 564.336 307.65C564.238 307.552 564.112 307.37 563.944 307.104C563.79 306.88 563.692 306.698 563.636 306.558C563.58 306.418 563.566 306.264 563.566 306.11C563.608 304.934 563.86 303.968 564.308 303.198C564.756 302.442 565.442 302.05 566.338 302.05C566.87 302.05 567.346 302.246 567.752 302.61ZM566.338 305.9C566.758 305.9 567.094 305.886 567.332 305.844C567.332 305.326 567.22 304.92 567.01 304.64C566.8 304.36 566.534 304.22 566.198 304.22C565.904 304.22 565.68 304.36 565.512 304.626C565.344 304.906 565.232 305.312 565.204 305.844C565.456 305.886 565.834 305.9 566.338 305.9ZM576.16 305.606C576.188 305.732 576.202 305.872 576.202 306.04V307.384C576.202 307.552 576.188 307.706 576.16 307.818C576.132 307.944 576.09 308 576.062 308H575.81C575.026 308 574.466 307.79 574.102 307.37C574.046 308.462 573.78 309.4 573.29 310.184C572.786 310.968 571.988 311.668 570.882 312.27L569.524 310.31C570.35 309.918 570.966 309.512 571.386 309.078C571.792 308.658 572.114 308.14 572.352 307.524L571.792 303.156L573.766 302.736L573.976 304.444C574.004 304.766 574.088 304.99 574.214 305.13C574.34 305.27 574.522 305.354 574.76 305.382C574.998 305.41 575.39 305.424 575.95 305.424H576.062C576.09 305.424 576.132 305.494 576.16 305.606ZM580.795 299.824L579.045 298.354L580.515 296.604L582.251 298.074L580.795 299.824ZM584.085 302.47C584.687 302.624 585.317 302.694 585.989 302.694L585.471 305.116C584.869 305.186 584.337 305.312 583.875 305.508C583.399 305.704 582.853 305.984 582.223 306.348C581.691 306.656 581.285 306.866 580.991 307.006C580.347 307.314 579.647 307.566 578.891 307.734C578.135 307.916 577.239 308 576.231 308H576.062C576.02 308 575.978 307.944 575.95 307.818C575.922 307.706 575.908 307.552 575.908 307.384V306.04C575.908 305.872 575.922 305.732 575.95 305.606C575.978 305.494 576.006 305.424 576.062 305.424H576.231C577.421 305.424 578.583 305.284 579.703 304.99C580.178 304.878 580.753 304.682 581.439 304.402C581.775 304.262 582.027 304.178 582.195 304.122L582.461 304.066C582.251 304.024 581.859 303.884 581.271 303.66C580.235 303.31 579.577 303.128 579.297 303.128C579.003 303.128 578.807 303.212 578.709 303.366C578.597 303.534 578.527 303.73 578.485 303.982L576.986 303.744C577.239 301.938 577.967 301.028 579.143 301.028C579.479 301.028 579.815 301.084 580.178 301.182C580.529 301.28 581.005 301.434 581.621 301.644L581.831 301.728C581.901 301.756 581.971 301.784 582.027 301.798C582.797 302.092 583.483 302.316 584.085 302.47ZM590.849 310.898C590.289 310.38 590.009 309.61 590.009 308.588C590.009 308.056 590.247 306.474 590.737 303.856L592.305 304.192C592.165 304.976 592.039 305.746 591.927 306.502C591.815 307.272 591.745 307.832 591.745 308.182C591.745 308.798 592.515 309.092 594.083 309.092C594.825 309.092 595.455 309.036 595.987 308.924C596.505 308.812 596.939 308.63 597.303 308.378C597.303 308.21 597.289 308.098 597.261 308.014C597.233 307.93 597.163 307.888 597.065 307.86C596.309 307.776 595.749 307.692 595.371 307.594C594.979 307.51 594.685 307.356 594.475 307.146C594.265 306.95 594.167 306.642 594.167 306.25C594.167 305.494 594.321 304.71 594.643 303.898C594.951 303.086 595.371 302.414 595.875 301.882C596.379 301.35 596.897 301.07 597.415 301.07C597.835 301.07 598.213 301.21 598.563 301.476C598.899 301.742 599.277 302.218 599.697 302.89L598.605 304.038C598.171 303.618 597.779 303.394 597.415 303.394C597.065 303.394 596.771 303.576 596.519 303.926C596.267 304.29 596.071 304.752 595.959 305.326C596.701 305.424 597.275 305.536 597.667 305.662C598.059 305.788 598.395 306.04 598.647 306.404C598.899 306.768 599.025 307.328 599.025 308.056C599.025 308.784 598.815 309.4 598.423 309.918C597.989 310.478 597.373 310.898 596.575 311.206C595.777 311.514 594.839 311.668 593.775 311.668C592.375 311.668 591.409 311.416 590.849 310.898ZM608.778 305.606C608.806 305.732 608.82 305.872 608.82 306.04V307.384C608.82 307.552 608.806 307.706 608.778 307.818C608.75 307.944 608.708 308 608.68 308H607.686C607.266 308 606.902 307.888 606.594 307.636C606.286 307.398 606.062 307.09 605.95 306.698L605.852 306.922C605.768 307.076 605.684 307.188 605.586 307.272C605.488 307.356 605.362 307.412 605.222 307.44C604.844 307.524 604.382 307.552 603.822 307.552C602.52 307.552 601.876 306.964 601.876 305.788C601.876 305.088 601.96 304.514 602.128 304.066C602.296 303.618 602.604 303.226 603.024 302.876C603.444 302.526 604.06 302.148 604.872 301.756L604.76 300.664L606.594 300.118L607 304.08C607.028 304.444 607.07 304.696 607.112 304.864C607.154 305.032 607.238 305.172 607.378 305.27C607.518 305.382 607.728 305.424 608.008 305.424H608.68C608.708 305.424 608.75 305.494 608.778 305.606ZM605.418 304.962L605.236 303.604C604.62 303.87 604.186 304.136 603.934 304.388C603.682 304.64 603.514 304.906 603.458 305.186C603.738 305.214 603.906 305.228 603.976 305.228C604.396 305.228 604.886 305.144 605.418 304.962ZM608.572 307.818C608.544 307.706 608.53 307.552 608.53 307.384V306.04C608.53 305.872 608.544 305.732 608.572 305.606C608.6 305.494 608.628 305.424 608.684 305.424C609.328 305.424 609.832 305.41 610.196 305.354C610.546 305.312 610.826 305.242 611.05 305.144L610.672 302.134L612.632 301.784C612.688 302.456 612.744 303.044 612.772 303.52C612.8 304.01 612.814 304.64 612.814 305.396C612.814 306.236 612.492 306.866 611.848 307.286C611.176 307.762 610.112 308 608.684 308C608.642 308 608.6 307.944 608.572 307.818ZM613.36 310.912L612.002 312.494L610.434 311.164L611.764 309.582L613.36 310.912ZM610.56 310.996L609.216 312.606L607.634 311.276L608.964 309.666L610.56 310.996ZM617.043 305.536C617.939 305.396 618.611 305.214 619.031 305.004L618.653 297.472L620.613 297.108L620.795 304.99C620.795 306.166 620.179 307.006 618.961 307.51C617.743 308.014 616.357 308.308 614.789 308.364L614.481 305.788C615.293 305.774 616.147 305.69 617.043 305.536ZM617.043 300.972C617.281 302.036 617.407 303.142 617.407 304.304V305.018L615.839 305.2C615.825 304.444 615.797 303.786 615.755 303.226C615.699 302.68 615.559 302.064 615.321 301.364C615.069 300.678 614.691 300.034 614.187 299.418L615.517 297.92C616.287 298.9 616.791 299.922 617.043 300.972Z" fill="#94182C"/>
</svg>
