<svg width="474" height="309" viewBox="0 0 474 309" fill="none" xmlns="http://www.w3.org/2000/svg">
<path d="M329.465 53.2152C329.498 53.3633 329.514 53.5278 329.514 53.7253V55.3052C329.514 55.5027 329.498 55.6837 329.465 55.8154C329.432 55.9635 329.383 56.0293 329.35 56.0293H328.807C327.951 56.0293 327.276 55.9141 326.75 55.6672C326.223 55.4204 325.811 54.9761 325.532 54.3507C325.252 53.7253 325.104 52.8366 325.087 51.7176L325.005 43.6537L327.309 43.2258V51.7011C327.309 52.5733 327.671 53.0012 328.412 53.0012H329.35C329.383 53.0012 329.432 53.0835 329.465 53.2152ZM339.504 52.5404C339.504 53.1658 339.356 53.9064 339.06 54.7621C338.994 54.9267 338.879 55.0913 338.747 55.2558C338.599 55.4204 338.402 55.585 338.155 55.7824C337.826 56.0458 337.529 56.1774 337.299 56.1774C337.184 56.1774 337.069 56.161 336.937 56.0951L334.518 55.1735C334.287 55.4533 333.728 55.6672 332.872 55.8154C332.016 55.9635 330.831 56.0293 329.35 56.0293C329.301 56.0293 329.251 55.9635 329.219 55.8154C329.186 55.6837 329.169 55.5027 329.169 55.3052V53.7253C329.169 53.5278 329.186 53.3633 329.219 53.2152C329.251 53.0835 329.284 53.0012 329.35 53.0012H330.124C330.716 53.0012 331.128 53.0177 331.374 53.0341C331.144 52.9025 330.979 52.705 330.848 52.4417C330.716 52.1948 330.65 51.9315 330.65 51.6517C330.65 51.0264 330.963 50.2858 331.621 49.4301L330.963 49.1009L332.016 46.7805L337.085 49.068C338.698 49.8086 339.504 50.9606 339.504 52.5404ZM334.699 50.8124L333.382 50.2035C333.053 50.5327 332.823 50.796 332.724 50.9606C332.609 51.1416 332.559 51.3062 332.559 51.4378C332.559 51.6353 332.707 51.8328 333.037 52.0138C333.349 52.2113 333.711 52.31 334.106 52.3265L334.699 50.8124ZM337.579 53.2152C337.612 53.067 337.645 52.9354 337.645 52.8202C337.645 52.5569 337.513 52.2936 337.266 52.0467C337.019 51.8163 336.657 51.6024 336.196 51.4214L335.571 52.9354L337.398 53.6266C337.464 53.5114 337.529 53.3797 337.579 53.2152ZM354.802 45.2335L353.025 43.7524L354.539 41.9751L356.316 43.4562L354.802 45.2335ZM356.201 44.7892L357.995 46.2703L356.497 48.0477L354.703 46.5666L356.201 44.7892ZM353.354 48.1793L351.56 46.6818L353.074 44.8715L354.851 46.3691L353.354 48.1793ZM362.224 53.2152C362.257 53.3633 362.274 53.5278 362.274 53.7253V55.3052C362.274 55.5027 362.257 55.6837 362.224 55.8154C362.191 55.9635 362.142 56.0293 362.109 56.0293H361.911C361.451 56.0293 361.006 55.947 360.578 55.7495C360.151 55.5685 359.854 55.3052 359.673 54.9596C359.394 55.3216 359.048 55.585 358.653 55.766C358.242 55.947 357.814 56.0293 357.353 56.0293C356.3 56.0293 355.608 55.6672 355.279 54.9267C355.065 55.3381 354.786 55.6179 354.424 55.7824C354.061 55.947 353.732 56.0293 353.42 56.0293C353.041 56.0293 352.728 55.9964 352.465 55.8976C352.202 55.7989 351.988 55.6508 351.823 55.4533C351.856 56.0128 351.873 56.523 351.873 56.9838C351.873 57.675 351.56 58.251 350.951 58.6953C350.326 59.1561 349.602 59.4853 348.762 59.6827C347.907 59.8802 347.15 59.979 346.458 59.979C344.879 59.979 343.759 59.6827 343.068 59.0574C342.377 58.432 342.031 57.5433 342.031 56.3584C342.031 55.7495 342.311 53.8899 342.887 50.796L344.73 51.191C344.566 52.1125 344.418 53.0177 344.286 53.9064C344.154 54.8115 344.072 55.4698 344.072 55.8812C344.072 56.2926 344.319 56.5724 344.829 56.7205C345.323 56.8851 345.882 56.9509 346.475 56.9509C347.874 56.9509 348.976 56.7699 349.799 56.4078L349.075 50.3187L351.346 49.7921L351.609 52.0961C351.642 52.4417 351.741 52.6721 351.906 52.8037C352.07 52.9354 352.366 53.0012 352.811 53.0012C353.173 53.0012 353.568 52.9354 353.979 52.7873L353.93 49.9238L355.987 49.825L356.069 52.9189C356.25 52.9848 356.497 53.0012 356.793 53.0012C357.32 53.0012 357.781 52.9189 358.159 52.7544L357.731 49.1338L359.986 48.706L360.282 52.0138C360.299 52.2771 360.348 52.4746 360.43 52.6063C360.496 52.7379 360.644 52.8366 360.875 52.9025C361.105 52.9683 361.434 53.0012 361.879 53.0012H362.109C362.142 53.0012 362.191 53.0835 362.224 53.2152ZM365.313 47.8996L363.255 46.1716L364.983 44.1145L367.024 45.8424L365.313 47.8996ZM369.361 53.2152C369.394 53.3633 369.41 53.5278 369.41 53.7253V55.3052C369.41 55.5027 369.394 55.6837 369.361 55.8154C369.328 55.9635 369.279 56.0293 369.246 56.0293C368.127 56.0293 367.32 55.947 366.827 55.766C366.316 55.6014 365.971 55.2887 365.806 54.8444C365.642 55.1571 365.411 55.4039 365.148 55.5685C364.868 55.7331 364.49 55.8647 364.012 55.9306C363.535 55.9964 362.893 56.0293 362.103 56.0293C362.054 56.0293 362.005 55.9635 361.972 55.8154C361.939 55.6837 361.922 55.5027 361.922 55.3052V53.7253C361.922 53.5278 361.939 53.3633 361.972 53.2152C362.005 53.0835 362.038 53.0012 362.103 53.0012C362.828 53.0012 363.387 52.9848 363.782 52.9518C364.177 52.9189 364.523 52.8202 364.786 52.6721L364.391 49.7098L366.695 49.463L366.859 52.8202C367.024 52.9025 367.287 52.9518 367.616 52.9683C367.946 53.0012 368.489 53.0012 369.246 53.0012C369.279 53.0012 369.328 53.0835 369.361 53.2152ZM375.032 49.9896C375.559 51.0428 375.822 52.2113 375.822 53.4785C375.822 54.1203 375.591 54.6305 375.147 54.9925C374.686 55.371 373.995 55.6343 373.041 55.7989C372.086 55.9635 370.819 56.0458 369.239 56.0293C369.19 56.0293 369.14 55.9635 369.107 55.8154C369.074 55.6837 369.058 55.5027 369.058 55.3052V53.7253C369.058 53.5278 369.074 53.3633 369.107 53.2152C369.14 53.0835 369.173 53.0012 369.239 53.0012C371.181 53.0341 372.711 52.9354 373.798 52.7379C373.666 51.8657 373.255 51.0099 372.53 50.1706C371.806 49.3478 370.802 48.4756 369.519 47.5704L369.585 45.3323C370.638 44.7398 371.642 44.2461 372.596 43.8182C373.551 43.3904 374.522 43.0283 375.509 42.6992L375.838 45.1513L374.11 45.8589L372.053 46.6982C372.251 46.8134 372.448 46.9451 372.646 47.0932C373.699 47.9819 374.505 48.9364 375.032 49.9896Z" fill="#E06B45"/>
<path d="M225.769 203.975L223.992 202.494L225.506 200.716L227.283 202.197L225.769 203.975ZM227.168 203.53L228.962 205.012L227.464 206.789L225.67 205.308L227.168 203.53ZM224.321 206.921L222.527 205.423L224.041 203.613L225.818 205.11L224.321 206.921ZM231.019 208.171C231.15 209.587 231.216 210.771 231.216 211.726C231.216 212.401 231.068 212.96 230.805 213.421C230.541 213.882 230.179 214.227 229.752 214.441C229.307 214.672 228.83 214.771 228.32 214.771C227.267 214.771 226.575 214.408 226.246 213.668C226.032 214.079 225.752 214.359 225.39 214.524C225.028 214.688 224.699 214.771 224.387 214.771C224.008 214.771 223.695 214.738 223.432 214.639C223.169 214.54 222.955 214.392 222.79 214.195C222.823 214.754 222.84 215.264 222.84 215.725C222.84 216.416 222.527 216.992 221.918 217.437C221.293 217.897 220.569 218.226 219.729 218.424C218.873 218.621 218.116 218.72 217.425 218.72C215.845 218.72 214.726 218.424 214.035 217.799C213.344 217.173 212.998 216.285 212.998 215.1C212.998 214.491 213.278 212.631 213.854 209.537L215.697 209.932C215.533 210.854 215.385 211.759 215.253 212.648C215.121 213.553 215.039 214.211 215.039 214.622C215.039 215.034 215.286 215.314 215.796 215.462C216.29 215.626 216.849 215.692 217.442 215.692C218.841 215.692 219.943 215.511 220.766 215.149L220.042 209.06L222.313 208.533L222.576 210.837C222.609 211.183 222.708 211.413 222.873 211.545C223.037 211.677 223.333 211.742 223.778 211.742C224.14 211.742 224.535 211.677 224.946 211.528L224.897 208.665L226.954 208.566L227.036 211.66C227.217 211.726 227.464 211.742 227.76 211.742C228.287 211.742 228.748 211.66 229.126 211.496L228.698 207.875L230.953 207.447C230.969 207.776 230.986 208.023 231.019 208.171ZM235.833 201.967V214.771L233.776 215.05L233.545 202.395L235.833 201.967ZM245.53 208.862C246.123 209.965 246.419 211.035 246.419 212.055C246.419 212.845 246.188 213.47 245.728 213.931C245.003 214.688 243.72 215.05 241.877 215.05C241.07 215.05 240.428 214.968 239.951 214.787C239.458 214.622 239.095 214.326 238.865 213.898C238.635 213.487 238.519 212.911 238.519 212.17C238.519 211.792 238.536 211.446 238.602 211.117L240.461 211.265L240.428 211.545C240.428 211.71 240.461 211.808 240.544 211.874C240.626 211.94 240.758 211.989 240.955 212.006C241.153 212.022 241.482 212.022 241.959 212.022C242.222 212.022 242.601 212.006 243.094 211.956C243.588 211.923 244 211.858 244.345 211.792C244.23 211.232 243.934 210.623 243.457 209.949C242.979 209.274 242.321 208.533 241.465 207.71L242.996 205.653C244.082 206.707 244.938 207.776 245.53 208.862ZM253.113 211.956C253.146 212.104 253.163 212.269 253.163 212.467V214.046C253.163 214.244 253.146 214.425 253.113 214.557C253.08 214.705 253.031 214.771 252.998 214.771H252.455C251.599 214.771 250.925 214.655 250.398 214.408C249.871 214.162 249.46 213.717 249.18 213.092C248.9 212.467 248.752 211.578 248.736 210.459L248.653 202.395L250.957 201.967V210.442C250.957 211.315 251.319 211.742 252.06 211.742H252.998C253.031 211.742 253.08 211.825 253.113 211.956ZM252.867 214.557C252.834 214.425 252.818 214.244 252.818 214.046V212.467C252.818 212.269 252.834 212.104 252.867 211.956C252.9 211.825 252.933 211.742 252.999 211.742C253.756 211.742 254.348 211.726 254.776 211.66C255.187 211.611 255.517 211.528 255.78 211.413L255.335 207.875L257.639 207.464C257.705 208.254 257.771 208.945 257.804 209.504C257.837 210.08 257.853 210.821 257.853 211.71C257.853 212.697 257.475 213.437 256.718 213.931C255.928 214.491 254.677 214.771 252.999 214.771C252.949 214.771 252.9 214.705 252.867 214.557ZM256.241 216.63L258.018 218.111L256.504 219.905L254.727 218.407L256.241 216.63ZM253.377 220.004L251.6 218.506L253.097 216.712L254.875 218.21L253.377 220.004ZM254.727 219.51L256.52 221.008L255.023 222.785L253.245 221.287L254.727 219.51Z" fill="#E06B45"/>
<path d="M113.843 263.456L115.407 261.596L117.283 263.16L115.719 265.019L113.843 263.456ZM112.428 265.151L110.552 263.588L112.115 261.711L113.991 263.275L112.428 265.151ZM119.817 267.34C119.85 267.932 119.883 268.607 119.883 269.331C119.883 269.907 119.768 270.384 119.57 270.779C119.356 271.174 119.027 271.487 118.583 271.717C118.056 271.997 117.365 272.195 116.509 272.326C115.637 272.458 114.551 272.507 113.234 272.507C111.967 272.507 110.914 272.425 110.075 272.227C109.219 272.03 108.561 271.684 108.083 271.158C107.59 270.631 107.359 269.907 107.359 268.953C107.359 268.673 107.392 268.294 107.474 267.833L107.902 265.283L109.729 265.645L109.351 267.932C109.301 268.097 109.285 268.245 109.285 268.344C109.285 268.673 109.383 268.903 109.614 269.068C109.844 269.232 110.223 269.331 110.782 269.397C111.325 269.463 112.148 269.479 113.234 269.479C114.321 269.479 115.209 269.463 115.933 269.413C116.641 269.364 117.266 269.265 117.826 269.134L117.398 265.546L119.636 265.118C119.718 266.007 119.784 266.747 119.817 267.34ZM124.537 259.638V272.441L122.48 272.721L122.249 260.066L124.537 259.638ZM136.151 269.627C136.184 269.775 136.2 269.94 136.2 270.137V271.717C136.2 271.915 136.184 272.096 136.151 272.227C136.118 272.376 136.069 272.441 136.036 272.441H135.641C134.423 272.441 133.683 271.981 133.452 271.043L133.353 271.355C133.222 271.717 133.057 271.931 132.86 272.014C132.498 272.195 132.02 272.343 131.428 272.474C130.836 272.606 130.325 272.655 129.865 272.655C128.828 272.655 128.071 272.458 127.593 272.046C127.116 271.635 126.886 270.894 126.886 269.841C126.886 269.446 126.902 269.068 126.968 268.722L128.795 268.887V269.249C128.795 269.38 128.828 269.463 128.91 269.512C128.992 269.578 129.124 269.611 129.321 269.611C129.502 269.627 129.832 269.627 130.309 269.627C131.033 269.627 131.724 269.529 132.382 269.315L131.115 264.394L133.337 263.242L134.374 268.196C134.456 268.656 134.538 268.953 134.604 269.084C134.67 269.232 134.785 269.331 134.966 269.364C135.147 269.397 135.509 269.413 136.036 269.413C136.069 269.413 136.118 269.496 136.151 269.627ZM146.183 268.953C146.183 269.578 146.035 270.318 145.739 271.174C145.673 271.339 145.558 271.503 145.426 271.668C145.278 271.832 145.081 271.997 144.834 272.195C144.505 272.458 144.208 272.59 143.978 272.59C143.863 272.59 143.748 272.573 143.616 272.507L141.197 271.586C140.966 271.865 140.407 272.079 139.551 272.227C138.695 272.376 137.51 272.441 136.029 272.441C135.98 272.441 135.931 272.376 135.898 272.227C135.865 272.096 135.848 271.915 135.848 271.717V270.137C135.848 269.94 135.865 269.775 135.898 269.627C135.931 269.496 135.964 269.413 136.029 269.413H136.803C137.395 269.413 137.807 269.43 138.054 269.446C137.823 269.315 137.659 269.117 137.527 268.854C137.395 268.607 137.329 268.344 137.329 268.064C137.329 267.438 137.642 266.698 138.3 265.842L137.642 265.513L138.695 263.193L143.764 265.48C145.377 266.221 146.183 267.373 146.183 268.953ZM141.378 267.225L140.061 266.616C139.732 266.945 139.502 267.208 139.403 267.373C139.288 267.554 139.238 267.718 139.238 267.85C139.238 268.047 139.387 268.245 139.716 268.426C140.028 268.623 140.39 268.722 140.785 268.739L141.378 267.225ZM144.258 269.627C144.291 269.479 144.324 269.348 144.324 269.232C144.324 268.969 144.192 268.706 143.945 268.459C143.698 268.228 143.336 268.014 142.875 267.833L142.25 269.348L144.077 270.039C144.143 269.923 144.208 269.792 144.258 269.627ZM152.874 269.627C152.907 269.775 152.924 269.94 152.924 270.137V271.717C152.924 271.915 152.907 272.096 152.874 272.227C152.841 272.376 152.792 272.441 152.759 272.441H152.216C151.36 272.441 150.685 272.326 150.159 272.079C149.632 271.832 149.221 271.388 148.941 270.763C148.661 270.137 148.513 269.249 148.497 268.13L148.414 260.066L150.718 259.638V268.113C150.718 268.985 151.08 269.413 151.821 269.413H152.759C152.792 269.413 152.841 269.496 152.874 269.627ZM160.494 261.827L158.717 260.329L160.231 258.552L162.008 260.049L160.494 261.827ZM161.893 261.366L163.687 262.863L162.189 264.641L160.396 263.143L161.893 261.366ZM159.046 264.756L157.252 263.258L158.766 261.448L160.544 262.946L159.046 264.756ZM167.126 269.627C167.159 269.775 167.176 269.94 167.176 270.137V271.717C167.176 271.915 167.159 272.096 167.126 272.227C167.094 272.376 167.044 272.441 167.011 272.441H166.814C166.369 272.441 165.942 272.343 165.53 272.145C165.119 271.948 164.806 271.668 164.609 271.306C164.345 271.684 164 271.964 163.588 272.162C163.16 272.359 162.716 272.441 162.239 272.441C161.646 272.441 161.136 272.359 160.741 272.195C160.33 272.03 160.033 271.734 159.852 271.306C159.622 271.734 159.276 272.03 158.849 272.195C158.421 272.359 157.976 272.441 157.532 272.441C156.643 272.441 156.002 272.096 155.639 271.372C155.343 271.783 154.965 272.063 154.487 272.211C154.01 272.376 153.434 272.441 152.76 272.441C152.71 272.441 152.661 272.376 152.628 272.227C152.595 272.096 152.578 271.915 152.578 271.717V270.137C152.578 269.94 152.595 269.775 152.628 269.627C152.661 269.496 152.694 269.413 152.76 269.413C153.5 269.413 154.175 269.315 154.767 269.117V266.912H156.857V268.59C156.857 268.854 156.874 269.035 156.94 269.15C157.005 269.265 157.088 269.331 157.203 269.364C157.302 269.397 157.483 269.413 157.713 269.413C158.075 269.413 158.47 269.348 158.898 269.199L158.832 266.336L160.906 266.237L160.972 269.331C161.103 269.397 161.35 269.413 161.696 269.413C162.222 269.413 162.683 269.331 163.078 269.166L162.65 265.546L164.888 265.118L165.184 268.426C165.201 268.689 165.25 268.87 165.333 269.002C165.398 269.134 165.547 269.249 165.777 269.315C166.007 269.38 166.336 269.413 166.797 269.413H167.011C167.044 269.413 167.094 269.496 167.126 269.627ZM173.811 266.204C174.272 266.583 174.634 267.093 174.898 267.735C175.144 268.377 175.276 269.084 175.276 269.858C175.276 270.467 175.194 271.092 175.029 271.734C174.98 271.915 174.898 272.079 174.782 272.211C174.667 272.343 174.453 272.54 174.157 272.771C173.762 273.083 173.449 273.231 173.219 273.231C173.137 273.231 173.005 273.198 172.84 273.133L169.697 271.783C169.45 272.014 169.138 272.195 168.759 272.293C168.364 272.392 167.854 272.441 167.212 272.441H167.015C166.965 272.441 166.916 272.376 166.883 272.227C166.85 272.096 166.834 271.915 166.834 271.717V270.137C166.834 269.94 166.85 269.775 166.883 269.627C166.916 269.496 166.949 269.413 167.015 269.413H167.591C167.969 269.413 168.249 269.397 168.43 269.348C168.611 269.298 168.743 269.216 168.841 269.084C168.94 268.969 169.055 268.772 169.187 268.475C169.598 267.488 170.043 266.78 170.52 266.319C170.981 265.859 171.54 265.628 172.182 265.628C172.791 265.628 173.334 265.826 173.811 266.204ZM173.4 269.94C173.4 269.446 173.268 269.018 173.038 268.673C172.808 268.327 172.462 268.146 172.001 268.146C171.54 268.146 171.129 268.64 170.767 269.594L173.301 270.713C173.367 270.467 173.4 270.203 173.4 269.94Z" fill="#E06B45"/>
<path d="M228.525 30.6268L221.618 35.2314L214.711 30.6268V23.7198L221.618 19.1152L228.525 23.7198V30.6268Z" stroke="#F5EFD9" stroke-width="4.8732" stroke-miterlimit="10" stroke-linejoin="round"/>
<path d="M235.422 3V7.60461" stroke="#F5EFD9" stroke-width="4.8732" stroke-miterlimit="10" stroke-linecap="round" stroke-linejoin="round"/>
<path d="M253.845 108.906H217.008L210.102 74.3719L221.613 62.8604H249.241L260.752 74.3719L253.845 108.906Z" stroke="#F5EFD9" stroke-width="4.8732" stroke-miterlimit="10" stroke-linecap="round" stroke-linejoin="round"/>
<path d="M235.422 49.0459V62.8597" stroke="#F5EFD9" stroke-width="4.8732" stroke-miterlimit="10" stroke-linecap="round" stroke-linejoin="round"/>
<path d="M215.156 99.6973H255.677" stroke="#F5EFD9" stroke-width="4.8732" stroke-miterlimit="10" stroke-linecap="round" stroke-linejoin="round"/>
<path d="M191.68 74.3711L193.982 88.1849L211.682 82.2864" stroke="#F5EFD9" stroke-width="4.8732" stroke-miterlimit="10" stroke-linecap="round" stroke-linejoin="round"/>
<path d="M182.469 55.9531V65.1623L191.678 74.3716L200.887 65.1623V55.9531" stroke="#F5EFD9" stroke-width="4.8732" stroke-miterlimit="10" stroke-linecap="round" stroke-linejoin="round"/>
<path d="M253.839 49.046L274.56 28.3252L253.839 7.60449H217.002L196.281 28.3252L217.002 49.046H253.839Z" stroke="#F5EFD9" stroke-width="4.8732" stroke-miterlimit="10" stroke-linecap="round" stroke-linejoin="round"/>
<path d="M242.336 30.6268L249.243 35.2314L256.15 30.6268V23.7198L249.243 19.1152L242.336 23.7198V30.6268Z" stroke="#F5EFD9" stroke-width="4.8732" stroke-miterlimit="10" stroke-linejoin="round"/>
<path d="M279.159 74.3711L276.856 88.1849L259.156 82.2864" stroke="#F5EFD9" stroke-width="4.8732" stroke-miterlimit="10" stroke-linecap="round" stroke-linejoin="round"/>
<path d="M288.372 55.9531V65.1623L279.162 74.3716L269.953 65.1623V55.9531" stroke="#F5EFD9" stroke-width="4.8732" stroke-miterlimit="10" stroke-linecap="round" stroke-linejoin="round"/>
<g clip-path="url(#clip0_454_2573)">
<path d="M272.122 255.488C271.435 253.63 270.609 251.833 269.659 250.118C267.861 246.87 265.622 243.9 263.016 241.299C262.952 241.236 262.9 241.182 262.836 241.118H262.832C262.758 241.045 262.688 240.974 262.609 240.902L262.604 240.898C262.381 240.676 262.15 240.455 261.918 240.248C254.892 233.731 245.469 229.749 235.139 229.749C229.14 229.749 223.447 231.092 218.355 233.492C218.006 233.657 217.657 233.827 217.315 234.002C213.58 235.897 210.188 238.369 207.261 241.299C202.98 245.575 199.681 250.841 197.723 256.718C197.625 257.014 197.528 257.314 197.437 257.614L197.425 257.647C197.363 257.85 197.303 258.06 197.244 258.268C197.099 258.765 196.966 259.263 196.845 259.77C196.797 259.945 196.758 260.121 196.719 260.299C196.059 263.152 195.711 266.125 195.711 269.177C195.711 280.055 200.128 289.927 207.261 297.055C211.274 301.067 216.155 304.221 221.596 306.216C221.765 306.279 221.938 306.341 222.113 306.398C223.153 306.765 224.216 307.086 225.295 307.364C225.483 307.412 225.675 307.459 225.868 307.501C228.842 308.223 231.95 308.604 235.139 308.604C246.017 308.604 255.888 304.188 263.016 297.055C264.324 295.75 265.536 294.356 266.644 292.877C271.615 286.281 274.567 278.064 274.567 269.177C274.567 264.367 273.702 259.754 272.122 255.488ZM210.31 294.007C203.953 287.643 200.026 278.88 200.026 269.177C200.026 267.384 200.16 265.626 200.419 263.909C201.615 264.745 203.797 265.914 203.824 265.921C203.906 265.946 204 265.96 204.114 265.96C204.291 265.96 204.503 265.928 204.722 265.893C204.954 265.858 205.19 265.824 205.377 265.824C205.436 265.824 205.491 265.827 205.535 265.835C205.617 265.872 205.75 266.18 205.82 266.345C205.966 266.677 206.115 267.022 206.422 267.172C206.706 267.317 207.323 267.391 208.225 267.488C208.524 267.521 208.83 267.557 208.987 267.583C209.045 267.691 209.117 267.953 209.164 268.137C209.301 268.653 209.438 269.18 209.831 269.414C210.157 269.614 211.219 270.624 211.812 271.22C211.89 271.295 211.989 271.335 212.091 271.335C212.156 271.335 212.228 271.319 212.286 271.28C212.334 271.253 213.369 270.646 213.73 270.42C213.805 270.445 213.938 270.529 214.059 270.633C214.078 271.201 214.151 273.081 214.154 273.462C214.088 273.697 213.298 274.517 212.428 275.253C212.342 275.325 212.29 275.427 212.286 275.536C212.283 275.643 212.188 278.126 212.286 279.123C212.389 280.134 214.048 282.11 214.494 282.623C214.683 283.135 215.197 284.498 215.394 284.79C215.59 285.085 217.579 286.577 218.858 287.522V293.404C218.858 294.063 219.116 294.493 219.321 294.843C219.447 295.05 219.545 295.214 219.545 295.363V299.483C219.545 300.018 219.7 300.457 219.917 300.828C216.335 299.102 213.094 296.787 210.31 294.007ZM265.544 254.662C264.856 254.173 263.778 253.976 263.778 253.976L262.993 253.876C262.601 253.092 262.797 251.327 261.424 251.718C260.051 252.112 255.539 252.895 254.558 253.092C253.578 253.288 252.401 254.856 251.616 256.033C250.831 257.21 248.674 260.938 248.281 261.526C247.89 262.114 247.693 265.842 247.693 266.821C247.693 267.804 252.009 271.924 253.381 272.119C254.755 272.315 258.481 271.334 259.463 271.139C260.444 270.941 261.031 272.315 261.816 272.315C262.601 272.315 263.582 272.707 262.797 273.886C262.012 275.06 262.012 275.649 262.797 276.434C263.582 277.22 265.151 280.162 264.17 282.516C263.189 284.869 263.975 286.045 264.563 287.027C264.675 287.215 264.794 287.476 264.92 287.784C263.506 290.038 261.843 292.126 259.968 294.007C253.604 300.362 244.841 304.29 235.139 304.29C231.898 304.29 228.764 303.848 225.786 303.032C225.798 302.983 225.81 302.928 225.818 302.872C225.868 302.504 225.716 302.23 225.559 302.037C225.779 301.932 225.955 301.763 226.08 301.538C226.269 301.193 226.301 300.77 226.269 300.437L226.46 300.44C226.939 300.44 227.489 300.396 227.912 300.094C228.606 299.601 228.619 298.557 228.488 297.832C228.539 297.854 228.591 297.878 228.638 297.893C228.692 297.915 228.751 297.92 228.811 297.92C229.439 297.92 230.133 296.792 230.32 296.045C230.392 295.771 230.654 295.165 230.91 294.574C231.51 293.182 231.87 292.307 231.801 291.872C231.811 291.598 232.887 290.741 233.843 290.549C234.977 290.323 235.381 289.906 235.809 288.511C236.217 287.188 236.418 284.983 236.312 284.04C236.281 283.731 236.95 282.79 237.399 282.166C238.128 281.137 238.572 280.479 238.572 279.966C238.572 278.78 237.575 277.981 236.826 277.481C236.081 276.984 234.774 276.869 233.907 276.796C233.664 276.776 233.452 276.757 233.353 276.737C233.264 276.718 233.106 276.547 232.981 276.415C232.711 276.124 232.341 275.728 231.752 275.654C231.686 275.645 231.616 275.643 231.549 275.643C231.175 275.643 230.843 275.76 230.518 275.874C230.227 275.979 229.952 276.079 229.679 276.079C229.595 276.079 229.517 276.069 229.439 276.05C229.294 276.019 229.238 275.979 229.227 275.979C229.23 275.913 229.356 275.692 229.665 275.486C229.964 275.287 230.247 274.847 229.921 273.849C229.689 273.131 229.261 272.451 229.09 272.197C228.474 271.272 227.351 271.272 226.983 271.272C226.645 271.272 226.315 271.305 225.977 271.334L225.904 271.336C225.562 271.336 225.362 271.036 224.974 270.4C224.753 270.039 224.506 269.636 224.162 269.22C223.416 268.326 222.373 268.207 221.447 268.207C221.325 268.207 221.207 268.207 221.093 268.212C220.995 268.212 220.901 268.214 220.811 268.214C220.686 268.214 220.572 268.212 220.473 268.199C220.132 268.156 219.626 267.897 219.179 267.667C218.689 267.415 218.226 267.175 217.833 267.12L217.735 267.113C217.174 267.113 216.539 267.765 215.633 268.752C215.408 268.997 215.118 269.313 214.965 269.446C214.934 269.411 214.895 269.366 214.864 269.327C214.699 269.116 214.475 268.84 214.078 268.706C213.992 268.678 213.906 268.662 213.82 268.662C213.51 268.662 213.279 268.84 213.078 268.994C212.899 269.129 212.745 269.242 212.56 269.242C212.451 269.242 212.325 269.205 212.18 269.126C211.639 268.831 211.818 267.697 211.96 266.788C212.027 266.37 212.09 265.976 212.09 265.645C212.09 264.892 211.645 264.81 211.458 264.81C211.278 264.81 211.101 264.873 210.897 264.953C210.666 265.036 210.399 265.135 210.12 265.135C209.995 265.135 209.877 265.114 209.764 265.076C209.54 265.002 209.441 264.924 209.426 264.877C209.371 264.727 209.661 264.284 209.872 263.958C209.97 263.809 210.073 263.653 210.171 263.493C210.58 262.812 210.792 262.309 210.575 261.929C210.441 261.699 210.195 261.58 209.841 261.58C209.705 261.58 209.552 261.595 209.371 261.631C209.237 261.655 209.112 261.667 208.986 261.667C208.818 261.667 208.688 261.644 208.574 261.625C208.468 261.608 208.386 261.592 208.315 261.592C207.774 261.592 207.707 262.129 207.679 262.362C207.578 263.178 207.088 263.594 206.229 263.594C206.165 263.594 206.104 263.59 206.037 263.586C205.122 263.528 204.733 262.879 204.733 261.428C204.733 260.797 204.832 260.631 205.126 260.136C205.271 259.898 205.452 259.596 205.671 259.153C206.157 258.184 206.542 258.003 207.032 257.777C207.177 257.708 207.327 257.639 207.48 257.551C207.598 257.48 207.696 257.449 207.766 257.449C207.818 257.449 207.872 257.47 207.966 257.502C208.096 257.551 208.272 257.613 208.504 257.613C208.571 257.613 208.641 257.611 208.719 257.6C209.441 257.476 209.594 257.053 209.728 256.68C209.744 256.641 209.759 256.6 209.78 256.547C209.818 256.561 209.857 256.57 209.897 256.578C210.215 256.669 210.745 256.817 211.6 256.817C211.882 256.817 212.086 256.821 212.235 256.83C212.129 257.367 212.133 258.404 213.195 259.615C213.545 260.011 213.852 260.196 214.165 260.196C215.17 260.196 215.255 258.502 215.255 256.617C215.255 255.478 215.687 255.166 216.966 254.253L217.049 254.192C217.743 253.699 218.156 253.114 218.555 252.548C218.987 251.938 219.394 251.361 220.16 250.884C220.879 250.431 222 249.933 223.083 249.446C224.334 248.89 225.514 248.364 226.069 247.921C226.704 247.41 226.578 246.611 226.476 245.962C226.342 245.128 226.382 244.956 226.715 244.856C227.265 244.701 227.853 244.61 228.477 244.512C229.371 244.371 230.298 244.226 231.248 243.868C232.234 243.5 232.463 242.973 232.482 242.593C232.518 241.95 231.964 241.435 231.479 241.192C231.267 241.086 231.242 240.565 231.227 240.103C231.204 239.512 231.181 238.905 230.799 238.528C230.584 238.308 230.308 238.198 229.991 238.198C229.575 238.198 229.128 238.382 228.61 238.6C228.268 238.741 227.884 238.897 227.476 239.015C227.432 239.027 227.394 239.036 227.363 239.036C227.209 239.036 227.1 238.717 226.963 238.269C226.754 237.608 226.445 236.618 225.358 236.618C225.236 236.618 225.102 236.629 224.962 236.657C223.577 236.934 223.251 238.42 223.016 239.505C222.933 239.895 222.804 240.486 222.69 240.565C221.874 240.565 221.611 241.085 221.356 241.591C221.195 241.914 221.011 242.278 220.654 242.635C220.434 242.855 220.282 242.915 220.238 242.92C220.172 242.858 220.07 242.38 220.497 241.527C220.678 241.169 220.882 240.647 220.631 240.22C220.336 239.721 219.639 239.688 218.834 239.659C218.512 239.643 218.178 239.631 217.845 239.588C217.209 239.509 217.041 239.347 217.033 239.313C217.033 239.297 217.041 239.187 217.214 238.975C222.459 235.856 228.586 234.063 235.139 234.063C243.084 234.063 250.399 236.697 256.284 241.143C256.192 241.511 255.895 242.046 255.637 242.498C255.245 243.186 255.441 243.578 255.441 243.578C255.441 243.578 257.305 243.283 257.696 243.088C257.834 243.02 257.959 242.817 258.051 242.571C258.251 242.74 258.446 242.91 258.638 243.088C258.171 243.511 257.67 243.955 257.501 244.069C257.207 244.264 256.226 244.56 255.834 244.754C255.441 244.951 257.01 245.638 257.01 245.931C257.01 246.226 257.01 247.598 256.421 247.695C255.834 247.794 253.088 247.794 253.088 247.794C253.088 247.794 252.204 250.932 252.401 251.226C252.597 251.522 253.872 252.209 254.657 252.111C255.441 252.01 257.207 251.131 257.207 251.131L257.991 249.366L259.56 247.695C259.56 247.695 260.737 248.185 261.13 247.794C261.522 247.403 262.307 247.012 262.307 247.012C262.307 247.012 263.092 248.481 263.582 248.678L263.676 248.721L263.679 248.727C264.245 249.507 264.775 250.31 265.268 251.138L265.273 251.144V251.148L265.28 251.165C265.307 251.223 265.335 251.274 265.371 251.307C266.174 252.669 266.893 254.084 267.512 255.55C266.88 255.509 266.138 255.085 265.544 254.662Z" fill="#F5EFD9"/>
</g>
<path d="M407.572 54.3477H471.391V270.76H315.742M89.8703 270.76H3V54.3477H124.246M235.196 188.859V144.709" stroke="#E06B45" stroke-width="4.79994" stroke-dasharray="6.86 6.86"/>
<path d="M145.156 54.3479L131.287 62.3554L131.287 46.3403L145.156 54.3479Z" fill="#E06B45"/>
<path d="M235.121 126.428L243.129 140.297H227.114L235.121 126.428Z" fill="#E06B45"/>
<path d="M294.93 270.76L308.799 262.752L308.799 278.767L294.93 270.76Z" fill="#E06B45"/>
<defs>
<clipPath id="clip0_454_2573">
<rect width="78.8562" height="78.8562" fill="white" transform="translate(195.688 229.748)"/>
</clipPath>
</defs>
</svg>
