<svg width="573" height="246" viewBox="0 0 573 246" fill="none" xmlns="http://www.w3.org/2000/svg">
<path d="M24.7064 133.913C24.7264 134.003 24.7364 134.103 24.7364 134.223V135.185C24.7364 135.305 24.7264 135.415 24.7064 135.495C24.6864 135.585 24.6563 135.625 24.6363 135.625H23.9255C23.6252 135.625 23.3649 135.545 23.1447 135.365C22.9244 135.195 22.7642 134.974 22.6841 134.694L22.6141 134.854C22.554 134.964 22.4939 135.044 22.4239 135.104C22.3538 135.164 22.2637 135.205 22.1636 135.225C21.8933 135.285 21.5629 135.305 21.1624 135.305C20.2314 135.305 19.7709 134.884 19.7709 134.043C19.7709 133.543 19.831 133.132 19.9511 132.812C20.0712 132.492 20.2915 132.211 20.5918 131.961C20.8921 131.711 21.3326 131.44 21.9133 131.16L21.8332 130.379L23.1447 129.989L23.435 132.822C23.455 133.082 23.485 133.262 23.5151 133.383C23.5451 133.503 23.6052 133.603 23.7053 133.673C23.8054 133.753 23.9556 133.783 24.1558 133.783H24.6363C24.6563 133.783 24.6864 133.833 24.7064 133.913ZM22.3037 133.453L22.1736 132.482C21.7331 132.672 21.4227 132.862 21.2425 133.042C21.0623 133.222 20.9422 133.413 20.9022 133.613C21.1024 133.633 21.2225 133.643 21.2726 133.643C21.5729 133.643 21.9233 133.583 22.3037 133.453ZM28.7733 131.831C29.0536 132.061 29.2739 132.371 29.4341 132.762C29.5842 133.152 29.6643 133.583 29.6643 134.053C29.6643 134.424 29.6143 134.804 29.5142 135.195C29.4841 135.305 29.4341 135.405 29.364 135.485C29.2939 135.565 29.1638 135.685 28.9836 135.825C28.7433 136.015 28.5531 136.106 28.4129 136.106C28.3629 136.106 28.2828 136.086 28.1827 136.045L26.2705 135.225C26.1204 135.365 25.9302 135.475 25.6999 135.535C25.4596 135.595 25.1493 135.625 24.7589 135.625H24.6387C24.6087 135.625 24.5787 135.585 24.5586 135.495C24.5386 135.415 24.5286 135.305 24.5286 135.185V134.223C24.5286 134.103 24.5386 134.003 24.5586 133.913C24.5787 133.833 24.5987 133.783 24.6387 133.783H24.9891C25.2194 133.783 25.3896 133.773 25.4997 133.743C25.6098 133.713 25.6899 133.663 25.75 133.583C25.81 133.513 25.8801 133.393 25.9602 133.212C26.2105 132.612 26.4808 132.181 26.7711 131.901C27.0514 131.621 27.3918 131.48 27.7822 131.48C28.1526 131.48 28.483 131.601 28.7733 131.831ZM28.523 134.103C28.523 133.803 28.443 133.543 28.3028 133.332C28.1626 133.122 27.9524 133.012 27.6721 133.012C27.3918 133.012 27.1415 133.312 26.9213 133.893L28.463 134.574C28.503 134.424 28.523 134.263 28.523 134.103ZM33.742 133.913C33.762 134.003 33.772 134.103 33.772 134.223V135.185C33.772 135.305 33.762 135.415 33.742 135.495C33.722 135.585 33.6919 135.625 33.6719 135.625H33.3415C32.821 135.625 32.4105 135.555 32.0901 135.405C31.7698 135.255 31.5195 134.984 31.3493 134.604C31.1791 134.223 31.089 133.683 31.079 133.002L31.029 128.097L32.4305 127.836V132.992C32.4305 133.523 32.6508 133.783 33.1013 133.783H33.6719C33.6919 133.783 33.722 133.833 33.742 133.913ZM35.4942 129.959L34.2328 128.908L35.284 127.656L36.5354 128.707L35.4942 129.959ZM36.5955 132.421C36.6155 132.772 36.6255 133.222 36.6255 133.763C36.6255 134.364 36.3952 134.814 35.9347 135.114C35.4542 135.455 34.6933 135.625 33.6722 135.625C33.6422 135.625 33.6121 135.585 33.5921 135.495C33.5721 135.415 33.5621 135.305 33.5621 135.185V134.223C33.5621 134.103 33.5721 134.003 33.5921 133.913C33.6121 133.833 33.6322 133.783 33.6722 133.783C34.1327 133.783 34.4931 133.773 34.7534 133.733C35.0037 133.703 35.2039 133.653 35.3641 133.583L35.0938 131.43L36.4953 131.18C36.5354 131.661 36.5754 132.081 36.5955 132.421Z" fill="#F5EFD9"/>
<path d="M541.378 133.913C541.398 134.003 541.408 134.103 541.408 134.223V135.184C541.408 135.304 541.398 135.414 541.378 135.494C541.358 135.584 541.328 135.625 541.308 135.625H540.597C540.297 135.625 540.037 135.544 539.817 135.364C539.596 135.194 539.436 134.974 539.356 134.693L539.286 134.854C539.226 134.964 539.166 135.044 539.096 135.104C539.026 135.164 538.936 135.204 538.835 135.224C538.565 135.284 538.235 135.304 537.834 135.304C536.903 135.304 536.443 134.884 536.443 134.043C536.443 133.542 536.503 133.132 536.623 132.811C536.743 132.491 536.963 132.211 537.264 131.96C537.564 131.71 538.005 131.44 538.585 131.16L538.505 130.379L539.817 129.988L540.107 132.821C540.127 133.082 540.157 133.262 540.187 133.382C540.217 133.502 540.277 133.602 540.377 133.672C540.477 133.752 540.627 133.782 540.828 133.782H541.308C541.328 133.782 541.358 133.833 541.378 133.913ZM538.976 133.452L538.845 132.481C538.405 132.671 538.095 132.861 537.914 133.042C537.734 133.222 537.614 133.412 537.574 133.612C537.774 133.632 537.894 133.642 537.944 133.642C538.245 133.642 538.595 133.582 538.976 133.452ZM545.445 131.83C545.726 132.061 545.946 132.371 546.106 132.761C546.256 133.152 546.336 133.582 546.336 134.053C546.336 134.423 546.286 134.804 546.186 135.194C546.156 135.304 546.106 135.404 546.036 135.484C545.966 135.564 545.836 135.685 545.655 135.825C545.415 136.015 545.225 136.105 545.085 136.105C545.035 136.105 544.955 136.085 544.855 136.045L542.942 135.224C542.792 135.364 542.602 135.474 542.372 135.534C542.132 135.594 541.821 135.625 541.431 135.625H541.311C541.281 135.625 541.251 135.584 541.231 135.494C541.21 135.414 541.2 135.304 541.2 135.184V134.223C541.2 134.103 541.21 134.003 541.231 133.913C541.251 133.833 541.271 133.782 541.311 133.782H541.661C541.891 133.782 542.061 133.772 542.172 133.742C542.282 133.712 542.362 133.662 542.422 133.582C542.482 133.512 542.552 133.392 542.632 133.212C542.882 132.611 543.153 132.181 543.443 131.9C543.723 131.62 544.064 131.48 544.454 131.48C544.825 131.48 545.155 131.6 545.445 131.83ZM545.195 134.103C545.195 133.802 545.115 133.542 544.975 133.332C544.835 133.122 544.624 133.012 544.344 133.012C544.064 133.012 543.813 133.312 543.593 133.893L545.135 134.573C545.175 134.423 545.195 134.263 545.195 134.103ZM550.414 133.913C550.434 134.003 550.444 134.103 550.444 134.223V135.184C550.444 135.304 550.434 135.414 550.414 135.494C550.394 135.584 550.364 135.625 550.344 135.625H550.013C549.493 135.625 549.082 135.554 548.762 135.404C548.442 135.254 548.191 134.984 548.021 134.603C547.851 134.223 547.761 133.682 547.751 133.002L547.701 128.096L549.102 127.836V132.992C549.102 133.522 549.323 133.782 549.773 133.782H550.344C550.364 133.782 550.394 133.833 550.414 133.913ZM552.166 129.958L550.905 128.907L551.956 127.656L553.207 128.707L552.166 129.958ZM553.267 132.421C553.287 132.771 553.297 133.222 553.297 133.762C553.297 134.363 553.067 134.814 552.607 135.114C552.126 135.454 551.365 135.625 550.344 135.625C550.314 135.625 550.284 135.584 550.264 135.494C550.244 135.414 550.234 135.304 550.234 135.184V134.223C550.234 134.103 550.244 134.003 550.264 133.913C550.284 133.833 550.304 133.782 550.344 133.782C550.805 133.782 551.165 133.772 551.425 133.732C551.676 133.702 551.876 133.652 552.036 133.582L551.766 131.43L553.167 131.18C553.207 131.66 553.247 132.081 553.267 132.421Z" fill="#F5EFD9"/>
<path d="M324.957 11.2881C324.977 11.3782 324.987 11.4783 324.987 11.5984V12.5595C324.987 12.6796 324.977 12.7898 324.957 12.8699C324.937 12.96 324.907 13 324.887 13H324.647C323.906 13 323.455 12.7197 323.315 12.1491L323.255 12.3393C323.175 12.5595 323.075 12.6897 322.955 12.7397C322.734 12.8498 322.444 12.9399 322.084 13.02C321.723 13.1001 321.413 13.1301 321.133 13.1301C320.502 13.1301 320.041 13.01 319.751 12.7597C319.461 12.5095 319.321 12.059 319.321 11.4182C319.321 11.178 319.331 10.9477 319.371 10.7375L320.482 10.8376V11.0578C320.482 11.1379 320.502 11.188 320.552 11.218C320.602 11.2581 320.682 11.2781 320.802 11.2781C320.912 11.2881 321.113 11.2881 321.403 11.2881C321.843 11.2881 322.264 11.228 322.664 11.0979L321.893 8.10456L323.245 7.40378L323.876 10.4171C323.926 10.6974 323.976 10.8776 324.016 10.9577C324.056 11.0478 324.126 11.1079 324.236 11.1279C324.346 11.1479 324.566 11.158 324.887 11.158C324.907 11.158 324.937 11.208 324.957 11.2881ZM324.803 12.8699C324.783 12.7898 324.773 12.6796 324.773 12.5595V11.5984C324.773 11.4783 324.783 11.3782 324.803 11.2881C324.823 11.208 324.843 11.158 324.883 11.158C325.343 11.158 325.704 11.1479 325.964 11.1079C326.214 11.0779 326.415 11.0278 326.575 10.9577L326.304 8.80534L327.706 8.55506C327.746 9.03559 327.786 9.45606 327.806 9.79644C327.826 10.1468 327.836 10.5973 327.836 11.1379C327.836 11.7386 327.606 12.1891 327.145 12.4894C326.665 12.8298 325.904 13 324.883 13C324.853 13 324.823 12.96 324.803 12.8699ZM328.227 15.0823L327.255 16.2136L326.134 15.2625L327.085 14.1313L328.227 15.0823ZM326.224 15.1424L325.263 16.2937L324.132 15.3426L325.083 14.1913L326.224 15.1424ZM334.792 11.2881C334.812 11.3782 334.822 11.4783 334.822 11.5984V12.5595C334.822 12.6796 334.812 12.7898 334.792 12.8699C334.772 12.96 334.742 13 334.722 13H334.482C333.741 13 333.29 12.7197 333.15 12.1491L333.09 12.3393C333.01 12.5595 332.91 12.6897 332.79 12.7397C332.57 12.8498 332.279 12.9399 331.919 13.02C331.558 13.1001 331.248 13.1301 330.968 13.1301C330.337 13.1301 329.877 13.01 329.586 12.7597C329.296 12.5095 329.156 12.059 329.156 11.4182C329.156 11.178 329.166 10.9477 329.206 10.7375L330.317 10.8376V11.0578C330.317 11.1379 330.337 11.188 330.387 11.218C330.437 11.2581 330.517 11.2781 330.637 11.2781C330.748 11.2881 330.948 11.2881 331.238 11.2881C331.679 11.2881 332.099 11.228 332.499 11.0979L331.729 8.10456L333.08 7.40378L333.711 10.4171C333.761 10.6974 333.811 10.8776 333.851 10.9577C333.891 11.0478 333.961 11.1079 334.071 11.1279C334.181 11.1479 334.402 11.158 334.722 11.158C334.742 11.158 334.772 11.208 334.792 11.2881ZM340.454 9.04561C340.885 9.15573 341.335 9.20578 341.816 9.20578L341.445 10.9377C341.015 10.9878 340.635 11.0779 340.304 11.218C339.964 11.3582 339.573 11.5584 339.123 11.8187C338.742 12.0389 338.452 12.1891 338.242 12.2892C337.781 12.5095 337.281 12.6897 336.74 12.8098C336.2 12.9399 335.559 13 334.838 13H334.718C334.688 13 334.658 12.96 334.638 12.8699C334.618 12.7898 334.608 12.6796 334.608 12.5595V11.5984C334.608 11.4783 334.618 11.3782 334.638 11.2881C334.658 11.208 334.678 11.158 334.718 11.158H334.838C335.689 11.158 336.52 11.0578 337.321 10.8476C337.661 10.7675 338.072 10.6274 338.562 10.4271C338.802 10.327 338.983 10.267 339.103 10.2269L339.293 10.1869C339.143 10.1568 338.863 10.0567 338.442 9.89655C337.701 9.64627 337.231 9.51613 337.031 9.51613C336.82 9.51613 336.68 9.5762 336.61 9.68632C336.53 9.80645 336.48 9.94661 336.45 10.1268L335.379 9.95662C335.559 8.66518 336.079 8.01446 336.92 8.01446C337.161 8.01446 337.401 8.0545 337.661 8.12458C337.912 8.19466 338.252 8.30478 338.692 8.45495L338.843 8.51502C338.893 8.53504 338.943 8.55506 338.983 8.56507C339.533 8.77531 340.024 8.93548 340.454 9.04561ZM337.901 13.921L339.153 14.9722L338.102 16.2236L336.86 15.1724L337.901 13.921ZM346.807 15.0723C346.406 14.7019 346.206 14.1513 346.206 13.4205C346.206 13.04 346.376 11.9088 346.727 10.0367L347.848 10.277C347.748 10.8376 347.658 11.3882 347.577 11.9288C347.497 12.4794 347.447 12.8799 347.447 13.1301C347.447 13.5706 347.998 13.7809 349.119 13.7809C349.65 13.7809 350.1 13.7408 350.481 13.6607C350.851 13.5806 351.161 13.4505 351.422 13.2703C351.422 13.1502 351.412 13.0701 351.392 13.01C351.372 12.9499 351.322 12.9199 351.252 12.8999C350.711 12.8398 350.311 12.7798 350.04 12.7097C349.76 12.6496 349.55 12.5395 349.4 12.3893C349.249 12.2492 349.179 12.0289 349.179 11.7486C349.179 11.208 349.289 10.6474 349.52 10.0667C349.74 9.4861 350.04 9.00556 350.401 8.62514C350.761 8.24472 351.131 8.04449 351.502 8.04449C351.802 8.04449 352.072 8.1446 352.323 8.33482C352.563 8.52503 352.833 8.86541 353.134 9.34594L352.353 10.1669C352.042 9.86652 351.762 9.70634 351.502 9.70634C351.252 9.70634 351.041 9.83648 350.861 10.0868C350.681 10.3471 350.541 10.6774 350.461 11.0879C350.991 11.158 351.402 11.238 351.682 11.3281C351.962 11.4182 352.203 11.5984 352.383 11.8587C352.563 12.119 352.653 12.5195 352.653 13.04C352.653 13.5606 352.503 14.0011 352.223 14.3715C351.912 14.772 351.472 15.0723 350.901 15.2925C350.331 15.5128 349.66 15.6229 348.899 15.6229C347.898 15.6229 347.207 15.4427 346.807 15.0723ZM357.029 11.2881C357.049 11.3782 357.059 11.4783 357.059 11.5984V12.5595C357.059 12.6796 357.049 12.7898 357.029 12.8699C357.009 12.96 356.979 13 356.959 13H356.629C356.108 13 355.698 12.9299 355.377 12.7798C355.057 12.6296 354.807 12.3593 354.637 11.9789C354.466 11.5984 354.376 11.0578 354.366 10.3771L354.316 5.47163L355.718 5.21135V10.3671C355.718 10.8977 355.938 11.158 356.389 11.158H356.959C356.979 11.158 357.009 11.208 357.029 11.2881ZM363.136 10.8776C363.136 11.2581 363.046 11.7086 362.866 12.2291C362.826 12.3293 362.756 12.4294 362.676 12.5295C362.586 12.6296 362.466 12.7297 362.315 12.8498C362.115 13.01 361.935 13.0901 361.795 13.0901C361.725 13.0901 361.655 13.0801 361.575 13.04L360.103 12.4794C359.963 12.6496 359.622 12.7798 359.102 12.8699C358.581 12.96 357.86 13 356.959 13C356.929 13 356.899 12.96 356.879 12.8699C356.859 12.7898 356.849 12.6796 356.849 12.5595V11.5984C356.849 11.4783 356.859 11.3782 356.879 11.2881C356.899 11.208 356.919 11.158 356.959 11.158H357.43C357.79 11.158 358.041 11.168 358.191 11.178C358.051 11.0979 357.951 10.9778 357.87 10.8176C357.79 10.6674 357.75 10.5072 357.75 10.337C357.75 9.95662 357.941 9.50612 358.341 8.98554L357.941 8.78532L358.581 7.37375L361.665 8.76529C362.646 9.2158 363.136 9.91657 363.136 10.8776ZM360.213 9.82647L359.412 9.45606C359.212 9.65628 359.072 9.81646 359.012 9.91657C358.942 10.0267 358.912 10.1268 358.912 10.2069C358.912 10.327 359.002 10.4472 359.202 10.5573C359.392 10.6774 359.612 10.7375 359.853 10.7475L360.213 9.82647ZM361.965 11.2881C361.985 11.198 362.005 11.1179 362.005 11.0478C362.005 10.8877 361.925 10.7275 361.775 10.5773C361.625 10.4372 361.404 10.307 361.124 10.1969L360.744 11.1179L361.855 11.5384C361.895 11.4683 361.935 11.3882 361.965 11.2881ZM369.805 11.2881C369.825 11.3782 369.835 11.4783 369.835 11.5984V12.5595C369.835 12.6796 369.825 12.7898 369.805 12.8699C369.785 12.96 369.755 13 369.735 13H369.024C368.724 13 368.463 12.9199 368.243 12.7397C368.023 12.5695 367.863 12.3493 367.783 12.069L367.713 12.2291C367.653 12.3393 367.593 12.4194 367.522 12.4794C367.452 12.5395 367.362 12.5795 367.262 12.5996C366.992 12.6596 366.661 12.6796 366.261 12.6796C365.33 12.6796 364.87 12.2592 364.87 11.4182C364.87 10.9177 364.93 10.5072 365.05 10.1869C365.17 9.86652 365.39 9.58621 365.69 9.33593C365.991 9.08565 366.431 8.81535 367.012 8.53504L366.932 7.75417L368.243 7.36374L368.534 10.1969C368.554 10.4572 368.584 10.6374 368.614 10.7575C368.644 10.8776 368.704 10.9778 368.804 11.0478C368.904 11.1279 369.054 11.158 369.254 11.158H369.735C369.755 11.158 369.785 11.208 369.805 11.2881ZM367.402 10.8276L367.272 9.85651C366.832 10.0467 366.521 10.2369 366.341 10.4171C366.161 10.5973 366.041 10.7875 366.001 10.9878C366.201 11.0078 366.321 11.0178 366.371 11.0178C366.672 11.0178 367.022 10.9577 367.402 10.8276ZM373.872 9.20578C374.152 9.43604 374.372 9.74638 374.533 10.1368C374.683 10.5273 374.763 10.9577 374.763 11.4283C374.763 11.7987 374.713 12.1791 374.613 12.5695C374.583 12.6796 374.533 12.7798 374.463 12.8598C374.393 12.9399 374.262 13.0601 374.082 13.2002C373.842 13.3904 373.652 13.4805 373.512 13.4805C373.461 13.4805 373.381 13.4605 373.281 13.4205L371.369 12.5996C371.219 12.7397 371.029 12.8498 370.799 12.9099C370.558 12.97 370.248 13 369.857 13H369.737C369.707 13 369.677 12.96 369.657 12.8699C369.637 12.7898 369.627 12.6796 369.627 12.5595V11.5984C369.627 11.4783 369.637 11.3782 369.657 11.2881C369.677 11.208 369.697 11.158 369.737 11.158H370.088C370.318 11.158 370.488 11.1479 370.598 11.1179C370.708 11.0879 370.789 11.0378 370.849 10.9577C370.909 10.8877 370.979 10.7675 371.059 10.5873C371.309 9.98665 371.579 9.55617 371.87 9.27586C372.15 8.99555 372.49 8.85539 372.881 8.85539C373.251 8.85539 373.582 8.97553 373.872 9.20578ZM373.622 11.4783C373.622 11.178 373.542 10.9177 373.401 10.7075C373.261 10.4972 373.051 10.3871 372.771 10.3871C372.49 10.3871 372.24 10.6874 372.02 11.2681L373.562 11.9488C373.602 11.7987 373.622 11.6385 373.622 11.4783ZM378.841 11.2881C378.861 11.3782 378.871 11.4783 378.871 11.5984V12.5595C378.871 12.6796 378.861 12.7898 378.841 12.8699C378.821 12.96 378.791 13 378.77 13H378.44C377.92 13 377.509 12.9299 377.189 12.7798C376.868 12.6296 376.618 12.3593 376.448 11.9789C376.278 11.5984 376.188 11.0578 376.178 10.3771L376.128 5.47163L377.529 5.21135V10.3671C377.529 10.8977 377.749 11.158 378.2 11.158H378.77C378.791 11.158 378.821 11.208 378.841 11.2881ZM380.593 7.3337L379.331 6.28254L380.383 5.03114L381.634 6.08231L380.593 7.3337ZM381.694 9.79644C381.714 10.1468 381.724 10.5973 381.724 11.1379C381.724 11.7386 381.494 12.1891 381.033 12.4894C380.553 12.8298 379.792 13 378.771 13C378.741 13 378.711 12.96 378.691 12.8699C378.671 12.7898 378.661 12.6796 378.661 12.5595V11.5984C378.661 11.4783 378.671 11.3782 378.691 11.2881C378.711 11.208 378.731 11.158 378.771 11.158C379.231 11.158 379.592 11.1479 379.852 11.1079C380.102 11.0779 380.303 11.0278 380.463 10.9577L380.192 8.80534L381.594 8.55506C381.634 9.03559 381.674 9.45606 381.694 9.79644Z" fill="#F5EFD9"/>
<path d="M17.9714 236.734C17.9914 236.824 18.0014 236.924 18.0014 237.044V238.005C18.0014 238.125 17.9914 238.236 17.9714 238.316C17.9514 238.406 17.9213 238.446 17.9013 238.446H17.1905C16.8902 238.446 16.6299 238.366 16.4097 238.186C16.1894 238.015 16.0292 237.795 15.9491 237.515L15.8791 237.675C15.819 237.785 15.7589 237.865 15.6889 237.925C15.6188 237.985 15.5287 238.025 15.4286 238.045C15.1583 238.105 14.8279 238.125 14.4275 238.125C13.4964 238.125 13.0359 237.705 13.0359 236.864C13.0359 236.363 13.096 235.953 13.2161 235.633C13.3362 235.312 13.5565 235.032 13.8568 234.782C14.1572 234.531 14.5976 234.261 15.1783 233.981L15.0982 233.2L16.4097 232.81L16.7 235.643C16.72 235.903 16.75 236.083 16.7801 236.203C16.8101 236.323 16.8702 236.424 16.9703 236.494C17.0704 236.574 17.2206 236.604 17.4208 236.604H17.9013C17.9213 236.604 17.9514 236.654 17.9714 236.734ZM15.5687 236.273L15.4386 235.302C14.9981 235.493 14.6877 235.683 14.5075 235.863C14.3273 236.043 14.2072 236.233 14.1672 236.434C14.3674 236.454 14.4875 236.464 14.5376 236.464C14.8379 236.464 15.1883 236.404 15.5687 236.273ZM22.0383 234.652C22.3186 234.882 22.5389 235.192 22.6991 235.583C22.8492 235.973 22.9293 236.404 22.9293 236.874C22.9293 237.244 22.8793 237.625 22.7792 238.015C22.7491 238.125 22.6991 238.226 22.629 238.306C22.5589 238.386 22.4288 238.506 22.2486 238.646C22.0083 238.836 21.8181 238.926 21.6779 238.926C21.6279 238.926 21.5478 238.906 21.4477 238.866L19.5356 238.045C19.3854 238.186 19.1952 238.296 18.9649 238.356C18.7247 238.416 18.4143 238.446 18.0239 238.446H17.9037C17.8737 238.446 17.8437 238.406 17.8237 238.316C17.8036 238.236 17.7936 238.125 17.7936 238.005V237.044C17.7936 236.924 17.8036 236.824 17.8237 236.734C17.8437 236.654 17.8637 236.604 17.9037 236.604H18.2541C18.4844 236.604 18.6546 236.594 18.7647 236.564C18.8748 236.534 18.9549 236.484 19.015 236.404C19.075 236.333 19.1451 236.213 19.2252 236.033C19.4755 235.432 19.7458 235.002 20.0361 234.722C20.3164 234.441 20.6568 234.301 21.0472 234.301C21.4176 234.301 21.748 234.421 22.0383 234.652ZM21.7881 236.924C21.7881 236.624 21.708 236.363 21.5678 236.153C21.4277 235.943 21.2174 235.833 20.9371 235.833C20.6568 235.833 20.4065 236.133 20.1863 236.714L21.728 237.395C21.768 237.244 21.7881 237.084 21.7881 236.924ZM27.007 236.734C27.027 236.824 27.037 236.924 27.037 237.044V238.005C27.037 238.125 27.027 238.236 27.007 238.316C26.987 238.406 26.9569 238.446 26.9369 238.446H26.6065C26.086 238.446 25.6755 238.376 25.3551 238.226C25.0348 238.075 24.7845 237.805 24.6143 237.425C24.4441 237.044 24.354 236.504 24.344 235.823L24.294 230.917L25.6955 230.657V235.813C25.6955 236.343 25.9158 236.604 26.3663 236.604H26.9369C26.9569 236.604 26.987 236.654 27.007 236.734ZM28.7592 232.78L27.4978 231.728L28.549 230.477L29.8004 231.528L28.7592 232.78ZM29.8605 235.242C29.8805 235.593 29.8905 236.043 29.8905 236.584C29.8905 237.184 29.6602 237.635 29.1997 237.935C28.7192 238.276 27.9584 238.446 26.9372 238.446C26.9072 238.446 26.8772 238.406 26.8571 238.316C26.8371 238.236 26.8271 238.125 26.8271 238.005V237.044C26.8271 236.924 26.8371 236.824 26.8571 236.734C26.8772 236.654 26.8972 236.604 26.9372 236.604C27.3977 236.604 27.7581 236.594 28.0184 236.554C28.2687 236.524 28.4689 236.474 28.6291 236.404L28.3588 234.251L29.7604 234.001C29.8004 234.481 29.8404 234.902 29.8605 235.242ZM33.2797 232.519L32.2386 233.771L30.9772 232.719L32.0283 231.468L33.2797 232.519ZM29.2953 240.288C30.2163 239.857 30.8771 239.477 31.2875 239.147C31.688 238.826 31.9883 238.476 32.1785 238.105L31.7781 234.982L33.1996 234.682C33.3598 236.003 33.4399 237.014 33.4399 237.715C33.4399 238.266 33.3398 238.766 33.1496 239.207C32.9494 239.647 32.619 240.078 32.1585 240.488C31.698 240.899 31.0673 241.299 30.2664 241.699L29.2953 240.288ZM38.553 236.734C38.573 236.824 38.583 236.924 38.583 237.044V238.005C38.583 238.125 38.573 238.236 38.553 238.316C38.533 238.406 38.503 238.446 38.4829 238.446H38.3027C37.7421 238.446 37.3417 238.296 37.0814 237.995C37.0413 238.776 36.8511 239.447 36.5007 240.008C36.1403 240.568 35.5697 241.069 34.7788 241.499L33.8077 240.098C34.3984 239.817 34.8389 239.527 35.1392 239.217C35.4295 238.916 35.6598 238.546 35.83 238.105L35.4295 234.982L36.8411 234.682L36.9913 235.903C37.0113 236.133 37.0714 236.293 37.1615 236.394C37.2516 236.494 37.3817 236.554 37.5519 236.574C37.7221 236.594 38.0024 236.604 38.4028 236.604H38.4829C38.503 236.604 38.533 236.654 38.553 236.734ZM44.6601 236.323C44.6601 236.704 44.57 237.154 44.3898 237.675C44.3498 237.775 44.2797 237.875 44.1996 237.975C44.1095 238.075 43.9894 238.176 43.8392 238.296C43.639 238.456 43.4588 238.536 43.3186 238.536C43.2485 238.536 43.1785 238.526 43.0984 238.486L41.6267 237.925C41.4866 238.095 41.1462 238.226 40.6256 238.316C40.1051 238.406 39.3843 238.446 38.4832 238.446C38.4532 238.446 38.4232 238.406 38.4032 238.316C38.3831 238.236 38.3731 238.125 38.3731 238.005V237.044C38.3731 236.924 38.3831 236.824 38.4032 236.734C38.4232 236.654 38.4432 236.604 38.4832 236.604H38.9538C39.3142 236.604 39.5645 236.614 39.7146 236.624C39.5745 236.544 39.4744 236.424 39.3943 236.263C39.3142 236.113 39.2741 235.953 39.2741 235.783C39.2741 235.402 39.4643 234.952 39.8648 234.431L39.4643 234.231L40.1051 232.82L43.1885 234.211C44.1696 234.662 44.6601 235.362 44.6601 236.323ZM41.7369 235.272L40.936 234.902C40.7358 235.102 40.5956 235.262 40.5355 235.362C40.4655 235.472 40.4354 235.573 40.4354 235.653C40.4354 235.773 40.5255 235.893 40.7257 236.003C40.916 236.123 41.1362 236.183 41.3765 236.193L41.7369 235.272ZM43.4888 236.734C43.5088 236.644 43.5289 236.564 43.5289 236.494C43.5289 236.333 43.4488 236.173 43.2986 236.023C43.1484 235.883 42.9282 235.753 42.6479 235.643L42.2675 236.564L43.3787 236.984C43.4187 236.914 43.4588 236.834 43.4888 236.734Z" fill="#F5EFD9"/>
<path d="M534.151 237.638C534.171 237.728 534.181 237.828 534.181 237.948V238.909C534.181 239.029 534.171 239.139 534.151 239.219C534.131 239.31 534.101 239.35 534.081 239.35H533.37C533.07 239.35 532.81 239.27 532.589 239.089C532.369 238.919 532.209 238.699 532.129 238.419L532.059 238.579C531.999 238.689 531.939 238.769 531.869 238.829C531.798 238.889 531.708 238.929 531.608 238.949C531.338 239.009 531.008 239.029 530.607 239.029C529.676 239.029 529.216 238.609 529.216 237.768C529.216 237.267 529.276 236.857 529.396 236.536C529.516 236.216 529.736 235.936 530.037 235.686C530.337 235.435 530.777 235.165 531.358 234.885L531.278 234.104L532.589 233.713L532.88 236.546C532.9 236.807 532.93 236.987 532.96 237.107C532.99 237.227 533.05 237.327 533.15 237.397C533.25 237.478 533.4 237.508 533.6 237.508H534.081C534.101 237.508 534.131 237.558 534.151 237.638ZM531.748 237.177L531.618 236.206C531.178 236.396 530.867 236.587 530.687 236.767C530.507 236.947 530.387 237.137 530.347 237.337C530.547 237.357 530.667 237.367 530.717 237.367C531.018 237.367 531.368 237.307 531.748 237.177ZM538.218 235.555C538.498 235.786 538.719 236.096 538.879 236.486C539.029 236.877 539.109 237.307 539.109 237.778C539.109 238.148 539.059 238.529 538.959 238.919C538.929 239.029 538.879 239.129 538.809 239.209C538.739 239.29 538.608 239.41 538.428 239.55C538.188 239.74 537.998 239.83 537.858 239.83C537.808 239.83 537.727 239.81 537.627 239.77L535.715 238.949C535.565 239.089 535.375 239.199 535.145 239.26C534.904 239.32 534.594 239.35 534.204 239.35H534.083C534.053 239.35 534.023 239.31 534.003 239.219C533.983 239.139 533.973 239.029 533.973 238.909V237.948C533.973 237.828 533.983 237.728 534.003 237.638C534.023 237.558 534.043 237.508 534.083 237.508H534.434C534.664 237.508 534.834 237.498 534.944 237.468C535.055 237.437 535.135 237.387 535.195 237.307C535.255 237.237 535.325 237.117 535.405 236.937C535.655 236.336 535.925 235.906 536.216 235.625C536.496 235.345 536.836 235.205 537.227 235.205C537.597 235.205 537.928 235.325 538.218 235.555ZM537.968 237.828C537.968 237.528 537.888 237.267 537.748 237.057C537.607 236.847 537.397 236.737 537.117 236.737C536.836 236.737 536.586 237.037 536.366 237.618L537.908 238.298C537.948 238.148 537.968 237.988 537.968 237.828ZM543.187 237.638C543.207 237.728 543.217 237.828 543.217 237.948V238.909C543.217 239.029 543.207 239.139 543.187 239.219C543.167 239.31 543.137 239.35 543.117 239.35H542.786C542.266 239.35 541.855 239.28 541.535 239.129C541.214 238.979 540.964 238.709 540.794 238.328C540.624 237.948 540.534 237.407 540.524 236.727L540.474 231.821L541.875 231.561V236.717C541.875 237.247 542.095 237.508 542.546 237.508H543.117C543.137 237.508 543.167 237.558 543.187 237.638ZM544.939 233.683L543.678 232.632L544.729 231.381L545.98 232.432L544.939 233.683ZM546.04 236.146C546.06 236.496 546.07 236.947 546.07 237.488C546.07 238.088 545.84 238.539 545.379 238.839C544.899 239.179 544.138 239.35 543.117 239.35C543.087 239.35 543.057 239.31 543.037 239.219C543.017 239.139 543.007 239.029 543.007 238.909V237.948C543.007 237.828 543.017 237.728 543.037 237.638C543.057 237.558 543.077 237.508 543.117 237.508C543.577 237.508 543.938 237.498 544.198 237.458C544.448 237.427 544.649 237.377 544.809 237.307L544.538 235.155L545.94 234.905C545.98 235.385 546.02 235.806 546.04 236.146ZM549.459 233.423L548.418 234.674L547.157 233.623L548.208 232.372L549.459 233.423ZM545.475 241.192C546.396 240.761 547.057 240.381 547.467 240.05C547.868 239.73 548.168 239.38 548.358 239.009L547.958 235.886L549.379 235.585C549.54 236.907 549.62 237.918 549.62 238.619C549.62 239.169 549.519 239.67 549.329 240.11C549.129 240.551 548.799 240.981 548.338 241.392C547.878 241.802 547.247 242.203 546.446 242.603L545.475 241.192ZM554.733 237.638C554.753 237.728 554.763 237.828 554.763 237.948V238.909C554.763 239.029 554.753 239.139 554.733 239.219C554.713 239.31 554.683 239.35 554.663 239.35H554.482C553.922 239.35 553.521 239.199 553.261 238.899C553.221 239.68 553.031 240.351 552.68 240.911C552.32 241.472 551.749 241.973 550.959 242.403L549.987 241.001C550.578 240.721 551.019 240.431 551.319 240.12C551.609 239.82 551.839 239.45 552.01 239.009L551.609 235.886L553.021 235.585L553.171 236.807C553.191 237.037 553.251 237.197 553.341 237.297C553.431 237.397 553.561 237.458 553.732 237.478C553.902 237.498 554.182 237.508 554.583 237.508H554.663C554.683 237.508 554.713 237.558 554.733 237.638ZM560.84 237.227C560.84 237.608 560.75 238.058 560.57 238.579C560.529 238.679 560.459 238.779 560.379 238.879C560.289 238.979 560.169 239.079 560.019 239.199C559.819 239.36 559.638 239.44 559.498 239.44C559.428 239.44 559.358 239.43 559.278 239.39L557.806 238.829C557.666 238.999 557.326 239.129 556.805 239.219C556.285 239.31 555.564 239.35 554.663 239.35C554.633 239.35 554.603 239.31 554.583 239.219C554.563 239.139 554.553 239.029 554.553 238.909V237.948C554.553 237.828 554.563 237.728 554.583 237.638C554.603 237.558 554.623 237.508 554.663 237.508H555.133C555.494 237.508 555.744 237.518 555.894 237.528C555.754 237.447 555.654 237.327 555.574 237.167C555.494 237.017 555.454 236.857 555.454 236.687C555.454 236.306 555.644 235.856 556.044 235.335L555.644 235.135L556.285 233.723L559.368 235.115C560.349 235.565 560.84 236.266 560.84 237.227ZM557.917 236.176L557.116 235.806C556.915 236.006 556.775 236.166 556.715 236.266C556.645 236.376 556.615 236.476 556.615 236.557C556.615 236.677 556.705 236.797 556.905 236.907C557.096 237.027 557.316 237.087 557.556 237.097L557.917 236.176ZM559.668 237.638C559.689 237.548 559.709 237.468 559.709 237.397C559.709 237.237 559.628 237.077 559.478 236.927C559.328 236.787 559.108 236.657 558.828 236.546L558.447 237.468L559.558 237.888C559.598 237.818 559.638 237.738 559.668 237.638Z" fill="#F5EFD9"/>
<path d="M326.792 216.423C326.282 216.142 325.891 215.742 325.631 215.231C325.371 214.721 325.24 214.13 325.24 213.449C325.24 212.909 325.361 212.388 325.601 211.908C325.841 211.427 326.181 210.977 326.642 210.576C326.292 209.976 326.121 209.375 326.121 208.774C326.121 207.523 326.912 206.892 328.514 206.892C328.774 206.892 329.045 206.912 329.345 206.952L329.085 208.324C328.965 208.304 328.784 208.294 328.564 208.294C328.324 208.294 328.094 208.314 327.873 208.334C327.653 208.354 327.493 208.394 327.403 208.434C327.403 208.694 327.443 208.954 327.523 209.225C327.603 209.505 327.713 209.735 327.843 209.916L330.226 209.085L330.516 210.706C329.745 210.917 329.115 211.117 328.634 211.317C328.144 211.517 327.753 211.718 327.453 211.928C327.153 212.138 326.892 212.378 326.682 212.659C326.652 212.979 326.642 213.189 326.642 213.289C326.642 213.91 326.792 214.36 327.102 214.621C327.413 214.881 327.923 215.011 328.634 215.011H331.107L330.737 216.853H328.614C327.903 216.853 327.293 216.713 326.792 216.423ZM336.047 211.868C336.068 211.958 336.078 212.058 336.078 212.178V213.139C336.078 213.259 336.068 213.369 336.047 213.449C336.027 213.54 335.997 213.58 335.977 213.58H335.197C334.826 214.901 333.795 215.912 332.103 216.633L331.172 215.211C331.773 215.001 332.313 214.741 332.794 214.441C333.264 214.14 333.625 213.83 333.885 213.51C333.645 213.57 333.405 213.59 333.144 213.59C332.784 213.59 332.494 213.55 332.263 213.469C332.163 213.449 332.083 213.399 332.013 213.329C331.943 213.259 331.853 213.129 331.733 212.939C331.623 212.779 331.552 212.649 331.512 212.548C331.472 212.448 331.462 212.338 331.462 212.228C331.492 211.387 331.673 210.696 331.993 210.146C332.313 209.605 332.804 209.325 333.445 209.325C333.945 209.325 334.366 209.555 334.706 209.996C335.036 210.446 335.247 211.027 335.327 211.738H335.977C335.997 211.738 336.027 211.788 336.047 211.868ZM333.445 212.078C333.745 212.078 333.985 212.068 334.155 212.038C334.155 211.667 334.075 211.377 333.925 211.177C333.775 210.977 333.585 210.877 333.344 210.877C333.134 210.877 332.974 210.977 332.854 211.167C332.734 211.367 332.654 211.657 332.634 212.038C332.814 212.068 333.084 212.078 333.445 212.078ZM337.796 207.913L336.535 206.862L337.586 205.611L338.838 206.662L337.796 207.913ZM338.898 210.376C338.918 210.726 338.928 211.177 338.928 211.718C338.928 212.318 338.697 212.769 338.237 213.069C337.756 213.409 336.995 213.58 335.974 213.58C335.944 213.58 335.914 213.54 335.894 213.449C335.874 213.369 335.864 213.259 335.864 213.139V212.178C335.864 212.058 335.874 211.958 335.894 211.868C335.914 211.788 335.934 211.738 335.974 211.738C336.435 211.738 336.795 211.728 337.056 211.687C337.306 211.657 337.506 211.607 337.666 211.537L337.396 209.385L338.797 209.135C338.838 209.615 338.878 210.036 338.898 210.376ZM350.665 211.868C350.685 211.958 350.695 212.058 350.695 212.178V213.139C350.695 213.259 350.685 213.369 350.665 213.449C350.645 213.54 350.615 213.58 350.595 213.58C350.125 213.58 349.734 213.52 349.414 213.399C349.094 213.279 348.893 213.099 348.813 212.869C348.753 212.989 348.663 213.079 348.553 213.149C348.443 213.219 348.283 213.279 348.072 213.339C347.792 213.419 347.432 213.489 346.991 213.54C346.551 213.6 346.1 213.62 345.64 213.62C344.869 213.62 344.228 213.57 343.708 213.449C343.187 213.329 342.787 213.119 342.496 212.799C342.206 212.478 342.066 212.038 342.066 211.457C342.066 211.287 342.086 211.057 342.136 210.776L342.396 209.225L343.507 209.445L343.277 210.837C343.247 210.937 343.237 211.027 343.237 211.087C343.237 211.287 343.297 211.427 343.437 211.527C343.577 211.627 343.808 211.687 344.148 211.728C344.478 211.768 344.979 211.778 345.64 211.778C346.731 211.778 347.652 211.697 348.403 211.527L348.223 210.076L349.584 209.926L349.664 211.617C349.924 211.697 350.235 211.738 350.595 211.738C350.615 211.738 350.645 211.788 350.665 211.868ZM345.55 214.771L346.811 215.822L345.76 217.073L344.508 216.022L345.55 214.771ZM359.34 211.868C359.36 211.958 359.37 212.058 359.37 212.178V213.139C359.37 213.259 359.36 213.369 359.34 213.449C359.32 213.54 359.29 213.58 359.27 213.58H359.149C358.879 213.58 358.619 213.52 358.369 213.399C358.118 213.279 357.928 213.109 357.808 212.889C357.648 213.119 357.438 213.289 357.187 213.409C356.927 213.53 356.657 213.58 356.366 213.58C356.006 213.58 355.696 213.53 355.455 213.429C355.205 213.329 355.025 213.149 354.915 212.889C354.775 213.149 354.564 213.329 354.304 213.429C354.044 213.53 353.774 213.58 353.503 213.58C352.963 213.58 352.572 213.369 352.352 212.929C352.172 213.179 351.941 213.349 351.651 213.439C351.361 213.54 351.01 213.58 350.6 213.58C350.57 213.58 350.54 213.54 350.52 213.449C350.5 213.369 350.49 213.259 350.49 213.139V212.178C350.49 212.058 350.5 211.958 350.52 211.868C350.54 211.788 350.56 211.738 350.6 211.738C351.05 211.738 351.461 211.677 351.821 211.557V210.216H353.093V211.237C353.093 211.397 353.103 211.507 353.143 211.577C353.183 211.647 353.233 211.687 353.303 211.708C353.363 211.728 353.473 211.738 353.613 211.738C353.834 211.738 354.074 211.697 354.334 211.607L354.294 209.865L355.555 209.805L355.596 211.687C355.676 211.728 355.826 211.738 356.036 211.738C356.356 211.738 356.637 211.687 356.877 211.587L356.617 209.385L357.978 209.125L358.158 211.137C358.168 211.297 358.198 211.407 358.248 211.487C358.289 211.567 358.379 211.637 358.519 211.677C358.659 211.718 358.859 211.738 359.139 211.738H359.27C359.29 211.738 359.32 211.788 359.34 211.868ZM365.008 209.625C365.439 209.735 365.889 209.785 366.37 209.785L365.999 211.517C365.569 211.567 365.188 211.657 364.858 211.798C364.518 211.938 364.127 212.138 363.677 212.398C363.296 212.619 363.006 212.769 362.796 212.869C362.335 213.089 361.835 213.269 361.294 213.389C360.753 213.52 360.113 213.58 359.392 213.58H359.272C359.242 213.58 359.212 213.54 359.192 213.449C359.172 213.369 359.162 213.259 359.162 213.139V212.178C359.162 212.058 359.172 211.958 359.192 211.868C359.212 211.788 359.232 211.738 359.272 211.738H359.392C360.243 211.738 361.074 211.637 361.875 211.427C362.215 211.347 362.625 211.207 363.116 211.007C363.356 210.907 363.536 210.847 363.657 210.807L363.847 210.766C363.697 210.736 363.416 210.636 362.996 210.476C362.255 210.226 361.785 210.096 361.584 210.096C361.374 210.096 361.234 210.156 361.164 210.266C361.084 210.386 361.034 210.526 361.004 210.706L359.932 210.536C360.113 209.245 360.633 208.594 361.474 208.594C361.714 208.594 361.955 208.634 362.215 208.704C362.465 208.774 362.806 208.884 363.246 209.035L363.396 209.095C363.446 209.115 363.496 209.135 363.536 209.145C364.087 209.355 364.578 209.515 365.008 209.625ZM372.918 211.868C372.938 211.958 372.948 212.058 372.948 212.178V213.139C372.948 213.259 372.938 213.369 372.918 213.449C372.898 213.54 372.868 213.58 372.848 213.58H372.678C372.288 213.58 371.987 213.439 371.767 213.149C371.717 213.9 371.457 214.561 370.976 215.141C370.496 215.722 369.705 216.283 368.604 216.833L367.633 215.422C368.554 214.991 369.214 214.611 369.625 214.28C370.025 213.96 370.326 213.61 370.516 213.239L370.115 210.116L371.537 209.815L371.687 211.037C371.707 211.267 371.757 211.427 371.837 211.527C371.917 211.627 372.017 211.687 372.158 211.708C372.288 211.728 372.498 211.738 372.778 211.738H372.848C372.868 211.738 372.898 211.788 372.918 211.868ZM375.775 210.376C375.795 210.726 375.805 211.177 375.805 211.718C375.805 212.318 375.574 212.769 375.114 213.069C374.633 213.409 373.872 213.58 372.851 213.58C372.821 213.58 372.791 213.54 372.771 213.449C372.751 213.369 372.741 213.259 372.741 213.139V212.178C372.741 212.058 372.751 211.958 372.771 211.868C372.791 211.788 372.811 211.738 372.851 211.738C373.312 211.738 373.672 211.728 373.932 211.687C374.183 211.657 374.383 211.607 374.543 211.537L374.273 209.385L375.674 209.135C375.714 209.615 375.754 210.036 375.775 210.376ZM373.622 214.771L374.884 215.822L373.832 217.073L372.581 216.022L373.622 214.771ZM379.543 215.652C379.143 215.281 378.943 214.731 378.943 214C378.943 213.62 379.113 212.488 379.463 210.616L380.584 210.857C380.484 211.417 380.394 211.968 380.314 212.508C380.234 213.059 380.184 213.459 380.184 213.71C380.184 214.15 380.735 214.36 381.856 214.36C382.386 214.36 382.837 214.32 383.217 214.24C383.588 214.16 383.898 214.03 384.158 213.85C384.158 213.73 384.148 213.65 384.128 213.59C384.108 213.53 384.058 213.5 383.988 213.479C383.448 213.419 383.047 213.359 382.777 213.289C382.497 213.229 382.286 213.119 382.136 212.969C381.986 212.829 381.916 212.609 381.916 212.328C381.916 211.788 382.026 211.227 382.256 210.646C382.477 210.066 382.777 209.585 383.137 209.205C383.498 208.824 383.868 208.624 384.239 208.624C384.539 208.624 384.809 208.724 385.059 208.914C385.3 209.105 385.57 209.445 385.87 209.926L385.089 210.746C384.779 210.446 384.499 210.286 384.239 210.286C383.988 210.286 383.778 210.416 383.598 210.666C383.418 210.927 383.277 211.257 383.197 211.667C383.728 211.738 384.138 211.818 384.419 211.908C384.699 211.998 384.939 212.178 385.12 212.438C385.3 212.699 385.39 213.099 385.39 213.62C385.39 214.14 385.24 214.581 384.959 214.951C384.649 215.352 384.209 215.652 383.638 215.872C383.067 216.092 382.396 216.203 381.636 216.203C380.635 216.203 379.944 216.022 379.543 215.652ZM389.303 207.653L388.262 208.904L387 207.853L388.051 206.602L389.303 207.653ZM385.969 215.231C386.56 214.951 387 214.661 387.3 214.35C387.591 214.05 387.821 213.68 387.991 213.239L387.591 210.116L389.002 209.815C389.163 211.197 389.253 212.208 389.253 212.849C389.253 213.7 389.072 214.431 388.722 215.031C388.362 215.642 387.771 216.172 386.94 216.633L385.969 215.231ZM393.315 211.868C393.335 211.958 393.345 212.058 393.345 212.178V213.139C393.345 213.259 393.335 213.369 393.315 213.449C393.295 213.54 393.265 213.58 393.245 213.58H392.914C392.394 213.58 391.983 213.51 391.663 213.359C391.343 213.209 391.092 212.939 390.922 212.558C390.752 212.178 390.662 211.637 390.652 210.957L390.602 206.051L392.003 205.791V210.947C392.003 211.477 392.224 211.738 392.674 211.738H393.245C393.265 211.738 393.295 211.788 393.315 211.868ZM400.663 209.565C400.743 210.426 400.783 211.147 400.783 211.728C400.783 212.338 400.613 212.799 400.273 213.109C399.932 213.429 399.512 213.58 399.011 213.58C398.651 213.58 398.341 213.53 398.1 213.429C397.85 213.329 397.67 213.149 397.56 212.889C397.42 213.149 397.209 213.329 396.949 213.429C396.689 213.53 396.419 213.58 396.148 213.58C395.608 213.58 395.217 213.369 394.997 212.929C394.817 213.179 394.587 213.349 394.296 213.439C394.006 213.54 393.655 213.58 393.245 213.58C393.215 213.58 393.185 213.54 393.165 213.449C393.145 213.369 393.135 213.259 393.135 213.139V212.178C393.135 212.058 393.145 211.958 393.165 211.868C393.185 211.788 393.205 211.738 393.245 211.738C393.696 211.738 394.106 211.677 394.466 211.557V210.216H395.738V211.237C395.738 211.397 395.748 211.507 395.788 211.577C395.828 211.647 395.878 211.687 395.948 211.708C396.008 211.728 396.118 211.738 396.258 211.738C396.479 211.738 396.719 211.697 396.979 211.607L396.939 209.865L398.201 209.805L398.241 211.687C398.321 211.728 398.471 211.738 398.681 211.738C399.001 211.738 399.282 211.687 399.522 211.587L399.262 209.385L400.623 209.125C400.633 209.325 400.643 209.475 400.663 209.565ZM403.588 205.791V213.58L402.336 213.75L402.196 206.051L403.588 205.791ZM410.653 211.868C410.673 211.958 410.683 212.058 410.683 212.178V213.139C410.683 213.259 410.673 213.369 410.653 213.449C410.633 213.54 410.603 213.58 410.583 213.58H410.342C409.602 213.58 409.151 213.299 409.011 212.729L408.951 212.919C408.871 213.139 408.771 213.269 408.651 213.319C408.43 213.429 408.14 213.52 407.78 213.6C407.419 213.68 407.109 213.71 406.829 213.71C406.198 213.71 405.737 213.59 405.447 213.339C405.157 213.089 405.017 212.639 405.017 211.998C405.017 211.758 405.027 211.527 405.067 211.317L406.178 211.417V211.637C406.178 211.718 406.198 211.768 406.248 211.798C406.298 211.838 406.378 211.858 406.498 211.858C406.608 211.868 406.809 211.868 407.099 211.868C407.539 211.868 407.96 211.808 408.36 211.677L407.589 208.684L408.941 207.983L409.572 210.997C409.622 211.277 409.672 211.457 409.712 211.537C409.752 211.627 409.822 211.687 409.932 211.708C410.042 211.728 410.262 211.738 410.583 211.738C410.603 211.738 410.633 211.788 410.653 211.868ZM416.315 209.625C416.746 209.735 417.196 209.785 417.677 209.785L417.306 211.517C416.876 211.567 416.495 211.657 416.165 211.798C415.825 211.938 415.434 212.138 414.984 212.398C414.603 212.619 414.313 212.769 414.103 212.869C413.642 213.089 413.142 213.269 412.601 213.389C412.06 213.52 411.42 213.58 410.699 213.58H410.579C410.549 213.58 410.519 213.54 410.499 213.449C410.479 213.369 410.469 213.259 410.469 213.139V212.178C410.469 212.058 410.479 211.958 410.499 211.868C410.519 211.788 410.539 211.738 410.579 211.738H410.699C411.55 211.738 412.381 211.637 413.182 211.427C413.522 211.347 413.932 211.207 414.423 211.007C414.663 210.907 414.843 210.847 414.964 210.807L415.154 210.766C415.004 210.736 414.723 210.636 414.303 210.476C413.562 210.226 413.092 210.096 412.891 210.096C412.681 210.096 412.541 210.156 412.471 210.266C412.391 210.386 412.341 210.526 412.311 210.706L411.239 210.536C411.42 209.245 411.94 208.594 412.781 208.594C413.021 208.594 413.262 208.634 413.522 208.704C413.772 208.774 414.113 208.884 414.553 209.035L414.703 209.095C414.753 209.115 414.803 209.135 414.843 209.145C415.394 209.355 415.885 209.515 416.315 209.625ZM413.762 214.501L415.014 215.552L413.963 216.803L412.721 215.752L413.762 214.501Z" fill="#F5EFD9"/>
<path d="M148.196 210.316L147.029 209.344L148.001 208.195L149.159 209.168L148.196 210.316ZM152.289 212.326C152.308 212.409 152.317 212.502 152.317 212.613V213.502C152.317 213.613 152.308 213.715 152.289 213.789C152.271 213.873 152.243 213.91 152.224 213.91H152.113C151.826 213.91 151.576 213.863 151.372 213.771C151.168 213.678 151.011 213.521 150.9 213.28C150.928 213.761 150.946 214.15 150.946 214.447C150.946 214.836 150.77 215.16 150.428 215.41C150.076 215.669 149.668 215.855 149.196 215.966C148.714 216.077 148.288 216.132 147.899 216.132C147.01 216.132 146.38 215.966 145.991 215.614C145.602 215.262 145.408 214.762 145.408 214.095C145.408 213.752 145.565 212.706 145.889 210.965L146.927 211.187C146.834 211.705 146.751 212.215 146.677 212.715C146.603 213.224 146.556 213.595 146.556 213.826C146.556 214.058 146.695 214.215 146.982 214.299C147.26 214.391 147.575 214.428 147.908 214.428C148.696 214.428 149.316 214.326 149.779 214.123L149.372 210.696L150.65 210.4L150.77 211.492C150.789 211.733 150.844 211.9 150.937 211.993C151.02 212.085 151.141 212.15 151.307 212.169C151.465 212.196 151.733 212.206 152.113 212.206H152.224C152.243 212.206 152.271 212.252 152.289 212.326ZM156.311 212.326C156.33 212.409 156.339 212.502 156.339 212.613V213.502C156.339 213.613 156.33 213.715 156.311 213.789C156.292 213.873 156.265 213.91 156.246 213.91C155.616 213.91 155.163 213.863 154.885 213.761C154.598 213.669 154.403 213.493 154.311 213.243C154.218 213.419 154.088 213.558 153.94 213.65C153.783 213.743 153.57 213.817 153.301 213.854C153.032 213.891 152.671 213.91 152.227 213.91C152.199 213.91 152.171 213.873 152.153 213.789C152.134 213.715 152.125 213.613 152.125 213.502V212.613C152.125 212.502 152.134 212.409 152.153 212.326C152.171 212.252 152.19 212.206 152.227 212.206C152.634 212.206 152.949 212.196 153.171 212.178C153.394 212.159 153.588 212.104 153.736 212.02L153.514 210.353L154.811 210.214L154.903 212.104C154.996 212.15 155.144 212.178 155.329 212.187C155.514 212.206 155.82 212.206 156.246 212.206C156.265 212.206 156.292 212.252 156.311 212.326ZM154.635 214.956L155.69 215.836L154.801 216.883L153.755 216.003L154.635 214.956ZM153.838 215.892L152.958 216.957L151.903 216.077L152.782 215.012L153.838 215.892ZM160.123 207.936L159.123 207.093L159.965 206.093L160.966 206.936L160.123 207.936ZM160.91 207.677L161.92 208.52L161.068 209.52L160.058 208.677L160.91 207.677ZM159.308 209.585L158.298 208.742L159.141 207.723L160.141 208.566L159.308 209.585ZM163.105 210.196C163.179 210.992 163.216 211.659 163.216 212.196C163.216 212.761 163.059 213.187 162.744 213.474C162.429 213.771 162.04 213.91 161.577 213.91C161.244 213.91 160.956 213.863 160.734 213.771C160.503 213.678 160.336 213.511 160.234 213.271C160.104 213.511 159.91 213.678 159.669 213.771C159.428 213.863 159.178 213.91 158.928 213.91C158.428 213.91 158.067 213.715 157.863 213.308C157.696 213.539 157.483 213.697 157.215 213.78C156.946 213.873 156.622 213.91 156.242 213.91C156.215 213.91 156.187 213.873 156.168 213.789C156.15 213.715 156.141 213.613 156.141 213.502V212.613C156.141 212.502 156.15 212.409 156.168 212.326C156.187 212.252 156.205 212.206 156.242 212.206C156.659 212.206 157.039 212.15 157.372 212.039V210.798H158.548V211.742C158.548 211.891 158.558 211.993 158.595 212.057C158.632 212.122 158.678 212.159 158.743 212.178C158.799 212.196 158.9 212.206 159.03 212.206C159.234 212.206 159.456 212.169 159.697 212.085L159.66 210.474L160.827 210.418L160.864 212.159C160.938 212.196 161.077 212.206 161.271 212.206C161.568 212.206 161.827 212.159 162.049 212.067L161.809 210.029L163.068 209.788C163.077 209.974 163.087 210.112 163.105 210.196ZM167.061 212.326C167.079 212.409 167.088 212.502 167.088 212.613V213.502C167.088 213.613 167.079 213.715 167.061 213.789C167.042 213.873 167.014 213.91 166.996 213.91H166.69C166.209 213.91 165.829 213.845 165.533 213.706C165.236 213.567 165.005 213.317 164.847 212.965C164.69 212.613 164.606 212.113 164.597 211.483L164.551 206.945L165.847 206.704V211.474C165.847 211.965 166.051 212.206 166.468 212.206H166.996C167.014 212.206 167.042 212.252 167.061 212.326ZM170.821 210.4C171.08 210.613 171.284 210.9 171.432 211.261C171.571 211.622 171.645 212.02 171.645 212.456C171.645 212.798 171.599 213.15 171.506 213.511C171.479 213.613 171.432 213.706 171.368 213.78C171.303 213.854 171.182 213.965 171.016 214.095C170.793 214.271 170.617 214.354 170.488 214.354C170.441 214.354 170.367 214.336 170.275 214.299L168.506 213.539C168.367 213.669 168.191 213.771 167.978 213.826C167.756 213.882 167.468 213.91 167.107 213.91H166.996C166.968 213.91 166.941 213.873 166.922 213.789C166.904 213.715 166.894 213.613 166.894 213.502V212.613C166.894 212.502 166.904 212.409 166.922 212.326C166.941 212.252 166.959 212.206 166.996 212.206H167.32C167.533 212.206 167.691 212.196 167.793 212.169C167.894 212.141 167.969 212.094 168.024 212.02C168.08 211.956 168.145 211.844 168.219 211.678C168.45 211.122 168.7 210.724 168.969 210.464C169.228 210.205 169.543 210.075 169.904 210.075C170.247 210.075 170.553 210.187 170.821 210.4ZM170.59 212.502C170.59 212.224 170.515 211.983 170.386 211.789C170.256 211.594 170.062 211.492 169.802 211.492C169.543 211.492 169.311 211.77 169.108 212.307L170.534 212.937C170.571 212.798 170.59 212.65 170.59 212.502ZM175.032 215.827C174.662 215.484 174.476 214.975 174.476 214.299C174.476 213.947 174.634 212.9 174.958 211.168L175.995 211.391C175.903 211.909 175.819 212.419 175.745 212.919C175.671 213.428 175.625 213.799 175.625 214.03C175.625 214.438 176.134 214.632 177.171 214.632C177.662 214.632 178.079 214.595 178.431 214.521C178.774 214.447 179.061 214.326 179.302 214.16C179.302 214.049 179.292 213.974 179.274 213.919C179.255 213.863 179.209 213.836 179.144 213.817C178.644 213.761 178.274 213.706 178.024 213.641C177.764 213.586 177.57 213.484 177.431 213.345C177.292 213.215 177.227 213.011 177.227 212.752C177.227 212.252 177.329 211.733 177.542 211.196C177.746 210.659 178.024 210.214 178.357 209.862C178.69 209.51 179.033 209.325 179.376 209.325C179.654 209.325 179.904 209.418 180.135 209.594C180.357 209.77 180.607 210.085 180.885 210.529L180.163 211.289C179.876 211.011 179.616 210.863 179.376 210.863C179.144 210.863 178.95 210.983 178.783 211.215C178.616 211.455 178.487 211.761 178.412 212.141C178.903 212.206 179.283 212.28 179.542 212.363C179.802 212.446 180.024 212.613 180.191 212.854C180.357 213.095 180.441 213.465 180.441 213.947C180.441 214.428 180.302 214.836 180.042 215.178C179.755 215.549 179.348 215.827 178.82 216.031C178.292 216.234 177.672 216.336 176.968 216.336C176.042 216.336 175.403 216.169 175.032 215.827ZM185.366 212.326C185.385 212.409 185.394 212.502 185.394 212.613V213.502C185.394 213.613 185.385 213.715 185.366 213.789C185.348 213.873 185.32 213.91 185.302 213.91H185.135C184.616 213.91 184.246 213.771 184.005 213.493C183.968 214.215 183.792 214.836 183.468 215.354C183.134 215.873 182.607 216.336 181.875 216.734L180.977 215.438C181.523 215.178 181.93 214.91 182.208 214.623C182.477 214.345 182.69 214.002 182.847 213.595L182.477 210.705L183.783 210.427L183.922 211.557C183.94 211.77 183.996 211.918 184.079 212.011C184.162 212.104 184.283 212.159 184.44 212.178C184.598 212.196 184.857 212.206 185.228 212.206H185.302C185.32 212.206 185.348 212.252 185.366 212.326ZM189.386 212.326C189.405 212.409 189.414 212.502 189.414 212.613V213.502C189.414 213.613 189.405 213.715 189.386 213.789C189.368 213.873 189.34 213.91 189.321 213.91C188.692 213.91 188.238 213.863 187.96 213.761C187.673 213.669 187.478 213.493 187.386 213.243C187.293 213.419 187.163 213.558 187.015 213.65C186.858 213.743 186.645 213.817 186.376 213.854C186.108 213.891 185.746 213.91 185.302 213.91C185.274 213.91 185.246 213.873 185.228 213.789C185.209 213.715 185.2 213.613 185.2 213.502V212.613C185.2 212.502 185.209 212.409 185.228 212.326C185.246 212.252 185.265 212.206 185.302 212.206C185.709 212.206 186.024 212.196 186.247 212.178C186.469 212.159 186.663 212.104 186.812 212.02L186.589 210.353L187.886 210.214L187.978 212.104C188.071 212.15 188.219 212.178 188.404 212.187C188.59 212.206 188.895 212.206 189.321 212.206C189.34 212.206 189.368 212.252 189.386 212.326ZM187.71 214.956L188.766 215.836L187.877 216.883L186.83 216.003L187.71 214.956ZM186.913 215.892L186.034 216.957L184.978 216.077L185.858 215.012L186.913 215.892ZM191.448 206.639C191.337 206.695 191.012 206.843 190.485 207.103L189.521 207.575L189.54 206.565L191.383 205.732L191.448 206.639ZM192.578 210.511C192.874 211.103 193.022 211.761 193.022 212.474C193.022 212.835 192.892 213.122 192.642 213.326C192.383 213.539 191.994 213.687 191.457 213.78C190.92 213.873 190.207 213.919 189.318 213.91C189.29 213.91 189.262 213.873 189.243 213.789C189.225 213.715 189.216 213.613 189.216 213.502V212.613C189.216 212.502 189.225 212.409 189.243 212.326C189.262 212.252 189.281 212.206 189.318 212.206C190.41 212.224 191.272 212.169 191.883 212.057C191.809 211.567 191.577 211.085 191.17 210.613C190.762 210.15 190.197 209.659 189.475 209.149L189.512 207.89C190.105 207.556 190.67 207.278 191.207 207.038C191.744 206.797 192.291 206.593 192.846 206.408L193.031 207.788L192.059 208.186L190.901 208.658C191.012 208.723 191.124 208.797 191.235 208.881C191.827 209.381 192.281 209.918 192.578 210.511ZM198.111 210.585C198.445 211.205 198.611 211.807 198.611 212.382C198.611 212.826 198.482 213.178 198.222 213.437C197.815 213.863 197.093 214.067 196.055 214.067C195.601 214.067 195.24 214.021 194.972 213.919C194.694 213.826 194.49 213.66 194.36 213.419C194.231 213.187 194.166 212.863 194.166 212.446C194.166 212.233 194.175 212.039 194.212 211.854L195.259 211.937L195.24 212.094C195.24 212.187 195.259 212.243 195.305 212.28C195.351 212.317 195.425 212.344 195.537 212.354C195.648 212.363 195.833 212.363 196.102 212.363C196.25 212.363 196.463 212.354 196.741 212.326C197.018 212.307 197.25 212.27 197.444 212.233C197.38 211.918 197.213 211.576 196.944 211.196C196.676 210.816 196.305 210.4 195.824 209.937L196.685 208.779C197.296 209.372 197.778 209.974 198.111 210.585ZM202.379 212.326C202.397 212.409 202.407 212.502 202.407 212.613V213.502C202.407 213.613 202.397 213.715 202.379 213.789C202.36 213.873 202.333 213.91 202.314 213.91H202.008C201.527 213.91 201.147 213.845 200.851 213.706C200.554 213.567 200.323 213.317 200.165 212.965C200.008 212.613 199.925 212.113 199.915 211.483L199.869 206.945L201.166 206.704V211.474C201.166 211.965 201.369 212.206 201.786 212.206H202.314C202.333 212.206 202.36 212.252 202.379 212.326ZM202.24 213.789C202.222 213.715 202.212 213.613 202.212 213.502V212.613C202.212 212.502 202.222 212.409 202.24 212.326C202.259 212.252 202.277 212.206 202.314 212.206C202.74 212.206 203.074 212.196 203.315 212.159C203.546 212.131 203.731 212.085 203.88 212.02L203.629 210.029L204.926 209.798C204.963 210.242 205 210.631 205.019 210.946C205.037 211.27 205.046 211.687 205.046 212.187C205.046 212.743 204.833 213.159 204.407 213.437C203.963 213.752 203.259 213.91 202.314 213.91C202.287 213.91 202.259 213.873 202.24 213.789ZM205.408 215.836L204.509 216.883L203.472 216.003L204.352 214.956L205.408 215.836ZM203.555 215.892L202.666 216.957L201.62 216.077L202.5 215.012L203.555 215.892ZM213.293 212.326C213.312 212.409 213.321 212.502 213.321 212.613V213.502C213.321 213.613 213.312 213.715 213.293 213.789C213.275 213.873 213.247 213.91 213.229 213.91C212.932 213.91 212.654 213.863 212.386 213.752C212.108 213.641 211.904 213.465 211.756 213.224L211.719 213.474C211.7 213.586 211.663 213.687 211.608 213.771C211.552 213.854 211.441 213.956 211.293 214.067C211.052 214.252 210.867 214.345 210.737 214.345C210.691 214.345 210.617 214.326 210.524 214.289L208.978 213.604C208.978 213.993 209.005 214.401 209.061 214.836C209.107 215.28 209.181 215.818 209.274 216.466L208.014 216.855C207.848 215.54 207.764 214.567 207.764 213.919C207.764 213.28 207.838 212.789 207.987 212.446C208.301 211.724 208.663 211.141 209.052 210.714C209.441 210.288 209.857 210.075 210.302 210.075C210.635 210.075 210.941 210.205 211.2 210.446C211.46 210.696 211.654 210.983 211.765 211.307C211.839 211.529 211.923 211.696 212.015 211.817C212.099 211.937 212.238 212.03 212.423 212.104C212.608 212.178 212.877 212.206 213.229 212.206C213.247 212.206 213.275 212.252 213.293 212.326ZM210.867 212.4C210.867 212.131 210.802 211.909 210.691 211.733C210.571 211.567 210.395 211.474 210.154 211.474C209.876 211.474 209.57 211.742 209.246 212.261L210.784 212.993C210.839 212.798 210.867 212.604 210.867 212.4ZM214.981 208.371L215.87 207.325L216.917 208.205L216.037 209.251L214.981 208.371ZM214.185 209.325L213.129 208.436L214.018 207.39L215.065 208.269L214.185 209.325ZM217.315 212.326C217.334 212.409 217.343 212.502 217.343 212.613V213.502C217.343 213.613 217.334 213.715 217.315 213.789C217.297 213.873 217.269 213.91 217.25 213.91C216.621 213.91 216.167 213.863 215.889 213.761C215.602 213.669 215.407 213.493 215.315 213.243C215.222 213.419 215.092 213.558 214.944 213.65C214.787 213.743 214.574 213.817 214.305 213.854C214.037 213.891 213.675 213.91 213.231 213.91C213.203 213.91 213.175 213.873 213.157 213.789C213.138 213.715 213.129 213.613 213.129 213.502V212.613C213.129 212.502 213.138 212.409 213.157 212.326C213.175 212.252 213.194 212.206 213.231 212.206C213.638 212.206 213.953 212.196 214.176 212.178C214.398 212.159 214.592 212.104 214.74 212.02L214.518 210.353L215.815 210.214L215.907 212.104C216 212.15 216.148 212.178 216.333 212.187C216.519 212.206 216.824 212.206 217.25 212.206C217.269 212.206 217.297 212.252 217.315 212.326ZM221.247 212.187C221.247 212.743 221.034 213.159 220.608 213.437C220.377 213.604 220.025 213.724 219.553 213.799C219.071 213.873 218.302 213.91 217.247 213.91C217.219 213.91 217.191 213.873 217.172 213.789C217.154 213.715 217.145 213.613 217.145 213.502V212.613C217.145 212.502 217.154 212.409 217.172 212.326C217.191 212.252 217.21 212.206 217.247 212.206C218.71 212.206 219.655 212.159 220.09 212.048L219.84 209.835L221.099 209.594C221.192 210.409 221.247 211.279 221.247 212.187ZM219.201 214.873L220.257 215.753L219.367 216.799L218.321 215.919L219.201 214.873ZM218.404 215.808L217.524 216.873L216.469 215.993L217.358 214.928L218.404 215.808ZM220.703 215.614C221.555 215.216 222.167 214.864 222.546 214.558C222.917 214.262 223.195 213.937 223.371 213.595L223 210.705L224.315 210.427C224.463 211.65 224.538 212.585 224.538 213.234C224.538 213.743 224.445 214.206 224.269 214.614C224.084 215.021 223.778 215.419 223.352 215.799C222.926 216.179 222.343 216.549 221.602 216.92L220.703 215.614ZM229.877 212.326C229.895 212.409 229.905 212.502 229.905 212.613V213.502C229.905 213.613 229.895 213.715 229.877 213.789C229.858 213.873 229.83 213.91 229.812 213.91H229.09C228.747 215.132 227.793 216.068 226.228 216.734L225.366 215.419C225.922 215.225 226.422 214.984 226.867 214.706C227.302 214.428 227.636 214.141 227.876 213.845C227.654 213.9 227.432 213.919 227.191 213.919C226.858 213.919 226.589 213.882 226.376 213.808C226.283 213.789 226.209 213.743 226.144 213.678C226.08 213.613 225.996 213.493 225.885 213.317C225.783 213.169 225.718 213.048 225.681 212.956C225.644 212.863 225.635 212.761 225.635 212.659C225.663 211.881 225.83 211.242 226.126 210.733C226.422 210.233 226.876 209.974 227.469 209.974C227.932 209.974 228.321 210.187 228.636 210.594C228.941 211.011 229.136 211.548 229.21 212.206H229.812C229.83 212.206 229.858 212.252 229.877 212.326ZM227.469 212.52C227.747 212.52 227.969 212.511 228.126 212.483C228.126 212.141 228.052 211.872 227.913 211.687C227.774 211.502 227.598 211.409 227.376 211.409C227.182 211.409 227.034 211.502 226.922 211.678C226.811 211.863 226.737 212.131 226.719 212.483C226.885 212.511 227.135 212.52 227.469 212.52ZM231.939 206.639C231.828 206.695 231.504 206.843 230.976 207.103L230.013 207.575L230.031 206.565L231.874 205.732L231.939 206.639ZM234.634 212.326C234.653 212.409 234.662 212.502 234.662 212.613V213.502C234.662 213.613 234.653 213.715 234.634 213.789C234.616 213.873 234.588 213.91 234.57 213.91H233.912C233.467 213.91 233.162 213.752 232.977 213.437C232.699 213.604 232.31 213.734 231.791 213.808C231.272 213.882 230.606 213.919 229.809 213.91C229.781 213.91 229.754 213.873 229.735 213.789C229.717 213.715 229.707 213.613 229.707 213.502V212.613C229.707 212.502 229.717 212.409 229.735 212.326C229.754 212.252 229.772 212.206 229.809 212.206C230.902 212.224 231.763 212.169 232.375 212.057C232.3 211.567 232.069 211.085 231.661 210.613C231.254 210.15 230.689 209.659 229.967 209.149L230.004 207.89C230.596 207.556 231.161 207.278 231.698 207.038C232.236 206.797 232.782 206.593 233.338 206.408L233.523 207.788L232.551 208.186L231.393 208.658C231.504 208.723 231.615 208.797 231.726 208.881C232.736 209.714 233.319 210.705 233.477 211.844C233.486 211.974 233.504 212.057 233.523 212.094C233.542 212.141 233.569 212.169 233.625 212.187C233.68 212.206 233.773 212.206 233.912 212.206H234.57C234.588 212.206 234.616 212.252 234.634 212.326ZM237.234 208.251C237.28 210.001 237.308 211.316 237.317 212.187C237.317 212.743 237.104 213.159 236.687 213.437C236.224 213.752 235.52 213.91 234.576 213.91C234.548 213.91 234.52 213.873 234.501 213.789C234.483 213.715 234.474 213.613 234.474 213.502V212.613C234.474 212.502 234.483 212.409 234.501 212.326C234.52 212.252 234.538 212.206 234.576 212.206C235.215 212.206 235.742 212.159 236.168 212.057L235.9 206.945L237.187 206.704C237.187 207.019 237.206 207.538 237.234 208.251ZM240.001 206.704V213.91L238.844 214.067L238.714 206.945L240.001 206.704Z" fill="#F5EFD9"/>
<path fill-rule="evenodd" clip-rule="evenodd" d="M0.57944 88.9666C-0.262935 96.7935 -0.225378 105.82 0.946802 113.615C1.59541 117.929 5.11559 121.235 9.46088 121.613L14.0021 122.008C23.4713 122.831 32.9938 122.831 42.4631 122.008L47.0042 121.613C51.3496 121.235 54.8699 117.929 55.5185 113.615C56.6906 105.82 56.7282 96.7941 55.8856 88.9671C55.7768 88.0597 55.6544 87.1536 55.5185 86.2489C54.8699 81.9357 51.3496 78.6291 47.0042 78.2514L42.4631 77.8566C32.9938 77.0335 23.4713 77.0335 14.0021 77.8566L9.46088 78.2514C5.11559 78.6291 1.59541 81.9357 0.946802 86.2489C0.810796 87.1534 0.688352 88.0594 0.57944 88.9666ZM14.3927 82.3501C23.6018 81.5496 32.8633 81.5496 42.0725 82.3501L46.6136 82.7449C48.8818 82.9421 50.7193 84.6681 51.0579 86.9196C51.0931 87.1534 51.1274 87.3873 51.1608 87.6214L34.4389 96.9114C30.5792 99.0557 25.8859 99.0557 22.0261 96.9114L5.30449 87.6215C5.33774 87.3874 5.37196 87.1535 5.40711 86.9196C5.7457 84.6681 7.58323 82.9421 9.85149 82.7449L14.3927 82.3501ZM51.7125 92.4746C52.2959 99.2935 52.0776 106.164 51.0579 112.945C50.7193 115.196 48.8818 116.922 46.6136 117.119L42.0725 117.514C32.8633 118.315 23.6018 118.315 14.3927 117.514L9.85149 117.119C7.58323 116.922 5.7457 115.196 5.40711 112.945C4.38748 106.164 4.16929 99.2938 4.75255 92.4746L19.8356 100.854C25.0578 103.755 31.4073 103.755 36.6292 100.854L51.7125 92.4746Z" fill="#00BB9C"/>
<path fill-rule="evenodd" clip-rule="evenodd" d="M0.57944 191.786C-0.262935 199.613 -0.225378 208.64 0.946802 216.435C1.59541 220.748 5.11559 224.055 9.46088 224.433L14.0021 224.827C23.4713 225.651 32.9938 225.651 42.4631 224.827L47.0042 224.433C51.3496 224.055 54.8699 220.748 55.5185 216.435C56.6906 208.64 56.7282 199.614 55.8856 191.787C55.7768 190.88 55.6544 189.973 55.5185 189.069C54.8699 184.756 51.3496 181.449 47.0042 181.071L42.4631 180.676C32.9938 179.853 23.4713 179.853 14.0021 180.676L9.46088 181.071C5.11559 181.449 1.59541 184.756 0.946802 189.069C0.810796 189.973 0.688352 190.879 0.57944 191.786ZM14.3927 185.17C23.6018 184.369 32.8633 184.369 42.0725 185.17L46.6136 185.565C48.8818 185.762 50.7193 187.488 51.0579 189.739C51.0931 189.973 51.1274 190.207 51.1608 190.441L34.4389 199.731C30.5792 201.875 25.8859 201.875 22.0261 199.731L5.30449 190.441C5.33774 190.207 5.37196 189.973 5.40711 189.739C5.7457 187.488 7.58323 185.762 9.85149 185.565L14.3927 185.17ZM51.7125 195.294C52.2959 202.113 52.0776 208.984 51.0579 215.764C50.7193 218.016 48.8818 219.742 46.6136 219.939L42.0725 220.334C32.8633 221.135 23.6018 221.135 14.3927 220.334L9.85149 219.939C7.58323 219.742 5.7457 218.016 5.40711 215.764C4.38748 208.984 4.16929 202.114 4.75255 195.294L19.8356 203.674C25.0578 206.575 31.4073 206.575 36.6292 203.674L51.7125 195.294Z" fill="#94182C"/>
<path fill-rule="evenodd" clip-rule="evenodd" d="M255.806 38.3709C254.964 46.1978 255.001 55.2248 256.173 63.0197C256.822 67.333 260.342 70.6394 264.687 71.0174L269.229 71.4119C278.698 72.2352 288.22 72.2352 297.69 71.4119L302.231 71.0174C306.576 70.6394 310.096 67.333 310.745 63.0197C311.917 55.2248 311.955 46.1984 311.112 38.3714C311.003 37.464 310.881 36.5579 310.745 35.6532C310.096 31.34 306.576 28.0334 302.231 27.6557L297.69 27.2609C288.22 26.4378 278.698 26.4378 269.229 27.2609L264.687 27.6557C260.342 28.0334 256.822 31.34 256.173 35.6532C256.037 36.5577 255.915 37.4637 255.806 38.3709ZM269.619 31.7544C278.828 30.9539 288.09 30.9539 297.299 31.7544L301.84 32.1492C304.108 32.3464 305.946 34.0724 306.284 36.3239C306.32 36.5577 306.354 36.7916 306.387 37.0257L289.666 46.3157C285.806 48.46 281.112 48.46 277.253 46.3157L260.531 37.0258C260.564 36.7917 260.599 36.5578 260.634 36.3239C260.972 34.0724 262.81 32.3464 265.078 32.1492L269.619 31.7544ZM306.939 41.8788C307.522 48.6978 307.304 55.5685 306.284 62.3489C305.946 64.6005 304.108 66.3265 301.84 66.5238L297.299 66.9186C288.09 67.719 278.828 67.719 269.619 66.9186L265.078 66.5238C262.81 66.3265 260.972 64.6005 260.634 62.3489C259.614 55.5685 259.396 48.6981 259.979 41.8789L275.062 50.2584C280.284 53.1596 286.634 53.1596 291.856 50.2584L306.939 41.8788Z" fill="#FF7E00"/>
<path fill-rule="evenodd" clip-rule="evenodd" d="M324.869 38.3709C324.026 46.1978 324.064 55.2248 325.236 63.0197C325.884 67.333 329.405 70.6394 333.75 71.0174L338.291 71.4119C347.76 72.2352 357.283 72.2352 366.752 71.4119L371.293 71.0174C375.639 70.6394 379.159 67.333 379.808 63.0197C380.98 55.2248 381.017 46.1984 380.175 38.3714C380.066 37.464 379.943 36.5579 379.808 35.6532C379.159 31.34 375.639 28.0334 371.293 27.6557L366.752 27.2609C357.283 26.4378 347.76 26.4378 338.291 27.2609L333.75 27.6557C329.405 28.0334 325.884 31.34 325.236 35.6532C325.1 36.5577 324.977 37.4637 324.869 38.3709ZM338.682 31.7544C347.891 30.9539 357.152 30.9539 366.362 31.7544L370.903 32.1492C373.171 32.3464 375.008 34.0724 375.347 36.3239C375.382 36.5577 375.416 36.7916 375.45 37.0257L358.728 46.3157C354.868 48.46 350.175 48.46 346.315 46.3157L329.594 37.0258C329.627 36.7917 329.661 36.5578 329.696 36.3239C330.035 34.0724 331.872 32.3464 334.141 32.1492L338.682 31.7544ZM376.002 41.8788C376.585 48.6978 376.367 55.5685 375.347 62.3489C375.008 64.6005 373.171 66.3265 370.903 66.5238L366.362 66.9186C357.152 67.719 347.891 67.719 338.682 66.9186L334.141 66.5238C331.872 66.3265 330.035 64.6005 329.696 62.3489C328.677 55.5685 328.458 48.6981 329.042 41.8789L344.125 50.2584C349.347 53.1596 355.696 53.1596 360.918 50.2584L376.002 41.8788Z" fill="#FF7E00"/>
<path fill-rule="evenodd" clip-rule="evenodd" d="M393.931 38.3709C393.089 46.1978 393.126 55.2248 394.298 63.0197C394.947 67.333 398.467 70.6394 402.812 71.0174L407.354 71.4119C416.823 72.2352 426.345 72.2352 435.815 71.4119L440.356 71.0174C444.701 70.6394 448.221 67.333 448.87 63.0197C450.042 55.2248 450.08 46.1984 449.237 38.3714C449.128 37.464 449.006 36.5579 448.87 35.6532C448.221 31.34 444.701 28.0334 440.356 27.6557L435.815 27.2609C426.345 26.4378 416.823 26.4378 407.354 27.2609L402.812 27.6557C398.467 28.0334 394.947 31.34 394.298 35.6532C394.162 36.5577 394.04 37.4637 393.931 38.3709ZM407.744 31.7544C416.953 30.9539 426.215 30.9539 435.424 31.7544L439.965 32.1492C442.233 32.3464 444.071 34.0724 444.409 36.3239C444.445 36.5577 444.479 36.7916 444.512 37.0257L427.791 46.3157C423.931 48.46 419.237 48.46 415.378 46.3157L398.656 37.0258C398.689 36.7917 398.724 36.5578 398.759 36.3239C399.097 34.0724 400.935 32.3464 403.203 32.1492L407.744 31.7544ZM445.064 41.8788C445.647 48.6978 445.429 55.5685 444.409 62.3489C444.071 64.6005 442.233 66.3265 439.965 66.5238L435.424 66.9186C426.215 67.719 416.953 67.719 407.744 66.9186L403.203 66.5238C400.935 66.3265 399.097 64.6005 398.759 62.3489C397.739 55.5685 397.521 48.6981 398.104 41.8789L413.187 50.2584C418.409 53.1596 424.759 53.1596 429.981 50.2584L445.064 41.8788Z" fill="#FF7E00"/>
<path fill-rule="evenodd" clip-rule="evenodd" d="M516.759 88.9666C515.917 96.7935 515.954 105.82 517.126 113.615C517.775 117.929 521.295 121.235 525.641 121.613L530.182 122.008C539.651 122.831 549.173 122.831 558.643 122.008L563.184 121.613C567.529 121.235 571.05 117.929 571.698 113.615C572.87 105.82 572.908 96.7941 572.065 88.9671C571.956 88.0597 571.834 87.1536 571.698 86.2489C571.05 81.9357 567.529 78.6291 563.184 78.2514L558.643 77.8566C549.173 77.0335 539.651 77.0335 530.182 77.8566L525.641 78.2514C521.295 78.6291 517.775 81.9357 517.126 86.2489C516.99 87.1534 516.868 88.0594 516.759 88.9666ZM530.572 82.3501C539.781 81.5496 549.043 81.5496 558.252 82.3501L562.793 82.7449C565.061 82.9421 566.899 84.6681 567.238 86.9196C567.273 87.1534 567.307 87.3873 567.34 87.6214L550.619 96.9114C546.759 99.0557 542.066 99.0557 538.206 96.9114L521.484 87.6215C521.517 87.3874 521.552 87.1535 521.587 86.9196C521.925 84.6681 523.763 82.9421 526.031 82.7449L530.572 82.3501ZM567.892 92.4746C568.476 99.2935 568.257 106.164 567.238 112.945C566.899 115.196 565.061 116.922 562.793 117.119L558.252 117.514C549.043 118.315 539.781 118.315 530.572 117.514L526.031 117.119C523.763 116.922 521.925 115.196 521.587 112.945C520.567 106.164 520.349 99.2938 520.932 92.4746L536.015 100.854C541.237 103.755 547.587 103.755 552.809 100.854L567.892 92.4746Z" fill="#00BB9C"/>
<path fill-rule="evenodd" clip-rule="evenodd" d="M516.759 192.692C515.917 200.519 515.954 209.546 517.126 217.341C517.775 221.654 521.295 224.96 525.641 225.338L530.182 225.733C539.651 226.556 549.173 226.556 558.643 225.733L563.184 225.338C567.529 224.96 571.05 221.654 571.698 217.341C572.87 209.546 572.908 200.519 572.065 192.692C571.956 191.785 571.834 190.879 571.698 189.974C571.05 185.661 567.529 182.354 563.184 181.976L558.643 181.582C549.173 180.759 539.651 180.759 530.182 181.582L525.641 181.976C521.295 182.354 517.775 185.661 517.126 189.974C516.99 190.878 516.868 191.785 516.759 192.692ZM530.572 186.075C539.781 185.275 549.043 185.275 558.252 186.075L562.793 186.47C565.061 186.667 566.899 188.393 567.238 190.645C567.273 190.879 567.307 191.112 567.34 191.346L550.619 200.636C546.759 202.781 542.066 202.781 538.206 200.636L521.484 191.347C521.517 191.113 521.552 190.879 521.587 190.645C521.925 188.393 523.763 186.667 526.031 186.47L530.572 186.075ZM567.892 196.2C568.476 203.019 568.257 209.889 567.238 216.67C566.899 218.921 565.061 220.647 562.793 220.845L558.252 221.239C549.043 222.04 539.781 222.04 530.572 221.239L526.031 220.845C523.763 220.647 521.925 218.921 521.587 216.67C520.567 209.889 520.349 203.019 520.932 196.2L536.015 204.579C541.237 207.48 547.587 207.48 552.809 204.579L567.892 196.2Z" fill="#94182C"/>
<path d="M148.609 121.887C148.609 120.822 149.473 119.958 150.539 119.958H231.793C232.859 119.958 233.723 120.822 233.723 121.887V177.981C233.723 179.047 232.859 179.911 231.793 179.911H191.166H150.539C149.473 179.911 148.609 179.047 148.609 177.981V121.887Z" fill="#0F3C6C" stroke="#F5EFD9" stroke-width="3.85892"/>
<path d="M164.172 160.092L181.227 143.038L199.353 162.956L215.914 140.577" stroke="#F5EFD9" stroke-width="3.85892"/>
<circle cx="163.083" cy="161.299" r="7.90778" fill="#0F3C6C" stroke="#F5EFD9" stroke-width="1.92946"/>
<circle cx="181.685" cy="141.852" r="7.90778" fill="#0F3C6C" stroke="#F5EFD9" stroke-width="1.92946"/>
<circle cx="200.037" cy="164.824" r="7.90778" fill="#0F3C6C" stroke="#F5EFD9" stroke-width="1.92946"/>
<circle cx="218.755" cy="136.139" r="7.90778" fill="#0F3C6C" stroke="#F5EFD9" stroke-width="1.92946"/>
<path d="M172.039 197.152L186.109 194.584C189.456 193.974 192.886 193.983 196.23 194.611L209.743 197.152" stroke="#F5EFD9" stroke-width="5.78839"/>
<path d="M191.164 179.292L191.164 188.222L191.164 197.152" stroke="#F5EFD9" stroke-width="5.78839"/>
<path d="M353.572 147.026H346.844C345.505 147.026 344.221 146.495 343.275 145.548C342.329 144.602 341.797 143.318 341.797 141.98V135.251C341.797 133.912 342.329 132.629 343.275 131.682C344.221 130.736 345.505 130.204 346.844 130.204H353.572C354.911 130.204 356.195 130.736 357.141 131.682C358.087 132.629 358.619 133.912 358.619 135.251V141.98C358.619 143.318 358.087 144.602 357.141 145.548C356.195 146.495 354.911 147.026 353.572 147.026ZM346.844 133.569C346.397 133.569 345.97 133.746 345.654 134.061C345.339 134.377 345.161 134.805 345.161 135.251V141.98C345.161 142.426 345.339 142.854 345.654 143.169C345.97 143.485 346.397 143.662 346.844 143.662H353.572C354.019 143.662 354.446 143.485 354.762 143.169C355.077 142.854 355.255 142.426 355.255 141.98V135.251C355.255 134.805 355.077 134.377 354.762 134.061C354.446 133.746 354.019 133.569 353.572 133.569H346.844Z" fill="#F5EFD9"/>
<path d="M378.581 147.026H372.088V130.204H378.581C379.027 130.204 379.455 130.027 379.771 129.711C380.086 129.396 380.263 128.968 380.263 128.522C380.263 128.076 380.086 127.648 379.771 127.332C379.455 127.017 379.027 126.84 378.581 126.84H372.088V125.157C372.082 122.928 371.193 120.793 369.617 119.217C368.041 117.641 365.905 116.752 363.677 116.746H361.994V110.236C361.987 109.792 361.808 109.368 361.494 109.054C361.18 108.74 360.756 108.561 360.312 108.554C359.866 108.554 359.438 108.731 359.123 109.046C358.807 109.362 358.63 109.79 358.63 110.236V116.746H341.808V110.236C341.801 109.792 341.621 109.368 341.307 109.054C340.993 108.74 340.569 108.561 340.125 108.554C339.679 108.554 339.251 108.731 338.936 109.046C338.62 109.362 338.443 109.79 338.443 110.236V116.746H336.761C334.53 116.746 332.391 117.632 330.813 119.21C329.236 120.787 328.35 122.927 328.35 125.157V126.84H321.823C321.377 126.84 320.949 127.017 320.633 127.332C320.318 127.648 320.141 128.076 320.141 128.522C320.141 128.968 320.318 129.396 320.633 129.711C320.949 130.027 321.377 130.204 321.823 130.204H328.35V147.026H321.823C321.377 147.026 320.949 147.203 320.633 147.519C320.318 147.834 320.141 148.262 320.141 148.708C320.141 149.155 320.318 149.582 320.633 149.898C320.949 150.213 321.377 150.391 321.823 150.391H328.35V152.073C328.35 154.304 329.236 156.443 330.813 158.02C332.391 159.598 334.53 160.484 336.761 160.484H338.443V167.011C338.443 167.457 338.62 167.885 338.936 168.201C339.251 168.516 339.679 168.693 340.125 168.693C340.572 168.693 341 168.516 341.315 168.201C341.63 167.885 341.808 167.457 341.808 167.011V160.484H358.63V167.011C358.63 167.457 358.807 167.885 359.123 168.201C359.438 168.516 359.866 168.693 360.312 168.693C360.758 168.693 361.186 168.516 361.502 168.201C361.817 167.885 361.994 167.457 361.994 167.011V160.484H363.677C365.905 160.478 368.041 159.59 369.617 158.014C371.193 156.438 372.082 154.302 372.088 152.073V150.391H378.581C379.027 150.391 379.455 150.213 379.771 149.898C380.086 149.582 380.263 149.155 380.263 148.708C380.263 148.262 380.086 147.834 379.771 147.519C379.455 147.203 379.027 147.026 378.581 147.026ZM368.723 152.073C368.723 153.411 368.192 154.695 367.245 155.641C366.299 156.588 365.015 157.12 363.677 157.12H336.761C335.423 157.12 334.139 156.588 333.192 155.641C332.246 154.695 331.714 153.411 331.714 152.073V125.157C331.714 123.819 332.246 122.535 333.192 121.589C334.139 120.642 335.423 120.111 336.761 120.111H363.677C365.012 120.12 366.29 120.655 367.234 121.599C368.179 122.544 368.714 123.822 368.723 125.157V152.073Z" fill="#F5EFD9"/>
<path d="M361.198 152.646C361.198 152.933 361.198 153.506 361.198 153.793C355.989 156.945 352.516 162.389 352.516 168.693C352.516 174.998 355.989 180.442 361.198 183.594C361.198 184.167 361.198 184.454 361.198 185.027C361.198 187.893 362.066 190.472 363.803 192.477C366.118 195.629 369.881 197.635 374.222 197.635C375.38 197.635 376.248 197.635 377.406 197.349C379.721 196.776 381.458 194.483 381.458 191.904V185.027V152.646V145.483C381.458 142.904 379.721 140.611 377.406 140.038C376.248 139.751 375.09 139.751 373.933 139.751C366.987 139.751 361.198 145.483 361.198 152.646Z" fill="#F5EFD9"/>
<path d="M416.192 169.272C416.192 162.905 412.719 157.406 407.509 154.222C407.509 153.933 407.509 153.354 407.509 152.775C407.509 145.54 401.721 139.751 394.485 139.751C393.328 139.751 392.46 139.751 391.302 140.041C388.697 140.62 387.25 142.935 387.25 145.54V152.486V184.901V191.847C387.25 194.452 388.987 196.767 391.302 197.346C392.17 197.635 393.328 197.635 394.485 197.635C401.721 197.635 407.509 191.847 407.509 184.611C407.509 184.322 407.509 183.743 407.509 183.454C413.008 181.138 416.192 175.639 416.192 169.272Z" fill="#F5EFD9"/>
<path d="M61.0184 99.6236C60.6374 99.4323 60.1734 99.586 59.982 99.967C59.7907 100.348 59.9444 100.812 60.3254 101.003L61.0184 99.6236ZM131.203 135.742L126.306 128.294L122.304 136.259L131.203 135.742ZM60.3254 101.003L124.648 133.313L125.341 131.933L61.0184 99.6236L60.3254 101.003Z" fill="#F5EFD9"/>
<path d="M433.292 137.207C432.911 137.399 432.447 137.245 432.255 136.864C432.064 136.483 432.218 136.019 432.599 135.828L433.292 137.207ZM503.477 101.089L498.579 108.537L494.578 100.572L503.477 101.089ZM432.599 135.828L496.922 103.518L497.615 104.898L433.292 137.207L432.599 135.828Z" fill="#F5EFD9"/>
<path d="M61.0184 203.442C60.6374 203.634 60.1734 203.48 59.982 203.099C59.7907 202.718 59.9444 202.254 60.3254 202.063L61.0184 203.442ZM131.203 167.324L126.306 174.772L122.304 166.807L131.203 167.324ZM60.3254 202.063L124.648 169.753L125.341 171.133L61.0184 203.442L60.3254 202.063Z" fill="#F5EFD9"/>
<path d="M433.292 166.635C432.911 166.443 432.447 166.597 432.255 166.978C432.064 167.359 432.218 167.823 432.599 168.015L433.292 166.635ZM503.477 202.753L498.579 195.305L494.578 203.271L503.477 202.753ZM432.599 168.015L496.922 200.324L497.615 198.944L433.292 166.635L432.599 168.015Z" fill="#F5EFD9"/>
<path d="M248.344 149.952C247.917 149.952 247.572 150.297 247.572 150.724C247.572 151.15 247.917 151.496 248.344 151.496V149.952ZM307.458 150.724L299.738 146.267V155.181L307.458 150.724ZM248.344 151.496H300.51V149.952H248.344V151.496Z" fill="#F5EFD9"/>
</svg>
