<svg width="531" height="201" viewBox="0 0 531 201" fill="none" xmlns="http://www.w3.org/2000/svg">
<path d="M452.283 23.6501C452.322 23.8265 452.342 24.0223 452.342 24.2574V26.138C452.342 26.3731 452.322 26.5886 452.283 26.7453C452.244 26.9216 452.185 27 452.146 27H450.304C449.227 27 448.404 26.8825 447.836 26.6474C447.248 26.4123 446.817 26.0597 446.504 25.5895C446.191 25.1194 445.877 24.4141 445.544 23.4542L445.603 23.3955C444.584 23.9832 443.624 24.6492 442.762 25.374C441.881 26.0989 441.234 26.7649 440.843 27.3526C440.803 27.7444 440.784 28.1166 440.784 28.4692C440.784 29.6838 441.097 30.5458 441.744 31.0943C442.39 31.6428 443.409 31.917 444.819 31.917H449.501L448.776 35.5999H444.623C442.508 35.5999 440.882 35.0122 439.746 33.8368C438.59 32.6615 438.022 31.0159 438.022 28.9198C438.022 27.2938 438.531 25.7854 439.589 24.4141C440.627 23.0429 442.116 21.8283 444.055 20.7704C444.565 20.4962 444.917 20.3199 445.133 20.2415C444.682 20.0848 444.271 19.9673 443.918 19.8693C442.664 19.5363 441.861 19.36 441.528 19.36C441.117 19.36 440.843 19.4775 440.705 19.693C440.568 19.9085 440.47 20.2023 440.412 20.555L438.276 20.2219C438.668 17.6948 439.667 16.4215 441.313 16.4215C441.783 16.4215 442.273 16.4999 442.821 16.6174C443.35 16.7545 443.997 16.9504 444.741 17.2051C446.034 17.6557 447.111 17.9887 448.012 18.2042C448.914 18.4393 449.873 18.5372 450.931 18.5372L450.207 21.7303C449.384 21.8087 448.502 22.0242 447.581 22.416C447.797 22.8078 448.012 23.0624 448.248 23.1996C448.463 23.3367 448.855 23.3955 449.403 23.3955H452.146C452.185 23.3955 452.244 23.4934 452.283 23.6501ZM444.761 26.7257L446.974 28.5868L445.113 30.7808L442.919 28.9394L444.761 26.7257ZM451.982 26.7453C451.943 26.5886 451.923 26.3731 451.923 26.138V24.2574C451.923 24.0223 451.943 23.8265 451.982 23.6501C452.021 23.4934 452.061 23.3955 452.139 23.3955C453.04 23.3955 453.745 23.3759 454.255 23.2975C454.744 23.2388 455.136 23.1408 455.45 23.0037L454.921 18.7919L457.663 18.3021C457.742 19.2424 457.82 20.0652 457.859 20.7313C457.898 21.4169 457.918 22.2984 457.918 23.3563C457.918 24.5317 457.467 25.4132 456.566 26.0009C455.626 26.667 454.137 27 452.139 27C452.08 27 452.021 26.9216 451.982 26.7453ZM458.682 31.0747L456.782 33.2883L454.588 31.4273L456.449 29.2136L458.682 31.0747ZM454.764 31.1922L452.883 33.445L450.67 31.584L452.531 29.3312L454.764 31.1922ZM466.049 23.6501C466.089 23.8265 466.108 24.0223 466.108 24.2574V26.138C466.108 26.3731 466.089 26.5886 466.049 26.7453C466.01 26.9216 465.952 27 465.912 27H465.266C464.247 27 463.444 26.8629 462.817 26.569C462.19 26.2752 461.701 25.7463 461.368 25.0018C461.034 24.2574 460.858 23.1996 460.839 21.8675L460.741 12.2685L463.483 11.7591V21.8479C463.483 22.8861 463.914 23.3955 464.796 23.3955H465.912C465.952 23.3955 466.01 23.4934 466.049 23.6501ZM469.615 15.2853L471.496 13.0716L473.71 14.9327L471.849 17.1463L469.615 15.2853ZM467.931 17.303L465.697 15.4224L467.578 13.2088L469.792 15.0698L467.931 17.303ZM474.552 23.6501C474.591 23.8265 474.611 24.0223 474.611 24.2574V26.138C474.611 26.3731 474.591 26.5886 474.552 26.7453C474.513 26.9216 474.454 27 474.415 27C473.083 27 472.123 26.9021 471.535 26.6866C470.928 26.4907 470.517 26.1185 470.321 25.5895C470.125 25.9617 469.851 26.2556 469.537 26.4515C469.204 26.6474 468.753 26.8041 468.185 26.8825C467.617 26.9608 466.853 27 465.913 27C465.854 27 465.795 26.9216 465.756 26.7453C465.717 26.5886 465.697 26.3731 465.697 26.138V24.2574C465.697 24.0223 465.717 23.8265 465.756 23.6501C465.795 23.4934 465.835 23.3955 465.913 23.3955C466.775 23.3955 467.441 23.3759 467.911 23.3367C468.381 23.2975 468.793 23.18 469.106 23.0037L468.636 19.4775L471.379 19.1837L471.574 23.18C471.77 23.2779 472.084 23.3367 472.476 23.3563C472.867 23.3955 473.514 23.3955 474.415 23.3955C474.454 23.3955 474.513 23.4934 474.552 23.6501ZM477.972 15.9122L475.504 13.8552L477.561 11.4065L480.01 13.4634L477.972 15.9122ZM480.127 20.7313C480.166 21.4169 480.186 22.2984 480.186 23.3563C480.186 24.5317 479.735 25.4132 478.834 26.0009C477.894 26.667 476.405 27 474.407 27C474.348 27 474.289 26.9216 474.25 26.7453C474.211 26.5886 474.191 26.3731 474.191 26.138V24.2574C474.191 24.0223 474.211 23.8265 474.25 23.6501C474.289 23.4934 474.329 23.3955 474.407 23.3955C475.308 23.3955 476.013 23.3759 476.523 23.2975C477.012 23.2388 477.404 23.1408 477.718 23.0037L477.189 18.7919L479.931 18.3021C480.01 19.2424 480.088 20.0652 480.127 20.7313Z" fill="#E06B45"/>
<rect x="467.924" y="62.5089" width="38.1751" height="25.6814" rx="5.2057" stroke="#F5EFD9" stroke-width="2.08228"/>
<rect x="417.244" y="62.5089" width="38.1751" height="25.6814" rx="5.2057" stroke="#F5EFD9" stroke-width="2.08228"/>
<rect x="424.188" y="98.6024" width="24.2933" height="24.2933" rx="12.1466" stroke="#F5EFD9" stroke-width="3.47047"/>
<rect x="474.868" y="98.6024" width="24.2933" height="24.2933" rx="12.1466" stroke="#F5EFD9" stroke-width="3.47047"/>
<path d="M434.741 133.134C435.142 132.44 436.144 132.44 436.545 133.134L450.971 158.122C451.372 158.816 450.871 159.683 450.07 159.683H421.217C420.415 159.683 419.914 158.816 420.315 158.122L434.741 133.134Z" stroke="#F5EFD9" stroke-width="2.08228"/>
<path d="M486.101 133.134C486.502 132.44 487.503 132.44 487.904 133.134L502.331 158.122C502.731 158.816 502.23 159.683 501.429 159.683H472.576C471.775 159.683 471.274 158.816 471.674 158.122L486.101 133.134Z" stroke="#F5EFD9" stroke-width="2.08228"/>
<path d="M423.726 183.629C424.098 184.274 424.098 185.067 423.726 185.712L417.574 196.367C417.202 197.011 416.514 197.408 415.77 197.408L403.467 197.408C402.723 197.408 402.035 197.011 401.663 196.367L395.511 185.712C395.139 185.067 395.139 184.274 395.511 183.629L401.663 172.974C402.035 172.33 402.723 171.933 403.467 171.933L415.77 171.933C416.514 171.933 417.202 172.33 417.574 172.974L423.726 183.629Z" stroke="#F5EFD9" stroke-width="2.77637"/>
<path d="M475.78 183.629C476.152 184.274 476.152 185.067 475.78 185.712L469.628 196.367C469.256 197.011 468.569 197.408 467.825 197.408L455.521 197.408C454.777 197.408 454.09 197.011 453.718 196.367L447.566 185.712C447.194 185.067 447.194 184.274 447.566 183.629L453.718 172.974C454.09 172.33 454.777 171.933 455.521 171.933L467.825 171.933C468.569 171.933 469.256 172.33 469.628 172.974L475.78 183.629Z" stroke="#F5EFD9" stroke-width="2.77637"/>
<path d="M527.835 183.629C528.207 184.274 528.207 185.067 527.835 185.712L521.683 196.367C521.311 197.011 520.624 197.408 519.88 197.408L507.576 197.408C506.832 197.408 506.145 197.011 505.773 196.367L499.621 185.712C499.249 185.067 499.249 184.274 499.621 183.629L505.773 172.974C506.145 172.33 506.832 171.933 507.576 171.933L519.88 171.933C520.624 171.933 521.311 172.33 521.683 172.974L527.835 183.629Z" stroke="#F5EFD9" stroke-width="2.77637"/>
<path d="M20.5496 23.6501C20.5888 23.8265 20.6083 24.0223 20.6083 24.2574V26.138C20.6083 26.3731 20.5888 26.5886 20.5496 26.7453C20.5104 26.9216 20.4516 27 20.4124 27C19.4917 27 18.7277 26.8825 18.1008 26.6474C17.474 26.4123 17.0822 26.0597 16.9255 25.6091C16.8079 25.8442 16.6316 26.0205 16.4161 26.1576C16.2006 26.2948 15.8872 26.4123 15.4758 26.5298C14.9273 26.6866 14.2221 26.8237 13.3601 26.9216C12.4982 27.0392 11.6166 27.0784 10.7155 27.0784C9.20707 27.0784 7.95332 26.9804 6.93465 26.7453C5.91598 26.5103 5.13239 26.0989 4.56429 25.472C3.99618 24.8451 3.72192 23.9832 3.72192 22.847C3.72192 22.5139 3.7611 22.0634 3.85905 21.5149L4.36839 18.4784L6.54286 18.9094L6.09229 21.6324C6.03352 21.8283 6.01393 22.0046 6.01393 22.1221C6.01393 22.5139 6.13147 22.7882 6.40573 22.9841C6.67999 23.18 7.13055 23.2975 7.7966 23.3759C8.44307 23.4542 9.42256 23.4738 10.7155 23.4738C12.8508 23.4738 14.653 23.3171 16.1223 22.9841L15.7697 20.1436L18.4339 19.8497L18.5906 23.1604C19.0999 23.3171 19.7072 23.3955 20.4124 23.3955C20.4516 23.3955 20.5104 23.4934 20.5496 23.6501ZM10.5392 29.3312L13.0075 31.3881L10.9506 33.8368L8.50184 31.7799L10.5392 29.3312ZM37.5237 23.6501C37.5629 23.8265 37.5825 24.0223 37.5825 24.2574V26.138C37.5825 26.3731 37.5629 26.5886 37.5237 26.7453C37.4845 26.9216 37.4257 27 37.3866 27H37.1515C36.6226 27 36.1132 26.8825 35.6235 26.6474C35.1337 26.4123 34.7615 26.0793 34.5264 25.6483C34.213 26.0989 33.8016 26.4319 33.3119 26.667C32.8025 26.9021 32.2736 27 31.7055 27C31.0003 27 30.393 26.9021 29.9228 26.7062C29.4331 26.5103 29.0805 26.1576 28.865 25.6483C28.5907 26.1576 28.1793 26.5103 27.67 26.7062C27.1607 26.9021 26.6317 27 26.1028 27C25.045 27 24.281 26.5886 23.85 25.7267C23.4974 26.2164 23.0468 26.5494 22.4787 26.7257C21.9106 26.9216 21.225 27 20.4218 27C20.363 27 20.3042 26.9216 20.2651 26.7453C20.2259 26.5886 20.2063 26.3731 20.2063 26.138V24.2574C20.2063 24.0223 20.2259 23.8265 20.2651 23.6501C20.3042 23.4934 20.3434 23.3955 20.4218 23.3955C21.3033 23.3955 22.1065 23.2779 22.8117 23.0429V20.4178H25.2996V22.416C25.2996 22.7294 25.3192 22.9449 25.3976 23.082C25.4759 23.2192 25.5739 23.2975 25.711 23.3367C25.8286 23.3759 26.0441 23.3955 26.3183 23.3955C26.7493 23.3955 27.2194 23.3171 27.7288 23.1408L27.6504 19.7322L30.1187 19.6146L30.1971 23.2975C30.3538 23.3759 30.6477 23.3955 31.059 23.3955C31.6859 23.3955 32.2344 23.2975 32.7046 23.1016L32.1953 18.7919L34.8595 18.2825L35.2121 22.2201C35.2317 22.5335 35.2904 22.749 35.3884 22.9057C35.4668 23.0624 35.6431 23.1996 35.9173 23.2779C36.1916 23.3563 36.5834 23.3955 37.1319 23.3955H37.3866C37.4257 23.3955 37.4845 23.4934 37.5237 23.6501ZM48.6156 19.262C49.458 19.4775 50.3396 19.5755 51.2799 19.5755L50.555 22.9645C49.7323 23.0624 48.9879 23.2388 48.361 23.513C47.7145 23.7873 46.9505 24.1595 46.069 24.6688C45.9514 24.7472 45.7164 24.8843 45.3637 25.0802C44.9915 25.2761 44.6389 25.4524 44.2863 25.6091C43.3852 26.0401 42.4057 26.3927 41.3478 26.6278C40.29 26.8825 39.0362 27 37.6258 27H37.3907C37.3319 27 37.2731 26.9216 37.234 26.7453C37.1948 26.5886 37.1752 26.3731 37.1752 26.138V24.2574C37.1752 24.0223 37.1948 23.8265 37.234 23.6501C37.2731 23.4934 37.3123 23.3955 37.3907 23.3955H37.6258C39.1929 23.3955 40.7993 23.1996 42.484 22.7882C43.0913 22.6707 43.8749 22.3964 44.8544 21.985C45.4617 21.7499 45.8339 21.6128 45.971 21.5736L46.3432 21.4953C46.0494 21.4365 45.5009 21.2406 44.6781 20.9272C43.3068 20.4374 42.3861 20.1827 41.9159 20.1827C41.5045 20.1827 41.2303 20.3003 41.0932 20.5158C40.9364 20.7509 40.8385 21.0251 40.7797 21.3777L38.6836 21.0447C39.0362 18.5176 40.0549 17.2443 41.7004 17.2443C42.2294 17.2443 42.7779 17.3422 43.3264 17.4989C43.8749 17.6557 44.6781 17.9299 45.7359 18.3217C46.8134 18.7331 47.7733 19.0465 48.6156 19.262ZM45.6576 29.2136L47.7733 30.9963L45.9906 33.1316L43.8749 31.3293L45.6576 29.2136ZM42.249 33.2296L40.1333 31.4665L41.9159 29.3312L44.0316 31.0943L42.249 33.2296ZM43.8553 32.6419L45.9906 34.4441L44.2275 36.5598L42.1118 34.7576L43.8553 32.6419ZM59.9624 23.6501C60.0016 23.8265 60.0212 24.0223 60.0212 24.2574V26.138C60.0212 26.3731 60.0016 26.5886 59.9624 26.7453C59.9233 26.9216 59.8645 27 59.8253 27H59.4923C58.7283 27 58.1406 26.7257 57.7096 26.1576C57.6117 27.6269 57.1023 28.9198 56.162 30.056C55.2217 31.1922 53.6741 32.2892 51.5192 33.3667L49.619 30.6045C51.4213 29.7622 52.7142 29.0178 53.5174 28.3713C54.301 27.7444 54.8887 27.0588 55.2609 26.3339L54.4773 20.2219L57.259 19.6342L57.5529 22.0242C57.5921 22.4748 57.69 22.7882 57.8467 22.9841C58.0034 23.18 58.1993 23.2975 58.4736 23.3367C58.7283 23.3759 59.1397 23.3955 59.6882 23.3955H59.8253C59.8645 23.3955 59.9233 23.4934 59.9624 23.6501ZM65.5512 20.7313C65.5904 21.4169 65.61 22.2984 65.61 23.3563C65.61 24.5317 65.1594 25.4132 64.2583 26.0009C63.3179 26.667 61.8291 27 59.831 27C59.7722 27 59.7134 26.9216 59.6742 26.7453C59.6351 26.5886 59.6155 26.3731 59.6155 26.138V24.2574C59.6155 24.0223 59.6351 23.8265 59.6742 23.6501C59.7134 23.4934 59.7526 23.3955 59.831 23.3955C60.7321 23.3955 61.4373 23.3759 61.9467 23.2975C62.4364 23.2388 62.8282 23.1408 63.1416 23.0037L62.6127 18.7919L65.3553 18.3021C65.4336 19.2424 65.512 20.0652 65.5512 20.7313ZM61.3394 29.3312L63.8077 31.3881L61.7508 33.8368L59.302 31.7799L61.3394 29.3312ZM84.3396 23.6501C84.3788 23.8265 84.3984 24.0223 84.3984 24.2574V26.138C84.3984 26.3731 84.3788 26.5886 84.3396 26.7453C84.3005 26.9216 84.2417 27 84.2025 27H81.3816C81.3816 27.0784 81.4012 27.1763 81.4012 27.3134C81.4012 28.3321 81.0877 29.2136 80.5 29.9581C79.9124 30.7221 79.0504 31.3098 77.9534 31.7211C76.8563 32.1521 75.5438 32.348 74.055 32.348C72.096 32.348 70.7247 31.9954 69.9411 31.2706C69.1575 30.5653 68.7853 29.4879 68.7853 28.0578C68.7853 27.3134 69.1184 25.0998 69.804 21.4365L71.9981 21.9066C71.8022 22.9841 71.6259 24.0615 71.4691 25.1194C71.3124 26.1968 71.2145 26.9804 71.2145 27.4897C71.2145 27.9991 71.5279 28.3321 72.1548 28.4888C72.7817 28.6651 73.5653 28.7435 74.486 28.7435C75.5242 28.7435 76.4058 28.6651 77.1502 28.5084C77.875 28.3517 78.4823 28.097 78.9916 27.7444C78.9916 27.431 78.7566 27.2155 78.2864 27.1371C77.8162 27.0588 77.0327 27 75.9748 27L76.5625 23.3955H84.2025C84.2417 23.3955 84.3005 23.4934 84.3396 23.6501ZM89.9237 20.7313C89.9628 21.4169 89.9824 22.2984 89.9824 23.3563C89.9824 24.5317 89.5319 25.4132 88.6307 26.0009C87.6904 26.667 86.2016 27 84.2034 27C84.1447 27 84.0859 26.9216 84.0467 26.7453C84.0075 26.5886 83.9879 26.3731 83.9879 26.138V24.2574C83.9879 24.0223 84.0075 23.8265 84.0467 23.6501C84.0859 23.4934 84.1251 23.3955 84.2034 23.3955C85.1046 23.3955 85.8098 23.3759 86.3191 23.2975C86.8089 23.2388 87.2007 23.1408 87.5141 23.0037L86.9852 18.7919L89.7278 18.3021C89.8061 19.2424 89.8845 20.0652 89.9237 20.7313ZM85.7119 29.3312L88.1802 31.3881L86.1232 33.8368L83.6745 31.7799L85.7119 29.3312ZM97.2985 31.0551C96.5149 30.3303 96.1231 29.2528 96.1231 27.8228C96.1231 27.0784 96.4561 24.8647 97.1417 21.2014L99.3358 21.6716C99.1399 22.7686 98.9636 23.846 98.8069 24.9039C98.6502 25.9813 98.5522 26.7649 98.5522 27.2547C98.5522 28.1166 99.6297 28.528 101.824 28.528C102.862 28.528 103.744 28.4496 104.488 28.2929C105.213 28.1362 105.82 27.8815 106.329 27.5289C106.329 27.2938 106.31 27.1371 106.271 27.0196C106.231 26.9021 106.133 26.8433 105.996 26.8041C104.938 26.6866 104.155 26.569 103.626 26.4319C103.077 26.3144 102.666 26.0989 102.372 25.805C102.078 25.5308 101.941 25.0998 101.941 24.5513C101.941 23.4934 102.157 22.3964 102.607 21.2602C103.038 20.124 103.626 19.1837 104.331 18.4393C105.036 17.6948 105.761 17.303 106.486 17.303C107.074 17.303 107.603 17.4989 108.092 17.8711C108.563 18.2434 109.092 18.9094 109.679 19.8497L108.151 21.4561C107.544 20.8684 106.995 20.555 106.486 20.555C105.996 20.555 105.585 20.8096 105.232 21.2994C104.88 21.8087 104.605 22.4552 104.449 23.2583C105.487 23.3955 106.29 23.5522 106.839 23.7285C107.387 23.9048 107.857 24.2574 108.21 24.7668C108.563 25.2761 108.739 26.0597 108.739 27.0784C108.739 28.097 108.445 28.959 107.897 29.6838C107.289 30.4674 106.427 31.0551 105.311 31.4861C104.194 31.917 102.882 32.1325 101.393 32.1325C99.4338 32.1325 98.0821 31.7799 97.2985 31.0551ZM117.302 23.6501C117.341 23.8265 117.361 24.0223 117.361 24.2574V26.138C117.361 26.3731 117.341 26.5886 117.302 26.7453C117.263 26.9216 117.204 27 117.165 27H116.519C115.5 27 114.697 26.8629 114.07 26.569C113.443 26.2752 112.953 25.7463 112.62 25.0018C112.287 24.2574 112.111 23.1996 112.091 21.8675L111.993 12.2685L114.736 11.7591V21.8479C114.736 22.8861 115.167 23.3955 116.048 23.3955H117.165C117.204 23.3955 117.263 23.4934 117.302 23.6501ZM129.253 22.847C129.253 23.5914 129.076 24.4729 128.724 25.4916C128.645 25.6875 128.508 25.8834 128.351 26.0793C128.175 26.2752 127.94 26.4711 127.646 26.7062C127.254 27.0196 126.902 27.1763 126.627 27.1763C126.49 27.1763 126.353 27.1567 126.196 27.0784L123.317 25.9813C123.043 26.3144 122.376 26.569 121.358 26.7453C120.339 26.9216 118.929 27 117.166 27C117.107 27 117.048 26.9216 117.009 26.7453C116.97 26.5886 116.95 26.3731 116.95 26.138V24.2574C116.95 24.0223 116.97 23.8265 117.009 23.6501C117.048 23.4934 117.087 23.3955 117.166 23.3955H118.086C118.792 23.3955 119.281 23.4151 119.575 23.4347C119.301 23.2779 119.105 23.0429 118.948 22.7294C118.792 22.4356 118.713 22.1221 118.713 21.7891C118.713 21.0447 119.085 20.1632 119.869 19.1445L119.085 18.7527L120.339 15.9905L126.373 18.7135C128.293 19.5951 129.253 20.9663 129.253 22.847ZM123.532 20.79L121.965 20.0652C121.573 20.457 121.299 20.7704 121.181 20.9663C121.044 21.1818 120.986 21.3777 120.986 21.5344C120.986 21.7695 121.162 22.0046 121.554 22.2201C121.926 22.4552 122.357 22.5727 122.827 22.5923L123.532 20.79ZM126.96 23.6501C127 23.4738 127.039 23.3171 127.039 23.18C127.039 22.8666 126.882 22.5531 126.588 22.2593C126.294 21.985 125.863 21.7303 125.315 21.5149L124.571 23.3171L126.745 24.1399C126.823 24.0028 126.902 23.846 126.96 23.6501ZM133.182 26.3731C132.555 25.805 132.261 25.041 132.261 24.0811C132.261 23.3759 132.378 22.7098 132.653 22.1221C132.927 21.5344 133.417 20.79 134.142 19.8889L133.28 19.262L135.003 16.7545C136.649 17.8124 137.864 18.9486 138.667 20.124C139.47 21.319 139.921 22.7686 140.018 24.4729C140.018 24.708 139.979 24.9235 139.901 25.1194C139.823 25.3153 139.627 25.5895 139.352 25.9422C139.078 26.2752 138.882 26.5103 138.765 26.6278C138.647 26.7453 138.53 26.8433 138.412 26.8825C137.589 27.1175 136.688 27.2351 135.728 27.2351C134.651 27.2351 133.809 26.9608 133.182 26.3731ZM137.668 23.5718C137.354 22.4943 136.786 21.6912 135.963 21.1426C135.65 21.4365 135.376 21.7695 135.141 22.1613C134.886 22.5531 134.768 22.847 134.768 23.082C134.768 23.3171 134.847 23.4738 135.003 23.5522C135.16 23.6306 135.474 23.6501 135.905 23.6501C136.727 23.6501 137.315 23.6306 137.668 23.5718ZM150.765 19.9673C151.47 21.2798 151.822 22.5531 151.822 23.7677C151.822 24.708 151.548 25.4524 151 26.0009C150.138 26.9021 148.61 27.333 146.416 27.333C145.456 27.333 144.692 27.2351 144.124 27.0196C143.536 26.8237 143.105 26.4711 142.831 25.9617C142.556 25.472 142.419 24.7864 142.419 23.9048C142.419 23.4542 142.439 23.0429 142.517 22.6511L144.731 22.8274L144.692 23.1604C144.692 23.3563 144.731 23.4738 144.829 23.5522C144.927 23.6306 145.084 23.6893 145.319 23.7089C145.554 23.7285 145.945 23.7285 146.514 23.7285C146.827 23.7285 147.278 23.7089 147.865 23.6501C148.453 23.611 148.943 23.5326 149.354 23.4542C149.217 22.7882 148.864 22.0634 148.296 21.2602C147.728 20.457 146.945 19.5755 145.926 18.596L147.748 16.1472C149.041 17.401 150.059 18.6743 150.765 19.9673ZM157.147 11.7591V27L154.698 27.333L154.424 12.2685L157.147 11.7591ZM168.69 19.9673C169.395 21.2798 169.748 22.5531 169.748 23.7677C169.748 24.708 169.474 25.4524 168.925 26.0009C168.063 26.9021 166.535 27.333 164.341 27.333C163.381 27.333 162.617 27.2351 162.049 27.0196C161.461 26.8237 161.03 26.4711 160.756 25.9617C160.482 25.472 160.345 24.7864 160.345 23.9048C160.345 23.4542 160.364 23.0429 160.443 22.6511L162.656 22.8274L162.617 23.1604C162.617 23.3563 162.656 23.4738 162.754 23.5522C162.852 23.6306 163.009 23.6893 163.244 23.7089C163.479 23.7285 163.871 23.7285 164.439 23.7285C164.752 23.7285 165.203 23.7089 165.791 23.6501C166.378 23.611 166.868 23.5326 167.28 23.4542C167.142 22.7882 166.79 22.0634 166.222 21.2602C165.654 20.457 164.87 19.5755 163.851 18.596L165.673 16.1472C166.966 17.401 167.985 18.6743 168.69 19.9673Z" fill="#E06B45"/>
<rect x="13.2052" y="64.5919" width="38.1751" height="25.6814" rx="5.2057" stroke="#F5EFD9" stroke-width="2.08228"/>
<rect x="63.8615" y="143.719" width="38.1751" height="25.6814" rx="5.2057" stroke="#F5EFD9" stroke-width="2.08228"/>
<rect x="70.8055" y="65.286" width="24.2933" height="24.2933" rx="12.1466" stroke="#F5EFD9" stroke-width="3.47047"/>
<rect x="70.8055" y="104.849" width="24.2933" height="24.2933" rx="12.1466" stroke="#F5EFD9" stroke-width="3.47047"/>
<path d="M31.3899 101.205C31.7906 100.51 32.7925 100.51 33.1932 101.205L47.6197 126.192C48.0204 126.886 47.5195 127.754 46.718 127.754H17.8651C17.0636 127.754 16.5627 126.886 16.9634 126.192L31.3899 101.205Z" stroke="#F5EFD9" stroke-width="2.08228"/>
<path d="M138.273 101.205C138.673 100.51 139.675 100.51 140.076 101.205L154.502 126.192C154.903 126.886 154.402 127.754 153.601 127.754H124.748C123.946 127.754 123.446 126.886 123.846 126.192L138.273 101.205Z" stroke="#F5EFD9" stroke-width="2.08228"/>
<path d="M153.624 76.7378C153.996 77.3821 153.996 78.1758 153.624 78.8201L147.472 89.4755C147.1 90.1198 146.413 90.5167 145.669 90.5167L133.365 90.5167C132.621 90.5167 131.934 90.1198 131.562 89.4755L125.41 78.8201C125.038 78.1758 125.038 77.3821 125.41 76.7378L131.562 66.0824C131.934 65.4381 132.621 65.0412 133.365 65.0412L145.669 65.0412C146.413 65.0412 147.1 65.4381 147.472 66.0824L153.624 76.7378Z" stroke="#F5EFD9" stroke-width="2.77637"/>
<path d="M46.7413 156.559C47.1132 157.203 47.1132 157.997 46.7413 158.641L40.5894 169.297C40.2174 169.941 39.53 170.338 38.786 170.338L26.4822 170.338C25.7383 170.338 25.0509 169.941 24.6789 169.297L18.527 158.641C18.155 157.997 18.155 157.203 18.527 156.559L24.6789 145.904C25.0509 145.259 25.7383 144.863 26.4822 144.863L38.786 144.863C39.53 144.863 40.2174 145.259 40.5894 145.904L46.7413 156.559Z" stroke="#F5EFD9" stroke-width="2.77637"/>
<path d="M153.624 155.865C153.996 156.509 153.996 157.303 153.624 157.947L147.472 168.602C147.1 169.247 146.413 169.644 145.669 169.644L133.365 169.644C132.621 169.644 131.934 169.247 131.562 168.602L125.41 157.947C125.038 157.303 125.038 156.509 125.41 155.865L131.562 145.209C131.934 144.565 132.621 144.168 133.365 144.168L145.669 144.168C146.413 144.168 147.1 144.565 147.472 145.209L153.624 155.865Z" stroke="#F5EFD9" stroke-width="2.77637"/>
<path d="M270.882 19.3992L268.414 17.3422L270.471 14.9131L272.92 16.97L270.882 19.3992ZM279.541 23.6501C279.58 23.8265 279.6 24.0223 279.6 24.2574V26.138C279.6 26.3731 279.58 26.5886 279.541 26.7453C279.502 26.9216 279.443 27 279.404 27H279.169C278.562 27 278.033 26.9021 277.602 26.7062C277.171 26.5103 276.838 26.1772 276.603 25.6679C276.661 26.6866 276.701 27.5093 276.701 28.1362C276.701 28.959 276.328 29.6446 275.604 30.1735C274.859 30.7221 273.997 31.1139 272.998 31.3489C271.979 31.584 271.078 31.7016 270.256 31.7016C268.375 31.7016 267.043 31.3489 266.22 30.6045C265.397 29.8601 264.986 28.8023 264.986 27.3918C264.986 26.667 265.319 24.4533 266.005 20.7704L268.199 21.2406C268.003 22.3376 267.826 23.4151 267.67 24.4729C267.513 25.5504 267.415 26.3339 267.415 26.8237C267.415 27.3134 267.709 27.6465 268.316 27.8228C268.904 28.0187 269.57 28.097 270.275 28.097C271.94 28.097 273.253 27.8815 274.232 27.4506L273.37 20.2023L276.074 19.5755L276.328 21.8871C276.368 22.3964 276.485 22.749 276.681 22.9449C276.857 23.1408 277.112 23.2779 277.465 23.3171C277.798 23.3759 278.366 23.3955 279.169 23.3955H279.404C279.443 23.3955 279.502 23.4934 279.541 23.6501ZM288.048 23.6501C288.087 23.8265 288.107 24.0223 288.107 24.2574V26.138C288.107 26.3731 288.087 26.5886 288.048 26.7453C288.009 26.9216 287.95 27 287.911 27C286.579 27 285.619 26.9021 285.031 26.6866C284.424 26.4907 284.013 26.1185 283.817 25.5895C283.621 25.9617 283.347 26.2556 283.033 26.4515C282.7 26.6474 282.25 26.8041 281.682 26.8825C281.113 26.9608 280.349 27 279.409 27C279.35 27 279.292 26.9216 279.252 26.7453C279.213 26.5886 279.194 26.3731 279.194 26.138V24.2574C279.194 24.0223 279.213 23.8265 279.252 23.6501C279.292 23.4934 279.331 23.3955 279.409 23.3955C280.271 23.3955 280.937 23.3759 281.407 23.3367C281.877 23.2975 282.289 23.18 282.602 23.0037L282.132 19.4775L284.875 19.1837L285.071 23.18C285.267 23.2779 285.58 23.3367 285.972 23.3563C286.364 23.3955 287.01 23.3955 287.911 23.3955C287.95 23.3955 288.009 23.4934 288.048 23.6501ZM284.503 29.2136L286.736 31.0747L284.855 33.2883L282.641 31.4273L284.503 29.2136ZM282.818 31.1922L280.957 33.445L278.724 31.584L280.585 29.3312L282.818 31.1922ZM296.111 14.3646L293.996 12.5819L295.778 10.4662L297.894 12.2489L296.111 14.3646ZM297.776 13.8161L299.912 15.5987L298.109 17.7144L295.974 15.9318L297.776 13.8161ZM294.387 17.8516L292.252 16.0689L294.035 13.914L296.15 15.6967L294.387 17.8516ZM302.419 19.1445C302.576 20.8292 302.654 22.2397 302.654 23.3759C302.654 24.5709 302.321 25.472 301.655 26.0793C300.989 26.7062 300.166 27 299.187 27C298.482 27 297.874 26.9021 297.404 26.7062C296.914 26.5103 296.562 26.1576 296.346 25.6483C296.072 26.1576 295.661 26.5103 295.151 26.7062C294.642 26.9021 294.113 27 293.584 27C292.526 27 291.762 26.5886 291.331 25.7267C290.979 26.2164 290.528 26.5494 289.96 26.7257C289.392 26.9216 288.706 27 287.903 27C287.844 27 287.786 26.9216 287.746 26.7453C287.707 26.5886 287.688 26.3731 287.688 26.138V24.2574C287.688 24.0223 287.707 23.8265 287.746 23.6501C287.786 23.4934 287.825 23.3955 287.903 23.3955C288.785 23.3955 289.588 23.2779 290.293 23.0429V20.4178H292.781V22.416C292.781 22.7294 292.801 22.9449 292.879 23.082C292.957 23.2192 293.055 23.2975 293.192 23.3367C293.31 23.3759 293.525 23.3955 293.8 23.3955C294.231 23.3955 294.701 23.3171 295.21 23.1408L295.132 19.7322L297.6 19.6146L297.678 23.2975C297.835 23.3759 298.129 23.3955 298.54 23.3955C299.167 23.3955 299.716 23.2975 300.186 23.1016L299.677 18.7919L302.341 18.2825C302.36 18.6743 302.38 18.9682 302.419 19.1445ZM310.786 23.6501C310.825 23.8265 310.845 24.0223 310.845 24.2574V26.138C310.845 26.3731 310.825 26.5886 310.786 26.7453C310.747 26.9216 310.688 27 310.649 27H310.002C308.984 27 308.181 26.8629 307.554 26.569C306.927 26.2752 306.437 25.7463 306.104 25.0018C305.771 24.2574 305.595 23.1996 305.575 21.8675L305.477 12.2685L308.22 11.7591V21.8479C308.22 22.8861 308.651 23.3955 309.532 23.3955H310.649C310.688 23.3955 310.747 23.4934 310.786 23.6501ZM318.74 19.5755C319.289 20.026 319.72 20.6333 320.033 21.3973C320.327 22.1613 320.484 23.0037 320.484 23.9244C320.484 24.6492 320.386 25.3936 320.19 26.1576C320.131 26.3731 320.033 26.569 319.896 26.7257C319.759 26.8825 319.504 27.1175 319.152 27.3918C318.681 27.764 318.309 27.9403 318.035 27.9403C317.937 27.9403 317.78 27.9011 317.584 27.8228L313.843 26.2164C313.549 26.4907 313.177 26.7062 312.726 26.8237C312.256 26.9412 311.649 27 310.885 27H310.65C310.591 27 310.532 26.9216 310.493 26.7453C310.454 26.5886 310.434 26.3731 310.434 26.138V24.2574C310.434 24.0223 310.454 23.8265 310.493 23.6501C310.532 23.4934 310.571 23.3955 310.65 23.3955H311.335C311.786 23.3955 312.119 23.3759 312.334 23.3171C312.55 23.2583 312.706 23.1604 312.824 23.0037C312.942 22.8666 313.079 22.6315 313.235 22.2789C313.725 21.1035 314.254 20.2611 314.822 19.7126C315.371 19.1641 316.037 18.8898 316.801 18.8898C317.526 18.8898 318.172 19.1249 318.74 19.5755ZM318.25 24.0223C318.25 23.4347 318.094 22.9253 317.819 22.5139C317.545 22.1025 317.134 21.8871 316.585 21.8871C316.037 21.8871 315.547 22.4748 315.116 23.611L318.133 24.9431C318.211 24.6492 318.25 24.3358 318.25 24.0223Z" fill="#E06B45"/>
<path d="M268.288 178.541H262.649C261.806 178.54 260.988 178.262 260.32 177.749C259.651 177.236 259.171 176.517 258.953 175.704L255.595 163.414L244.75 169.639C244.023 170.053 243.18 170.219 242.35 170.111C241.52 170.003 240.748 169.627 240.151 169.04L236.139 165.054C235.541 164.458 235.156 163.683 235.044 162.847C234.932 162.011 235.099 161.161 235.518 160.429L241.891 149.389L241.865 149.319L229.775 146.079C228.961 145.861 228.243 145.382 227.73 144.714C227.217 144.047 226.938 143.229 226.938 142.387V136.739C226.939 135.899 227.217 135.083 227.728 134.417C228.239 133.75 228.955 133.271 229.766 133.052L242.082 129.681L235.839 118.827C235.424 118.098 235.258 117.253 235.369 116.42C235.479 115.588 235.859 114.815 236.451 114.22L240.433 110.238C241.028 109.646 241.8 109.266 242.631 109.155C243.462 109.044 244.307 109.208 245.036 109.622L256.107 115.977H256.159L259.391 103.874C259.607 103.059 260.086 102.339 260.754 101.825C261.421 101.312 262.24 101.033 263.082 101.032H268.722C269.565 101.033 270.384 101.312 271.052 101.826C271.72 102.34 272.2 103.059 272.418 103.874L275.724 116.185L286.608 109.934C287.334 109.52 288.176 109.354 289.005 109.462C289.835 109.57 290.606 109.946 291.202 110.533L295.219 114.519C295.817 115.115 296.202 115.892 296.313 116.73C296.423 117.567 296.254 118.417 295.831 119.148L289.471 130.132L289.506 130.228L301.592 133.464C302.404 133.683 303.121 134.163 303.633 134.83C304.145 135.497 304.423 136.314 304.424 137.155V142.795C304.424 143.637 304.145 144.456 303.632 145.124C303.119 145.792 302.401 146.273 301.587 146.491L289.28 149.849L295.523 160.716C295.942 161.444 296.11 162.291 295.999 163.125C295.889 163.959 295.506 164.733 294.911 165.327L290.933 169.305C290.336 169.896 289.562 170.275 288.73 170.385C287.897 170.496 287.052 170.331 286.322 169.917L275.307 163.574L275.229 163.635L271.997 175.717C271.774 176.529 271.291 177.246 270.62 177.756C269.95 178.266 269.131 178.542 268.288 178.541ZM263.039 174.203H267.893L271.095 162.247C271.251 161.671 271.54 161.139 271.937 160.693C272.335 160.247 272.831 159.9 273.385 159.679L273.967 159.453C274.499 159.242 275.072 159.155 275.644 159.198C276.215 159.241 276.769 159.413 277.264 159.7L288.152 165.969L291.575 162.546L285.402 151.796C285.109 151.286 284.938 150.716 284.902 150.129C284.866 149.542 284.966 148.955 285.194 148.413L285.419 147.87C285.643 147.332 285.988 146.852 286.427 146.468C286.867 146.085 287.389 145.807 287.953 145.658L300.099 142.409V137.55L288.148 134.353C287.571 134.197 287.038 133.908 286.592 133.51C286.146 133.111 285.799 132.614 285.58 132.058L285.354 131.486C285.144 130.951 285.057 130.375 285.1 129.802C285.143 129.229 285.314 128.673 285.601 128.176L291.887 117.296L288.417 113.869L277.658 120.05C277.154 120.341 276.591 120.513 276.01 120.552C275.43 120.591 274.848 120.497 274.309 120.276L273.81 120.072C273.266 119.847 272.78 119.5 272.39 119.058C272.001 118.616 271.718 118.09 271.563 117.521L268.318 105.349H263.482L260.28 117.33C260.125 117.919 259.832 118.462 259.425 118.914C259.019 119.367 258.51 119.716 257.942 119.933L257.421 120.128C256.894 120.332 256.327 120.415 255.764 120.372C255.2 120.328 254.653 120.159 254.163 119.877L243.223 113.582L239.8 117.005L245.969 127.746C246.262 128.26 246.432 128.835 246.467 129.425C246.502 130.016 246.399 130.607 246.168 131.152L245.947 131.672C245.72 132.2 245.375 132.67 244.94 133.045C244.505 133.421 243.991 133.693 243.435 133.841L231.289 137.129V141.992L243.249 145.194C243.823 145.35 244.353 145.637 244.798 146.032C245.242 146.427 245.59 146.92 245.812 147.471L246.021 147.996C246.239 148.534 246.332 149.115 246.29 149.694C246.249 150.273 246.075 150.835 245.782 151.337L239.475 162.251L242.945 165.683L253.66 159.527C254.175 159.231 254.751 159.059 255.344 159.025C255.937 158.991 256.529 159.096 257.074 159.332L257.534 159.523C258.089 159.74 258.585 160.086 258.982 160.532C259.378 160.977 259.664 161.51 259.816 162.086L263.039 174.203Z" fill="#E06B45"/>
<path d="M265.686 152.789C263.112 152.789 260.596 152.026 258.456 150.596C256.316 149.166 254.648 147.133 253.663 144.755C252.678 142.377 252.42 139.761 252.922 137.236C253.424 134.712 254.664 132.393 256.484 130.573C258.304 128.752 260.623 127.513 263.147 127.011C265.672 126.509 268.288 126.766 270.666 127.751C273.045 128.736 275.077 130.404 276.507 132.545C277.937 134.685 278.7 137.201 278.7 139.775C278.7 143.227 277.329 146.537 274.889 148.977C272.448 151.418 269.138 152.789 265.686 152.789ZM265.686 131.099C263.97 131.099 262.293 131.608 260.866 132.561C259.439 133.514 258.327 134.869 257.67 136.455C257.014 138.04 256.842 139.785 257.177 141.468C257.511 143.151 258.338 144.697 259.551 145.91C260.765 147.123 262.31 147.95 263.993 148.284C265.677 148.619 267.421 148.447 269.006 147.791C270.592 147.134 271.947 146.022 272.9 144.595C273.853 143.168 274.362 141.491 274.362 139.775C274.362 137.474 273.448 135.267 271.821 133.64C270.194 132.013 267.987 131.099 265.686 131.099Z" fill="#E06B45"/>
<path d="M330.412 145.105L326.874 145.695C326.345 145.783 325.803 145.694 325.33 145.442C324.857 145.19 324.481 144.789 324.259 144.302L320.867 136.943L314.715 141.982C314.302 142.318 313.791 142.51 313.259 142.529C312.727 142.548 312.203 142.393 311.767 142.087L308.833 140.006C308.396 139.695 308.074 139.249 307.916 138.736C307.758 138.223 307.774 137.673 307.96 137.17L310.804 129.577L310.78 129.537L302.857 128.768C302.324 128.716 301.823 128.491 301.431 128.126C301.04 127.76 300.78 127.276 300.691 126.749L300.101 123.205C300.014 122.678 300.102 122.137 300.353 121.666C300.604 121.194 301.004 120.818 301.489 120.596L308.863 117.194L303.812 111.038C303.475 110.624 303.283 110.111 303.265 109.577C303.248 109.044 303.405 108.519 303.714 108.084L305.796 105.169C306.107 104.736 306.552 104.417 307.061 104.26C307.571 104.103 308.118 104.118 308.619 104.301L316.229 107.131L316.261 107.125L317.023 99.1946C317.074 98.6611 317.299 98.1593 317.664 97.7671C318.029 97.375 318.514 97.1144 319.042 97.026L322.58 96.4364C323.109 96.3489 323.652 96.4383 324.125 96.6907C324.598 96.9431 324.974 97.3444 325.196 97.8325L328.557 105.21L334.731 100.151C335.144 99.8149 335.654 99.623 336.186 99.6041C336.717 99.5852 337.24 99.7403 337.676 100.046L340.613 102.127C341.05 102.438 341.373 102.885 341.53 103.399C341.687 103.913 341.669 104.464 341.48 104.967L338.639 112.522L338.671 112.579L346.591 113.345C347.123 113.398 347.624 113.624 348.014 113.989C348.405 114.354 348.665 114.837 348.754 115.365L349.344 118.903C349.431 119.431 349.342 119.974 349.09 120.447C348.839 120.919 348.438 121.296 347.95 121.518L340.581 124.911L345.633 131.076C345.973 131.489 346.166 132.003 346.184 132.537C346.202 133.072 346.043 133.597 345.732 134.032L343.652 136.944C343.339 137.377 342.894 137.696 342.383 137.852C341.872 138.008 341.324 137.994 340.823 137.81L333.25 134.983L333.208 135.029L332.443 142.946C332.388 143.479 332.16 143.979 331.793 144.369C331.426 144.76 330.94 145.018 330.412 145.105ZM326.665 142.933L329.711 142.425L330.469 134.59C330.507 134.212 330.632 133.848 330.835 133.527C331.038 133.206 331.312 132.937 331.637 132.74L331.978 132.537C332.29 132.35 332.641 132.235 333.004 132.202C333.366 132.169 333.732 132.219 334.073 132.348L341.559 135.142L343.348 132.637L338.352 126.539C338.115 126.249 337.948 125.909 337.864 125.545C337.78 125.18 337.781 124.801 337.867 124.438L337.952 124.074C338.036 123.713 338.202 123.375 338.438 123.089C338.673 122.802 338.972 122.574 339.31 122.421L346.59 119.113L346.082 116.065L338.25 115.309C337.872 115.271 337.508 115.146 337.186 114.942C336.865 114.739 336.595 114.463 336.399 114.137L336.198 113.802C336.01 113.488 335.896 113.136 335.863 112.772C335.83 112.409 335.879 112.042 336.007 111.7L338.813 104.217L336.277 102.43L330.175 107.433C329.889 107.668 329.553 107.835 329.193 107.92C328.833 108.005 328.458 108.007 328.097 107.924L327.763 107.849C327.398 107.765 327.057 107.598 326.766 107.361C326.475 107.124 326.243 106.824 326.087 106.483L322.778 99.1864L319.744 99.6921L318.988 107.543C318.952 107.929 318.825 108.3 318.618 108.626C318.41 108.953 318.127 109.225 317.793 109.421L317.487 109.598C317.178 109.781 316.831 109.892 316.473 109.924C316.115 109.955 315.754 109.906 315.417 109.78L307.896 106.976L306.106 109.481L311.099 115.574C311.337 115.866 311.504 116.208 311.587 116.575C311.671 116.942 311.668 117.323 311.58 117.689L311.496 118.039C311.409 118.394 311.242 118.725 311.008 119.006C310.774 119.287 310.48 119.511 310.147 119.662L302.871 122.995L303.379 126.046L311.217 126.804C311.594 126.842 311.956 126.966 312.276 127.168C312.597 127.369 312.866 127.642 313.064 127.965L313.249 128.272C313.442 128.587 313.561 128.941 313.596 129.309C313.63 129.677 313.58 130.047 313.449 130.393L310.633 137.899L313.169 139.689L319.247 134.707C319.539 134.467 319.883 134.299 320.251 134.216C320.619 134.132 321.002 134.137 321.368 134.227L321.677 134.299C322.048 134.378 322.395 134.543 322.691 134.781C322.986 135.019 323.221 135.323 323.376 135.669L326.665 142.933Z" fill="#00BB9C"/>
<path d="M326.089 129.223C324.474 129.492 322.816 129.276 321.324 128.603C319.832 127.929 318.573 126.829 317.706 125.44C316.839 124.051 316.404 122.436 316.455 120.8C316.506 119.164 317.041 117.58 317.993 116.248C318.944 114.916 320.27 113.895 321.801 113.317C323.332 112.738 325.001 112.626 326.595 112.995C328.19 113.364 329.64 114.198 330.76 115.391C331.881 116.584 332.623 118.083 332.892 119.698C333.253 121.863 332.739 124.083 331.463 125.869C330.187 127.656 328.254 128.862 326.089 129.223ZM323.821 115.616C322.744 115.795 321.745 116.29 320.95 117.037C320.155 117.784 319.599 118.75 319.352 119.814C319.106 120.877 319.181 121.989 319.567 123.01C319.953 124.031 320.633 124.914 321.521 125.549C322.409 126.183 323.465 126.54 324.556 126.574C325.647 126.608 326.723 126.318 327.649 125.74C328.575 125.162 329.309 124.323 329.758 123.328C330.207 122.333 330.35 121.228 330.171 120.151C329.93 118.708 329.126 117.419 327.935 116.568C326.744 115.718 325.265 115.375 323.821 115.616Z" fill="#00BB9C"/>
<path d="M278.059 104.31L275.158 102.201C274.725 101.886 274.408 101.437 274.256 100.923C274.104 100.409 274.126 99.8597 274.318 99.3596L277.186 91.7818L269.279 90.9284C268.75 90.8697 268.255 90.6399 267.868 90.2739C267.482 89.908 267.225 89.4258 267.138 88.9008L266.565 85.3493C266.48 84.8196 266.572 84.2767 266.827 83.8047C267.082 83.3327 267.485 82.9579 267.975 82.7384L275.382 79.4422L275.394 79.3968L270.387 73.2084C270.05 72.7924 269.86 72.2769 269.845 71.7417C269.831 71.2066 269.994 70.6817 270.308 70.2483L272.42 67.3428C272.735 66.9113 273.183 66.5954 273.695 66.4437C274.207 66.2921 274.755 66.3131 275.254 66.5037L282.85 69.3755L283.698 61.4576C283.757 60.927 283.988 60.4303 284.356 60.0436C284.724 59.6569 285.208 59.4015 285.735 59.3164L289.273 58.7571C289.8 58.6753 290.34 58.7683 290.809 59.0219C291.278 59.2755 291.651 59.6757 291.871 60.1614L295.19 67.5709L295.217 67.5903L301.405 62.5728C301.821 62.2348 302.337 62.0435 302.872 62.0289C303.408 62.0142 303.933 62.1769 304.367 62.4917L307.268 64.6007C307.701 64.9165 308.018 65.3663 308.17 65.8804C308.322 66.3946 308.299 66.9444 308.107 67.4446L305.203 75.0141L313.14 75.8688C313.669 75.9274 314.163 76.157 314.55 76.5227C314.936 76.8884 315.192 77.3701 315.279 77.8947L315.855 81.4478C315.94 81.9782 315.847 82.5218 315.591 82.9938C315.335 83.4659 314.93 83.84 314.438 84.0577L307.059 87.3298L307.041 87.3918L312.048 93.5764C312.384 93.9927 312.574 94.5079 312.587 95.0426C312.601 95.5773 312.439 96.1016 312.125 96.5348L310.016 99.4359C309.701 99.8689 309.251 100.186 308.738 100.338C308.224 100.49 307.675 100.468 307.174 100.276L299.588 97.4009L298.735 105.326C298.678 105.857 298.448 106.356 298.079 106.743C297.71 107.131 297.224 107.386 296.696 107.469L293.162 108.028C292.634 108.108 292.094 108.014 291.625 107.76C291.155 107.505 290.782 107.104 290.561 106.618L287.267 99.2362L287.204 99.2382L281.023 104.245C280.605 104.579 280.088 104.767 279.552 104.779C279.017 104.791 278.492 104.626 278.059 104.31ZM276.981 100.116L279.478 101.931L285.596 96.9781C285.892 96.7402 286.24 96.5743 286.611 96.4937C286.982 96.4131 287.367 96.4199 287.735 96.5135L288.118 96.6149C288.471 96.7056 288.799 96.8752 289.076 97.1107C289.354 97.3463 289.575 97.6419 289.722 97.9751L292.979 105.272L296.02 104.791L296.864 96.9526C296.904 96.5808 297.03 96.2233 297.231 95.9079C297.432 95.5924 297.703 95.3276 298.023 95.1341L298.341 94.9395C298.658 94.7461 299.015 94.6283 299.384 94.5953C299.754 94.5622 300.126 94.6147 300.472 94.7488L307.936 97.6198L309.753 95.1204L304.8 89.0063C304.562 88.7101 304.396 88.3623 304.315 87.9906C304.235 87.6189 304.242 87.2336 304.337 86.8654L304.435 86.4864C304.527 86.1328 304.698 85.8044 304.934 85.5256C305.17 85.2468 305.467 85.0249 305.8 84.8762L313.103 81.6301L312.599 78.5693L304.753 77.726C304.385 77.6872 304.031 77.5646 303.717 77.3676C303.404 77.1706 303.14 76.9045 302.946 76.5896L302.765 76.2981C302.569 75.9787 302.449 75.6186 302.414 75.2454C302.379 74.8722 302.43 74.496 302.563 74.1456L305.446 66.6703L302.958 64.8614L296.83 69.8278C296.531 70.0725 296.177 70.2423 295.798 70.323C295.42 70.4038 295.028 70.3933 294.654 70.2923L294.313 70.1981C293.966 70.1056 293.644 69.9365 293.37 69.7033C293.096 69.4701 292.878 69.1786 292.732 68.8503L289.457 61.5208L286.417 62.0015L285.573 69.8338C285.532 70.2078 285.405 70.5672 285.201 70.884C284.998 71.2008 284.725 71.4665 284.402 71.6602L284.094 71.8453C283.779 72.0319 283.427 72.1447 283.063 72.1752C282.698 72.2058 282.332 72.1533 281.991 72.0218L274.512 69.1708L272.694 71.6724L277.649 77.7921C277.886 78.0871 278.051 78.4329 278.132 78.8025C278.213 79.172 278.208 79.5554 278.116 79.9224L278.027 80.2703C277.938 80.6288 277.769 80.9621 277.531 81.2446C277.293 81.527 276.993 81.7511 276.655 81.8994L269.329 85.1552L269.831 88.2183L277.645 89.0588C278.02 89.0987 278.381 89.2259 278.699 89.4301C279.016 89.6344 279.282 89.91 279.474 90.2351L279.639 90.5053C279.843 90.8249 279.969 91.1882 280.007 91.5657C280.044 91.9431 279.992 92.324 279.854 92.6775L276.981 100.116Z" fill="#F5EFD9"/>
<path d="M286.359 90.0905C285.035 89.1279 284.026 87.7942 283.46 86.2583C282.894 84.7223 282.796 83.0529 283.179 81.4612C283.561 79.8695 284.407 78.427 285.61 77.3162C286.812 76.2053 288.317 75.476 289.934 75.2203C291.551 74.9647 293.207 75.1943 294.694 75.8801C296.18 76.5659 297.43 77.677 298.285 79.073C299.14 80.4691 299.561 82.0873 299.497 83.723C299.432 85.3587 298.884 86.9385 297.921 88.2626C296.63 90.0382 294.687 91.2283 292.519 91.571C290.35 91.9138 288.135 91.3812 286.359 90.0905ZM294.471 78.9325C293.588 78.2908 292.535 77.9252 291.444 77.8821C290.354 77.8389 289.275 78.1201 288.344 78.6901C287.414 79.26 286.673 80.0932 286.216 81.0841C285.759 82.0751 285.606 83.1794 285.776 84.2573C285.946 85.3353 286.433 86.3385 287.173 87.1401C287.914 87.9417 288.875 88.5057 289.937 88.7608C290.998 89.0159 292.111 88.9505 293.135 88.5731C294.159 88.1957 295.048 87.5231 295.689 86.6403C296.55 85.4566 296.905 83.9795 296.676 82.5341C296.448 81.0886 295.655 79.793 294.471 78.9325Z" fill="#F5EFD9"/>
<path d="M237.817 98.171L238.226 99.1283L237.817 98.171ZM245.929 95.5012C246.143 94.9674 245.884 94.3613 245.35 94.1474L236.653 90.6617C236.119 90.4478 235.513 90.7071 235.299 91.2409C235.085 91.7746 235.344 92.3807 235.878 92.5946L243.609 95.693L240.511 103.424C240.297 103.958 240.556 104.564 241.09 104.778C241.624 104.992 242.23 104.733 242.444 104.199L245.929 95.5012ZM238.226 99.1283L245.373 96.0711L244.554 94.1566L237.407 97.2138L238.226 99.1283ZM216.783 121.257C220.675 111.304 228.401 103.332 238.226 99.1283L237.407 97.2138C227.069 101.637 218.939 110.026 214.843 120.498L216.783 121.257Z" fill="#F5EFD9"/>
<path d="M315.807 57.0403L315.273 57.9345L315.807 57.0403ZM314.077 56.8656C313.936 56.3081 314.274 55.742 314.831 55.6011L323.916 53.3051C324.473 53.1642 325.039 53.5019 325.18 54.0593C325.321 54.6168 324.983 55.183 324.426 55.3239L316.351 57.3648L318.392 65.44C318.532 65.9974 318.195 66.5636 317.637 66.7045C317.08 66.8454 316.514 66.5077 316.373 65.9502L314.077 56.8656ZM315.273 57.9345L314.553 57.5046L315.619 55.7163L316.34 56.1462L315.273 57.9345ZM323.877 87.7198C329.292 77.0742 325.531 64.0531 315.273 57.9345L316.34 56.1462C327.539 62.8262 331.645 77.0417 325.733 88.6639L323.877 87.7198Z" fill="#F5EFD9"/>
</svg>
